<svg width="207.064453" height="35.000000" viewBox="0 0 207.064 35" fill="none" xmlns="http://www.w3.org/2000/svg" xmlns:xlink="http://www.w3.org/1999/xlink">
	<desc>
			Created with Pixso.
	</desc>
	<defs/>
	<rect id="Logo" width="207.064362" height="34.999996" fill="#FFFFFF" fill-opacity="0"/>
	<path id="Path" d="M37.8853 22.1143Q34.6313 22.1143 32.1763 21.041Q29.9263 20.0791 28.5957 18.3921Q28.4741 18.2378 28.3604 18.0776C27.4336 16.8022 26.9702 15.3169 26.9702 13.6211C26.9702 12.3457 27.2363 11.1865 27.7686 10.1445C28.2812 9.10205 29.021 8.2002 29.9873 7.43799C30.9536 6.69092 32.1069 6.11572 33.4482 5.71094C34.7891 5.30664 36.2681 5.10449 37.8853 5.10449L52.271 5.10449Q55.4956 5.10449 57.98 6.17773C59.6172 6.89355 60.8989 7.88916 61.8257 9.16455C62.7329 10.4556 63.1865 11.9409 63.1865 13.6211C63.1865 14.8965 62.9302 16.0557 62.4175 17.0977C61.8848 18.1401 61.1353 19.0347 60.1689 19.7812C59.2026 20.5278 58.0493 21.1035 56.708 21.5078C55.3672 21.9121 53.8882 22.1143 52.271 22.1143L37.8853 22.1143ZM76.6812 22.1143Q73.4277 22.1143 70.9722 21.041Q68.7227 20.0791 67.3916 18.3921Q67.27 18.2378 67.1562 18.0776C66.2295 16.8022 65.7661 15.3169 65.7661 13.6211C65.7661 12.3457 66.0322 11.1865 66.5649 10.1445C67.0776 9.10205 67.8169 8.2002 68.7832 7.43799C69.7495 6.69092 70.9033 6.11572 72.2441 5.71094C73.5854 5.30664 75.0645 5.10449 76.6812 5.10449L102.16 5.10449C104.31 5.10449 106.212 5.4624 107.869 6.17773C109.506 6.89355 110.788 7.88916 111.714 9.16455C112.622 10.4556 113.075 11.9409 113.075 13.6211C113.075 14.8965 112.819 16.0557 112.306 17.0977C111.773 18.1401 111.024 19.0347 110.058 19.7812C109.092 20.5278 107.938 21.1035 106.597 21.5078C105.256 21.9121 103.777 22.1143 102.16 22.1143L76.6812 22.1143ZM123.711 22.1553C122.962 22.1553 122.163 22.1089 121.315 22.0151C120.467 21.9375 119.649 21.8286 118.86 21.6885C118.091 21.5332 117.401 21.3618 116.79 21.1753C116.158 20.9731 115.715 20.6855 115.458 20.312C115.25 19.9961 115.146 19.6646 115.146 19.3179Q115.146 19.1978 115.163 19.0752C115.222 18.6396 115.409 18.251 115.725 17.9087C116.04 17.5664 116.464 17.333 116.997 17.2085C117.529 17.0688 118.13 17.1074 118.801 17.3252C119.491 17.543 120.3 17.7222 121.227 17.8618C122.173 18.002 123.001 18.0718 123.711 18.0718C124.855 18.0718 125.634 17.9707 126.048 17.7686C126.462 17.5664 126.669 17.333 126.669 17.0688C126.669 16.8198 126.521 16.6177 126.226 16.4619C125.95 16.291 125.427 16.1431 124.658 16.0186L121.108 15.4121Q118.239 14.9219 116.849 13.7319C115.922 12.9385 115.458 11.9199 115.458 10.6753C115.458 9.83545 115.675 9.08105 116.109 8.41211C116.562 7.72754 117.194 7.14404 118.002 6.66211C118.811 6.17969 119.777 5.80664 120.901 5.54199C122.025 5.27734 123.277 5.14551 124.658 5.14551C125.585 5.14551 126.571 5.22314 127.616 5.37842C128.661 5.53418 129.559 5.75977 130.308 6.05518C130.84 6.25732 131.225 6.54541 131.461 6.91846C131.684 7.24219 131.795 7.57764 131.795 7.92432C131.795 7.97754 131.792 8.03125 131.787 8.08545C131.748 8.48975 131.58 8.85547 131.284 9.18213Q130.87 9.64844 130.101 9.83545C129.588 9.94434 128.967 9.89746 128.237 9.69531C127.744 9.55518 127.152 9.44629 126.462 9.36865C125.772 9.27539 125.141 9.22852 124.569 9.22852C123.938 9.22852 123.406 9.2832 122.972 9.39209C122.538 9.48535 122.212 9.62549 121.996 9.81201C121.779 9.98291 121.67 10.1855 121.67 10.4185C121.67 10.6211 121.808 10.8076 122.084 10.9785C122.36 11.1343 122.893 11.2744 123.682 11.3984L127.231 12.0054Q130.071 12.4951 131.461 13.6621Q132.19 14.2607 132.545 15.0317Q132.881 15.7627 132.881 16.6484C132.881 17.4888 132.665 18.251 132.23 18.9355C131.797 19.604 131.175 20.1797 130.367 20.6621C129.578 21.144 128.622 21.5176 127.498 21.7822C126.374 22.0308 125.111 22.1553 123.711 22.1553ZM157.453 22.1089C156.427 22.1089 155.639 21.8911 155.086 21.4551C154.534 21.0044 154.258 20.3662 154.258 19.542L154.258 7.75879C154.258 6.93408 154.534 6.3042 155.086 5.86865C155.639 5.41748 156.427 5.19189 157.453 5.19189C158.479 5.19189 159.257 5.41748 159.79 5.86865C160.342 6.3042 160.618 6.93408 160.618 7.75879L160.618 19.542C160.618 20.3662 160.352 21.0044 159.819 21.4551C159.287 21.8911 158.498 22.1089 157.453 22.1089ZM189.748 22.1089C188.722 22.1089 187.934 21.8911 187.381 21.4551C186.829 21.0044 186.553 20.3589 186.553 19.5186L186.553 14.7339L181.229 8.5752C180.905 8.19922 180.743 7.78809 180.743 7.34229C180.743 7.27197 180.747 7.20068 180.755 7.12842C180.814 6.59961 181.09 6.14844 181.583 5.77539C182.077 5.38623 182.787 5.19189 183.713 5.19189Q184.689 5.19189 185.458 5.56543Q186.257 5.93848 186.967 6.80176L189.823 10.248L192.706 6.77881Q193.416 5.91553 194.185 5.56543Q194.954 5.19189 195.959 5.19189C196.847 5.19189 197.527 5.37109 198.001 5.72852C198.494 6.0708 198.76 6.50635 198.799 7.03516C198.803 7.07764 198.804 7.12012 198.804 7.16211C198.804 7.64893 198.596 8.13525 198.178 8.62207L192.913 14.73L192.913 19.5186Q192.913 20.5576 192.404 21.1797Q191.644 22.1089 189.748 22.1089ZM10.6787 21.8755Q9.08105 21.8755 8.22314 21.2222Q7.98828 21.0298 7.81982 20.791Q7.39502 20.1875 7.39502 19.2852L7.39502 8.01514Q7.39502 7.10156 7.83057 6.50684L7.83057 6.50684Q7.99561 6.28174 8.22314 6.10205Q9.08105 5.42529 10.6787 5.42529L17.9849 5.42529Q20.2627 5.42529 21.8599 5.96191C22.9248 6.3042 23.7334 6.79443 24.2856 7.43213Q24.7168 7.9126 24.9312 8.47607Q25.1436 9.03369 25.1436 9.67188C25.1436 10.6211 24.7983 11.4375 24.1079 12.1221C23.6035 12.6372 22.959 13.0293 22.1743 13.2974C23.1826 13.5591 23.9849 13.9683 24.5815 14.5254Q25.0474 14.9507 25.3198 15.4766Q25.7056 16.2192 25.7056 17.1621Q25.7056 17.9922 25.4043 18.6934Q24.9272 19.8052 23.6938 20.5918Q21.6826 21.8755 18.251 21.8755L10.6787 21.8755ZM142.863 22.1089C141.837 22.1089 141.049 21.8911 140.497 21.4551C139.944 21.0044 139.668 20.374 139.668 19.5654L139.668 9.48535L135.646 9.48535C134.797 9.48535 134.146 9.31445 133.693 8.97217C133.259 8.61426 133.042 8.10889 133.042 7.45508C133.042 6.80176 133.259 6.3042 133.693 5.96191C134.146 5.604 134.797 5.42529 135.646 5.42529L150.051 5.42529C150.899 5.42529 151.54 5.604 151.974 5.96191C152.427 6.3042 152.654 6.80176 152.654 7.45508C152.654 8.10889 152.427 8.61426 151.974 8.97217C151.54 9.31445 150.899 9.48535 150.051 9.48535L146.028 9.48535L146.028 19.5654Q146.028 20.4185 145.633 21.0063Q145.466 21.2544 145.229 21.4551C144.697 21.8911 143.908 22.1089 142.863 22.1089ZM167.188 22.1089C166.163 22.1089 165.374 21.8911 164.821 21.4551C164.27 21.0044 163.993 20.3589 163.993 19.5186L163.993 8.01514C163.993 7.17529 164.27 6.5376 164.821 6.10205C165.394 5.65088 166.212 5.42529 167.277 5.42529L176.89 5.42529C177.699 5.42529 178.31 5.58887 178.724 5.91553C179.139 6.24219 179.346 6.71631 179.346 7.33887C179.346 7.96094 179.139 8.43555 178.724 8.76221C178.31 9.08887 177.699 9.25195 176.89 9.25195L170.353 9.25195L170.353 11.8188L176.21 11.8188Q177.423 11.8188 178.044 12.3086C178.458 12.6353 178.665 13.1099 178.665 13.7319C178.665 14.354 178.458 14.8286 178.044 15.1553Q177.423 15.6455 176.21 15.6455L170.353 15.6455L170.353 19.5186C170.353 21.2451 169.298 22.1089 167.188 22.1089ZM13.459 11.7021L16.8018 11.7021Q18.0439 11.7021 18.5767 11.3984Q18.7798 11.2739 18.9058 11.0947Q19.1089 10.8047 19.1089 10.3721Q19.1089 9.93115 18.8979 9.64746Q18.7734 9.48096 18.5767 9.36865Q18.0439 9.06543 16.8018 9.06543L13.459 9.06543L13.459 11.7021ZM37.8853 9.28125C36.978 9.28125 36.209 9.45215 35.5781 9.79443C34.9272 10.1523 34.4341 10.6499 34.0991 11.2876C33.7441 11.9409 33.5664 12.7188 33.5664 13.6211C33.5664 14.9746 33.9512 16.0322 34.7202 16.7944C35.4893 17.5566 36.5444 17.938 37.8853 17.938L52.271 17.938C53.1587 17.938 53.9277 17.7666 54.5786 17.4243C55.229 17.082 55.7319 16.5923 56.0869 15.9546C56.4224 15.3169 56.5898 14.5391 56.5898 13.6211C56.5898 12.2524 56.2056 11.1865 55.436 10.4243Q55.2568 10.2466 55.0566 10.0967Q53.9697 9.28125 52.271 9.28125L37.8853 9.28125ZM76.6812 9.28125C75.7744 9.28125 75.0054 9.45215 74.374 9.79443C73.7231 10.1523 73.2305 10.6499 72.895 11.2876C72.54 11.9409 72.3628 12.7188 72.3628 13.6211C72.3628 14.9746 72.7471 16.0322 73.5161 16.7944C74.2852 17.5566 75.3403 17.938 76.6812 17.938L102.16 17.938C103.047 17.938 103.816 17.7666 104.467 17.4243Q104.977 17.1562 105.366 16.7671Q105.722 16.4111 105.976 15.9546C106.311 15.3169 106.479 14.5391 106.479 13.6211C106.479 12.2524 106.094 11.1865 105.325 10.4243C104.556 9.66211 103.501 9.28125 102.16 9.28125L76.6812 9.28125ZM13.459 18.2354L17.3638 18.2354Q18.606 18.2354 19.1387 17.8853C19.5132 17.6362 19.7007 17.271 19.7007 16.7886C19.7007 16.3066 19.5132 15.9487 19.1387 15.7153C18.7837 15.4663 18.1919 15.3418 17.3638 15.3418L13.459 15.3418L13.459 18.2354Z" fill="#FFFFFF" fill-opacity="1.000000" fill-rule="evenodd"/>
	<path id="Path" d="M190.688 30.5737C191.001 30.6079 191.295 30.6255 191.572 30.6255C192.088 30.6255 192.554 30.5796 192.968 30.4878C193.383 30.3901 193.736 30.2524 194.027 30.0747C194.325 29.8965 194.554 29.6846 194.714 29.4375C194.874 29.1851 194.954 28.9043 194.954 28.5942C194.954 28.147 194.779 27.7798 194.43 27.4927C194.088 27.2061 193.568 27.0024 192.87 26.8818L191.561 26.6582C191.27 26.6123 191.074 26.5605 190.972 26.5029C190.87 26.4399 190.819 26.3711 190.819 26.2964C190.819 26.2104 190.859 26.1357 190.939 26.0728C191.019 26.0039 191.139 25.9521 191.299 25.918C191.459 25.8779 191.655 25.8574 191.888 25.8574C192.099 25.8574 192.332 25.875 192.586 25.9092C192.841 25.938 193.059 25.978 193.241 26.0298C193.51 26.1045 193.739 26.1216 193.928 26.0815C194.118 26.0356 194.263 25.9551 194.365 25.8403C194.474 25.7197 194.536 25.585 194.55 25.436C194.565 25.2866 194.525 25.1436 194.43 25.0059C194.343 24.8682 194.201 24.7617 194.005 24.687C193.729 24.5781 193.397 24.4951 193.012 24.4375C192.626 24.3804 192.263 24.3516 191.921 24.3516C191.412 24.3516 190.95 24.4004 190.535 24.498C190.121 24.5952 189.765 24.7329 189.466 24.9111C189.168 25.0889 188.935 25.3042 188.768 25.5566C188.608 25.8032 188.528 26.0815 188.528 26.3911Q188.528 26.7549 188.671 27.0488L188.671 27.0488Q188.799 27.3115 189.041 27.5186C189.382 27.811 189.906 28.0176 190.612 28.1382L191.921 28.3618C192.205 28.4077 192.397 28.4624 192.499 28.5254C192.608 28.583 192.663 28.6572 192.663 28.749C192.663 28.8467 192.586 28.9326 192.434 29.0073C192.281 29.082 191.994 29.1191 191.572 29.1191C191.31 29.1191 191.004 29.0933 190.655 29.042C190.313 28.9902 190.015 28.9243 189.761 28.8438C189.514 28.7637 189.292 28.749 189.095 28.8008C188.899 28.8467 188.743 28.9326 188.626 29.0591C188.51 29.1851 188.44 29.3286 188.419 29.4893C188.397 29.6499 188.434 29.8022 188.528 29.9453C188.623 30.083 188.786 30.1895 189.019 30.2637C189.244 30.3325 189.499 30.396 189.783 30.4531C190.074 30.5049 190.375 30.5449 190.688 30.5737ZM165.296 30.6079C165.034 30.6079 164.812 30.5596 164.63 30.4619C164.456 30.3643 164.343 30.2324 164.292 30.0659C164.249 29.894 164.289 29.7017 164.412 29.4893L167.042 25.1177C167.194 24.8594 167.38 24.6699 167.598 24.5493C167.823 24.4292 168.082 24.3687 168.373 24.3687C168.664 24.3687 168.918 24.4292 169.136 24.5493C169.354 24.6699 169.54 24.8594 169.693 25.1177L172.322 29.4893C172.453 29.7075 172.497 29.9023 172.453 30.0747C172.417 30.2407 172.311 30.373 172.137 30.4702Q171.886 30.6079 171.504 30.6079C171.169 30.6079 170.911 30.5479 170.729 30.4272C170.547 30.3071 170.384 30.1118 170.238 29.8423L169.995 29.3945L166.739 29.3945L166.496 29.8423C166.351 30.1118 166.198 30.3071 166.038 30.4272C165.878 30.5479 165.63 30.6079 165.296 30.6079ZM155.686 30.522C155.308 30.522 155.014 30.4419 154.803 30.2812C154.599 30.1147 154.497 29.8823 154.497 29.584L154.497 25.3931C154.497 25.0889 154.599 24.8564 154.803 24.6958C155.006 24.5352 155.297 24.4551 155.675 24.4551C156.054 24.4551 156.341 24.5352 156.537 24.6958C156.741 24.8564 156.843 25.0889 156.843 25.3931L156.843 28.9902L159.232 28.9902C159.552 28.9902 159.796 29.0562 159.963 29.188C160.138 29.3203 160.225 29.5093 160.225 29.7563C160.225 30.0029 160.138 30.1924 159.963 30.3242C159.796 30.4561 159.552 30.522 159.232 30.522L155.686 30.522ZM178.24 30.522C177.847 30.522 177.545 30.4419 177.334 30.2812C177.131 30.1147 177.029 29.8765 177.029 29.5669L177.029 25.4102C177.029 25.1001 177.131 24.8652 177.334 24.7046C177.545 24.5381 177.847 24.4551 178.24 24.4551L180.935 24.4551C181.495 24.4551 181.971 24.521 182.364 24.6528C182.757 24.7788 183.055 24.96 183.259 25.1948C183.47 25.4302 183.575 25.7056 183.575 26.021C183.575 26.3711 183.448 26.6724 183.193 26.9248C183.007 27.1147 182.77 27.2593 182.48 27.3584C182.852 27.4546 183.148 27.606 183.368 27.811C183.644 28.0635 183.783 28.3877 183.783 28.7837C183.783 29.3115 183.535 29.7334 183.041 30.0488C182.546 30.3643 181.877 30.522 181.033 30.522L178.24 30.522ZM179.266 26.77L180.499 26.77C180.804 26.77 181.022 26.7324 181.153 26.6582C181.284 26.5776 181.35 26.4517 181.35 26.2793C181.35 26.1074 181.284 25.9839 181.153 25.9092C181.022 25.8345 180.804 25.7974 180.499 25.7974L179.266 25.7974L179.266 26.77ZM168.351 26.3652L167.497 27.9834L169.235 27.9834L168.373 26.3652L168.351 26.3652ZM179.266 29.1797L180.706 29.1797C181.011 29.1797 181.229 29.1367 181.36 29.0503C181.499 28.9585 181.568 28.8237 181.568 28.646C181.568 28.4683 181.499 28.3359 181.36 28.25C181.229 28.1582 181.011 28.1123 180.706 28.1123L179.266 28.1123L179.266 29.1797Z" fill="#000000" fill-opacity="0.600000" fill-rule="evenodd"/>
</svg>
