<svg width="191.409180" height="17.050781" viewBox="0 0 191.409 17.0508" fill="none" xmlns="http://www.w3.org/2000/svg" xmlns:xlink="http://www.w3.org/1999/xlink">
	<desc>
			Created with Pixso.
	</desc>
	<defs/>
	<path id="Path" d="M30.4902 17.0098Q27.2363 17.0098 24.7812 15.9365Q22.5312 14.9746 21.2007 13.2876Q21.0791 13.1333 20.9653 12.9731C20.0386 11.6978 19.5752 10.2124 19.5752 8.5166C19.5752 7.24121 19.8413 6.08203 20.3735 5.04004C20.8862 3.99756 21.626 3.0957 22.5923 2.3335C23.5586 1.58643 24.7119 1.01123 26.0532 0.606445C27.394 0.202148 28.873 0 30.4902 0L44.876 0Q48.1006 0 50.585 1.07324C52.2222 1.78906 53.5039 2.78467 54.4307 4.06006C55.3379 5.35107 55.7915 6.83643 55.7915 8.5166C55.7915 9.79199 55.5352 10.9512 55.0225 11.9932C54.4897 13.0356 53.7402 13.9302 52.7739 14.6768C51.8076 15.4233 50.6543 15.999 49.313 16.4033C47.9722 16.8076 46.4932 17.0098 44.876 17.0098L30.4902 17.0098ZM69.2861 17.0098Q66.0327 17.0098 63.5771 15.9365Q61.3276 14.9746 59.9966 13.2876Q59.875 13.1333 59.7612 12.9731C58.8345 11.6978 58.3711 10.2124 58.3711 8.5166C58.3711 7.24121 58.6372 6.08203 59.1699 5.04004C59.6826 3.99756 60.4219 3.0957 61.3882 2.3335C62.3545 1.58643 63.5083 1.01123 64.8491 0.606445C66.1904 0.202148 67.6694 0 69.2861 0L94.7651 0C96.9146 0 98.8174 0.35791 100.474 1.07324C102.111 1.78906 103.393 2.78467 104.319 4.06006C105.227 5.35107 105.68 6.83643 105.68 8.5166C105.68 9.79199 105.424 10.9512 104.911 11.9932C104.378 13.0356 103.629 13.9302 102.663 14.6768C101.697 15.4233 100.543 15.999 99.2021 16.4033C97.8608 16.8076 96.3818 17.0098 94.7651 17.0098L69.2861 17.0098ZM116.316 17.0508C115.567 17.0508 114.768 17.0044 113.92 16.9106C113.072 16.833 112.254 16.7241 111.465 16.584C110.696 16.4287 110.006 16.2573 109.395 16.0708C108.763 15.8687 108.32 15.5811 108.063 15.2075C107.855 14.8916 107.751 14.5601 107.751 14.2134Q107.751 14.0933 107.768 13.9707C107.827 13.5352 108.014 13.1465 108.33 12.8042C108.645 12.4619 109.069 12.2285 109.602 12.104C110.134 11.9644 110.735 12.0029 111.406 12.2207C112.096 12.4385 112.905 12.6177 113.832 12.7573C114.778 12.8975 115.606 12.9673 116.316 12.9673C117.46 12.9673 118.239 12.8662 118.653 12.6641C119.067 12.4619 119.274 12.2285 119.274 11.9644C119.274 11.7153 119.126 11.5132 118.831 11.3574C118.555 11.1865 118.032 11.0386 117.263 10.9141L113.713 10.3076Q110.844 9.81738 109.454 8.62744C108.527 7.83398 108.063 6.81543 108.063 5.5708C108.063 4.73096 108.28 3.97656 108.714 3.30762C109.167 2.62305 109.799 2.03955 110.607 1.55762C111.416 1.0752 112.382 0.702148 113.506 0.4375C114.63 0.172852 115.882 0.0410156 117.263 0.0410156C118.19 0.0410156 119.176 0.118652 120.221 0.273926C121.266 0.429688 122.164 0.655273 122.913 0.950684C123.445 1.15283 123.83 1.44092 124.066 1.81396C124.289 2.1377 124.4 2.47314 124.4 2.81982C124.4 2.87305 124.397 2.92676 124.392 2.98096C124.353 3.38525 124.185 3.75098 123.889 4.07764Q123.475 4.54395 122.706 4.73096C122.193 4.83984 121.572 4.79297 120.842 4.59082C120.349 4.45068 119.757 4.3418 119.067 4.26416C118.377 4.1709 117.746 4.12402 117.174 4.12402C116.543 4.12402 116.011 4.17871 115.577 4.2876C115.143 4.38086 114.817 4.521 114.601 4.70752C114.384 4.87842 114.275 5.08105 114.275 5.31396C114.275 5.5166 114.413 5.70312 114.689 5.87402C114.965 6.02979 115.498 6.16992 116.287 6.29395L119.836 6.90088Q122.676 7.39062 124.066 8.55762Q124.795 9.15625 125.15 9.92725Q125.486 10.6582 125.486 11.5439C125.486 12.3843 125.27 13.1465 124.835 13.8311C124.402 14.4995 123.78 15.0752 122.972 15.5576C122.183 16.0396 121.227 16.4131 120.103 16.6777C118.979 16.9263 117.716 17.0508 116.316 17.0508ZM150.058 17.0044C149.032 17.0044 148.244 16.7866 147.691 16.3506C147.139 15.8999 146.863 15.2617 146.863 14.4375L146.863 2.6543C146.863 1.82959 147.139 1.19971 147.691 0.76416C148.244 0.312988 149.032 0.0874023 150.058 0.0874023C151.083 0.0874023 151.862 0.312988 152.395 0.76416C152.947 1.19971 153.223 1.82959 153.223 2.6543L153.223 14.4375C153.223 15.2617 152.957 15.8999 152.424 16.3506C151.892 16.7866 151.103 17.0044 150.058 17.0044ZM182.353 17.0044C181.327 17.0044 180.539 16.7866 179.986 16.3506C179.434 15.8999 179.158 15.2544 179.158 14.4141L179.158 9.62939L173.833 3.4707C173.51 3.09473 173.348 2.68359 173.348 2.23779C173.348 2.16748 173.352 2.09619 173.36 2.02393C173.419 1.49512 173.695 1.04395 174.188 0.670898C174.682 0.281738 175.392 0.0874023 176.318 0.0874023Q177.294 0.0874023 178.063 0.460938Q178.862 0.833984 179.572 1.69727L182.428 5.14355L185.311 1.67432Q186.021 0.811035 186.79 0.460938Q187.559 0.0874023 188.564 0.0874023C189.452 0.0874023 190.132 0.266602 190.606 0.624023C191.099 0.966309 191.365 1.40186 191.404 1.93066C191.408 1.97314 191.409 2.01562 191.409 2.05762C191.409 2.54443 191.201 3.03076 190.783 3.51758L185.518 9.62549L185.518 14.4141Q185.518 15.4531 185.009 16.0752Q184.249 17.0044 182.353 17.0044ZM3.28369 16.771Q1.68604 16.771 0.828125 16.1177Q0.593262 15.9253 0.424805 15.6865Q0 15.083 0 14.1807L0 2.91064Q0 1.99707 0.435547 1.40234L0.435547 1.40234Q0.600586 1.17725 0.828125 0.997559Q1.68604 0.320801 3.28369 0.320801L10.5898 0.320801Q12.8677 0.320801 14.4648 0.857422C15.5298 1.19971 16.3384 1.68994 16.8906 2.32764Q17.3218 2.80811 17.5361 3.37158Q17.7485 3.9292 17.7485 4.56738C17.7485 5.5166 17.4033 6.33301 16.7129 7.01758C16.2085 7.53271 15.564 7.9248 14.7793 8.19287C15.7876 8.45459 16.5898 8.86377 17.1865 9.4209Q17.6523 9.84619 17.9248 10.3721Q18.3105 11.1147 18.3105 12.0576Q18.3105 12.8877 18.0093 13.5889Q17.5322 14.7007 16.2988 15.4873Q14.2876 16.771 10.856 16.771L3.28369 16.771ZM135.468 17.0044C134.442 17.0044 133.654 16.7866 133.102 16.3506C132.549 15.8999 132.273 15.2695 132.273 14.4609L132.273 4.38086L128.25 4.38086C127.402 4.38086 126.751 4.20996 126.298 3.86768C125.864 3.50977 125.647 3.00439 125.647 2.35059C125.647 1.69727 125.864 1.19971 126.298 0.857422C126.751 0.499512 127.402 0.320801 128.25 0.320801L142.656 0.320801C143.504 0.320801 144.145 0.499512 144.579 0.857422C145.032 1.19971 145.259 1.69727 145.259 2.35059C145.259 3.00439 145.032 3.50977 144.579 3.86768C144.145 4.20996 143.504 4.38086 142.656 4.38086L138.633 4.38086L138.633 14.4609Q138.633 15.314 138.238 15.9019Q138.071 16.1499 137.834 16.3506C137.302 16.7866 136.513 17.0044 135.468 17.0044ZM159.793 17.0044C158.768 17.0044 157.979 16.7866 157.426 16.3506C156.875 15.8999 156.598 15.2544 156.598 14.4141L156.598 2.91064C156.598 2.0708 156.875 1.43311 157.426 0.997559C157.999 0.546387 158.817 0.320801 159.882 0.320801L169.495 0.320801C170.304 0.320801 170.915 0.484375 171.329 0.811035C171.744 1.1377 171.951 1.61182 171.951 2.23438C171.951 2.85645 171.744 3.33105 171.329 3.65771C170.915 3.98438 170.304 4.14746 169.495 4.14746L162.958 4.14746L162.958 6.71436L168.815 6.71436Q170.028 6.71436 170.649 7.2041C171.063 7.53076 171.27 8.00537 171.27 8.62744C171.27 9.24951 171.063 9.72412 170.649 10.0508Q170.028 10.541 168.815 10.541L162.958 10.541L162.958 14.4141C162.958 16.1406 161.903 17.0044 159.793 17.0044ZM6.06396 6.59766L9.40674 6.59766Q10.6489 6.59766 11.1816 6.29395Q11.3848 6.16943 11.5107 5.99023Q11.7139 5.7002 11.7139 5.26758Q11.7139 4.82666 11.5029 4.54297Q11.3784 4.37646 11.1816 4.26416Q10.6489 3.96094 9.40674 3.96094L6.06396 3.96094L6.06396 6.59766ZM30.4902 4.17676C29.583 4.17676 28.814 4.34766 28.1831 4.68994C27.5322 5.04785 27.0391 5.54541 26.7041 6.18311C26.3491 6.83643 26.1714 7.61426 26.1714 8.5166C26.1714 9.87012 26.5562 10.9277 27.3252 11.6899C28.0942 12.4521 29.1494 12.8335 30.4902 12.8335L44.876 12.8335C45.7637 12.8335 46.5327 12.6621 47.1836 12.3198C47.834 11.9775 48.3369 11.4878 48.6919 10.8501C49.0273 10.2124 49.1948 9.43457 49.1948 8.5166C49.1948 7.14795 48.8105 6.08203 48.041 5.31982Q47.8618 5.14209 47.6616 4.99219Q46.5747 4.17676 44.876 4.17676L30.4902 4.17676ZM69.2861 4.17676C68.3794 4.17676 67.6104 4.34766 66.979 4.68994C66.3281 5.04785 65.8354 5.54541 65.5 6.18311C65.145 6.83643 64.9678 7.61426 64.9678 8.5166C64.9678 9.87012 65.3521 10.9277 66.1211 11.6899C66.8901 12.4521 67.9453 12.8335 69.2861 12.8335L94.7651 12.8335C95.6523 12.8335 96.4214 12.6621 97.0723 12.3198Q97.582 12.0518 97.9712 11.6626Q98.3267 11.3066 98.5811 10.8501C98.916 10.2124 99.0835 9.43457 99.0835 8.5166C99.0835 7.14795 98.6992 6.08203 97.9302 5.31982C97.1611 4.55762 96.106 4.17676 94.7651 4.17676L69.2861 4.17676ZM6.06396 13.1309L9.96875 13.1309Q11.2109 13.1309 11.7437 12.7808C12.1182 12.5317 12.3057 12.1665 12.3057 11.6841C12.3057 11.2021 12.1182 10.8442 11.7437 10.6108C11.3887 10.3618 10.7969 10.2373 9.96875 10.2373L6.06396 10.2373L6.06396 13.1309Z" fill="#FFFFFF" fill-opacity="1.000000" fill-rule="evenodd"/>
</svg>
