<svg width="347.520508" height="160.636719" viewBox="0 0 347.521 160.637" fill="none" xmlns="http://www.w3.org/2000/svg" xmlns:xlink="http://www.w3.org/1999/xlink">
	<desc>
			Created with Pixso.
	</desc>
	<defs/>
	<path id="Our seasoned team of product management experts specializes in driving strategic growth, enhancing user experiences, and optimizing your product strategy for maximum impact. Elevate your startup with tailored solutions designed for success." d="M10.9336 6.36719C10.9336 2.64453 8.70703 0.386719 5.69531 0.386719C2.67188 0.386719 0.449219 2.64453 0.449219 6.36719C0.449219 10.082 2.67188 12.3438 5.69531 12.3438C8.70703 12.3438 10.9336 10.0859 10.9336 6.36719ZM9.19531 6.36719C9.19531 9.19922 7.69531 10.7422 5.69531 10.7422C3.6875 10.7422 2.19531 9.19922 2.19531 6.36719C2.19531 3.53125 3.6875 1.99219 5.69531 1.99219C7.69531 1.99219 9.19531 3.53125 9.19531 6.36719ZM18.3485 8.5625C18.3524 10.0469 17.2509 10.75 16.2977 10.75C15.2431 10.75 14.5165 9.99219 14.5165 8.80469L14.5165 3.45703L12.8173 3.45703L12.8173 9.00781C12.8173 11.1719 14.0048 12.2969 15.6806 12.2969C16.9931 12.2969 17.8876 11.6055 18.2899 10.6719L18.3798 10.6719L18.3798 12.1836L20.0516 12.1836L20.0516 3.45703L18.3485 3.45703L18.3485 8.5625ZM22.1686 12.1836L23.8679 12.1836L23.8679 6.85547C23.8679 5.71094 24.7507 4.88672 25.9538 4.88672C26.3054 4.88672 26.7038 4.94922 26.8405 4.99219L26.8405 3.36719C26.6686 3.34375 26.3366 3.32422 26.1179 3.32422C25.0944 3.32422 24.2194 3.90625 23.903 4.84375L23.8132 4.84375L23.8132 3.45703L22.1686 3.45703L22.1686 12.1836ZM38.778 5.58594C38.4225 4.23047 37.36 3.34375 35.4733 3.34375C33.5045 3.34375 32.1061 4.38281 32.1061 5.92969C32.1061 7.16797 32.8561 7.99219 34.4928 8.35547L35.9694 8.67969C36.8092 8.86719 37.2038 9.24219 37.2038 9.78516C37.2038 10.4609 36.4811 10.9922 35.3678 10.9922C34.3483 10.9922 33.6959 10.5547 33.4928 9.69531L31.8483 9.94531C32.1334 11.4922 33.4186 12.3594 35.3795 12.3594C37.485 12.3594 38.9459 11.2422 38.9459 9.66016C38.9459 8.42969 38.1608 7.66797 36.5592 7.29688L35.1725 6.98047C34.2155 6.75 33.7975 6.42969 33.8053 5.83594C33.7975 5.16797 34.528 4.6875 35.4928 4.6875C36.5475 4.6875 37.0358 5.27344 37.235 5.85938L38.778 5.58594ZM44.4106 12.3594C46.3168 12.3594 47.6606 11.4219 48.0473 10L46.4418 9.71094C46.1332 10.5352 45.395 10.957 44.4301 10.957C42.9731 10.957 41.9965 10.0117 41.9496 8.33203L48.1567 8.33203L48.1567 7.73047C48.1567 4.57422 46.27 3.34375 44.2934 3.34375C41.8598 3.34375 40.2582 5.19531 40.2582 7.875C40.2582 10.5859 41.8364 12.3594 44.4106 12.3594ZM41.9575 7.05859C42.0239 5.82031 42.9223 4.74609 44.3051 4.74609C45.6215 4.74609 46.4848 5.72266 46.4926 7.05859L41.9575 7.05859ZM52.4296 12.375C53.871 12.375 54.6835 11.6445 55.0077 10.9922L55.0741 10.9922L55.0741 12.1836L56.7342 12.1836L56.7342 6.38672C56.7342 3.84766 54.7342 3.34375 53.3475 3.34375C51.7694 3.34375 50.3124 3.98047 49.746 5.57031L51.3436 5.93359C51.5936 5.3125 52.2303 4.71875 53.371 4.71875C54.4686 4.71875 55.0311 5.29297 55.0311 6.28125L55.0311 6.32031C55.0311 6.9375 54.3944 6.92969 52.8241 7.10938C51.1717 7.30469 49.4803 7.73438 49.4803 9.71875C49.4803 11.4336 50.7694 12.375 52.4296 12.375ZM52.7967 11.0117C51.8358 11.0117 51.1444 10.582 51.1444 9.74219C51.1444 8.83203 51.9491 8.50781 52.9335 8.375C53.4842 8.30469 54.7928 8.15625 55.035 7.91016L55.035 9.03516C55.035 10.0703 54.2108 11.0117 52.7967 11.0117ZM65.3775 5.58594C65.022 4.23047 63.9595 3.34375 62.0728 3.34375C60.1041 3.34375 58.7056 4.38281 58.7056 5.92969C58.7056 7.16797 59.4556 7.99219 61.0924 8.35547L62.5689 8.67969C63.4088 8.86719 63.8033 9.24219 63.8033 9.78516C63.8033 10.4609 63.0806 10.9922 61.9674 10.9922C60.9478 10.9922 60.2955 10.5547 60.0924 9.69531L58.4478 9.94531C58.733 11.4922 60.0181 12.3594 61.9791 12.3594C64.0845 12.3594 65.5455 11.2422 65.5455 9.66016C65.5455 8.42969 64.7603 7.66797 63.1588 7.29688L61.772 6.98047C60.815 6.75 60.397 6.42969 60.4049 5.83594C60.397 5.16797 61.1275 4.6875 62.0924 4.6875C63.147 4.6875 63.6353 5.27344 63.8345 5.85938L65.3775 5.58594ZM70.9242 12.3594C73.3851 12.3594 74.9945 10.5586 74.9945 7.85938C74.9945 5.14453 73.3851 3.34375 70.9242 3.34375C68.4672 3.34375 66.8578 5.14453 66.8578 7.85938C66.8578 10.5586 68.4672 12.3594 70.9242 12.3594ZM70.932 10.9336C69.3226 10.9336 68.5726 9.53125 68.5726 7.85547C68.5726 6.18359 69.3226 4.76172 70.932 4.76172C72.5297 4.76172 73.2797 6.18359 73.2797 7.85547C73.2797 9.53125 72.5297 10.9336 70.932 10.9336ZM78.424 7C78.424 5.60938 79.2756 4.8125 80.4592 4.8125C81.6115 4.8125 82.3107 5.57031 82.3107 6.83594L82.3107 12.1836L84.0099 12.1836L84.0099 6.63281C84.0099 4.47266 82.8224 3.34375 81.0373 3.34375C79.7248 3.34375 78.8693 3.94922 78.4631 4.875L78.3576 4.875L78.3576 3.45703L76.7248 3.45703L76.7248 12.1836L78.424 12.1836L78.424 7ZM89.8833 12.3594C91.7896 12.3594 93.1333 11.4219 93.52 10L91.9146 9.71094C91.606 10.5352 90.8677 10.957 89.9028 10.957C88.4458 10.957 87.4692 10.0117 87.4224 8.33203L93.6294 8.33203L93.6294 7.73047C93.6294 4.57422 91.7427 3.34375 89.7661 3.34375C87.3325 3.34375 85.731 5.19531 85.731 7.875C85.731 10.5859 87.3091 12.3594 89.8833 12.3594ZM87.4302 7.05859C87.4966 5.82031 88.395 4.74609 89.7778 4.74609C91.0942 4.74609 91.9575 5.72266 91.9653 7.05859L87.4302 7.05859ZM98.6288 12.3555C100.219 12.3555 100.844 11.3828 101.152 10.8242L101.293 10.8242L101.293 12.1836L102.953 12.1836L102.953 0.546875L101.254 0.546875L101.254 4.87109L101.152 4.87109C100.844 4.33203 100.266 3.34375 98.6406 3.34375C96.5312 3.34375 94.9804 5.00781 94.9804 7.83594C94.9804 10.6602 96.5078 12.3555 98.6288 12.3555ZM99.0038 10.9062C97.4843 10.9062 96.6953 9.57031 96.6953 7.82031C96.6953 6.08594 97.4687 4.78516 99.0038 4.78516C100.484 4.78516 101.281 5.99609 101.281 7.82031C101.281 9.65625 100.469 10.9062 99.0038 10.9062ZM113.364 3.45703L111.574 3.45703L111.574 1.36719L109.875 1.36719L109.875 3.45703L108.598 3.45703L108.598 4.82031L109.875 4.82031L109.875 9.97266C109.871 11.5586 111.082 12.3242 112.422 12.2969C112.961 12.293 113.324 12.1875 113.524 12.1172L113.215 10.7109C113.102 10.7344 112.895 10.7852 112.621 10.7852C112.071 10.7852 111.574 10.6055 111.574 9.62109L111.574 4.82031L113.364 4.82031L113.364 3.45703ZM118.749 12.3594C120.655 12.3594 121.999 11.4219 122.386 10L120.78 9.71094C120.472 10.5352 119.733 10.957 118.769 10.957C117.311 10.957 116.335 10.0117 116.288 8.33203L122.495 8.33203L122.495 7.73047C122.495 4.57422 120.608 3.34375 118.632 3.34375C116.198 3.34375 114.597 5.19531 114.597 7.875C114.597 10.5859 116.175 12.3594 118.749 12.3594ZM116.296 7.05859C116.362 5.82031 117.261 4.74609 118.644 4.74609C119.96 4.74609 120.823 5.72266 120.831 7.05859L116.296 7.05859ZM126.768 12.375C128.209 12.375 129.022 11.6445 129.346 10.9922L129.412 10.9922L129.412 12.1836L131.073 12.1836L131.073 6.38672C131.073 3.84766 129.073 3.34375 127.686 3.34375C126.108 3.34375 124.651 3.98047 124.084 5.57031L125.682 5.93359C125.932 5.3125 126.569 4.71875 127.709 4.71875C128.807 4.71875 129.37 5.29297 129.37 6.28125L129.37 6.32031C129.37 6.9375 128.733 6.92969 127.162 7.10938C125.51 7.30469 123.819 7.73438 123.819 9.71875C123.819 11.4336 125.108 12.375 126.768 12.375ZM127.135 11.0117C126.174 11.0117 125.483 10.582 125.483 9.74219C125.483 8.83203 126.287 8.50781 127.272 8.375C127.823 8.30469 129.131 8.15625 129.373 7.91016L129.373 9.03516C129.373 10.0703 128.549 11.0117 127.135 11.0117ZM133.173 12.1836L134.872 12.1836L134.872 6.80469C134.872 5.625 135.696 4.80859 136.661 4.80859C137.607 4.80859 138.259 5.43359 138.259 6.38281L138.259 12.1836L139.954 12.1836L139.954 6.62109C139.954 5.57031 140.595 4.80859 141.704 4.80859C142.599 4.80859 143.341 5.30859 143.341 6.49219L143.341 12.1836L145.036 12.1836L145.036 6.33203C145.036 4.33594 143.923 3.34375 142.345 3.34375C141.091 3.34375 140.146 3.94531 139.724 4.875L139.634 4.875C139.255 3.92188 138.454 3.34375 137.286 3.34375C136.134 3.34375 135.278 3.91797 134.911 4.875L134.806 4.875L134.806 3.45703L133.173 3.45703L133.173 12.1836ZM154.904 12.3594C157.365 12.3594 158.974 10.5586 158.974 7.85938C158.974 5.14453 157.365 3.34375 154.904 3.34375C152.447 3.34375 150.837 5.14453 150.837 7.85938C150.837 10.5586 152.447 12.3594 154.904 12.3594ZM154.912 10.9336C153.302 10.9336 152.552 9.53125 152.552 7.85547C152.552 6.18359 153.302 4.76172 154.912 4.76172C156.509 4.76172 157.259 6.18359 157.259 7.85547C157.259 9.53125 156.509 10.9336 154.912 10.9336ZM164.861 3.45703L162.978 3.45703L162.978 2.67188C162.978 1.89844 163.298 1.48047 164.126 1.48047C164.478 1.48047 164.728 1.55859 164.888 1.60938L165.286 0.234375C165.048 0.144531 164.552 0 163.864 0C162.486 0 161.275 0.808594 161.275 2.44531L161.275 3.45703L159.927 3.45703L159.927 4.82031L161.275 4.82031L161.275 12.1836L162.978 12.1836L162.978 4.82031L164.861 4.82031L164.861 3.45703ZM170.526 15.457L172.226 15.457L172.226 10.8242L172.327 10.8242C172.636 11.3828 173.261 12.3555 174.851 12.3555C176.964 12.3555 178.499 10.6602 178.499 7.83594C178.499 5.00781 176.944 3.34375 174.835 3.34375C173.214 3.34375 172.632 4.33203 172.327 4.87109L172.186 4.87109L172.186 3.45703L170.526 3.45703L170.526 15.457ZM172.194 7.82031C172.194 5.99609 172.987 4.78516 174.472 4.78516C176.011 4.78516 176.784 6.08594 176.784 7.82031C176.784 9.57031 175.987 10.9062 174.472 10.9062C173.011 10.9062 172.194 9.65625 172.194 7.82031ZM180.241 12.1836L181.941 12.1836L181.941 6.85547C181.941 5.71094 182.823 4.88672 184.026 4.88672C184.378 4.88672 184.776 4.94922 184.913 4.99219L184.913 3.36719C184.741 3.34375 184.409 3.32422 184.191 3.32422C183.167 3.32422 182.292 3.90625 181.976 4.84375L181.886 4.84375L181.886 3.45703L180.241 3.45703L180.241 12.1836ZM189.587 12.3594C192.048 12.3594 193.657 10.5586 193.657 7.85938C193.657 5.14453 192.048 3.34375 189.587 3.34375C187.13 3.34375 185.52 5.14453 185.52 7.85938C185.52 10.5586 187.13 12.3594 189.587 12.3594ZM189.594 10.9336C187.985 10.9336 187.235 9.53125 187.235 7.85547C187.235 6.18359 187.985 4.76172 189.594 4.76172C191.192 4.76172 191.942 6.18359 191.942 7.85547C191.942 9.53125 191.192 10.9336 189.594 10.9336ZM198.657 12.3555C200.247 12.3555 200.872 11.3828 201.18 10.8242L201.321 10.8242L201.321 12.1836L202.981 12.1836L202.981 0.546875L201.282 0.546875L201.282 4.87109L201.18 4.87109C200.872 4.33203 200.293 3.34375 198.668 3.34375C196.559 3.34375 195.008 5.00781 195.008 7.83594C195.008 10.6602 196.536 12.3555 198.657 12.3555ZM199.032 10.9062C197.512 10.9062 196.723 9.57031 196.723 7.82031C196.723 6.08594 197.497 4.78516 199.032 4.78516C200.512 4.78516 201.309 5.99609 201.309 7.82031C201.309 9.65625 200.497 10.9062 199.032 10.9062ZM210.77 8.5625C210.774 10.0469 209.672 10.75 208.719 10.75C207.664 10.75 206.938 9.99219 206.938 8.80469L206.938 3.45703L205.239 3.45703L205.239 9.00781C205.239 11.1719 206.426 12.2969 208.102 12.2969C209.414 12.2969 210.309 11.6055 210.711 10.6719L210.801 10.6719L210.801 12.1836L212.473 12.1836L212.473 3.45703L210.77 3.45703L210.77 8.5625ZM218.266 12.3594C220.328 12.3594 221.664 11.1211 221.852 9.42188L220.199 9.42188C219.984 10.3672 219.25 10.9219 218.277 10.9219C216.84 10.9219 215.914 9.72266 215.914 7.82031C215.914 5.94922 216.859 4.77344 218.277 4.77344C219.359 4.77344 220.016 5.45703 220.199 6.27344L221.852 6.27344C221.672 4.51172 220.234 3.34375 218.25 3.34375C215.789 3.34375 214.199 5.19531 214.199 7.85938C214.199 10.4922 215.734 12.3594 218.266 12.3594ZM227.589 3.45703L225.8 3.45703L225.8 1.36719L224.101 1.36719L224.101 3.45703L222.824 3.45703L222.824 4.82031L224.101 4.82031L224.101 9.97266C224.097 11.5586 225.308 12.3242 226.648 12.2969C227.187 12.293 227.55 12.1875 227.75 12.1172L227.441 10.7109C227.328 10.7344 227.121 10.7852 226.847 10.7852C226.296 10.7852 225.8 10.6055 225.8 9.62109L225.8 4.82031L227.589 4.82031L227.589 3.45703ZM233.383 12.1836L235.082 12.1836L235.082 6.80469C235.082 5.625 235.906 4.80859 236.871 4.80859C237.816 4.80859 238.469 5.43359 238.469 6.38281L238.469 12.1836L240.164 12.1836L240.164 6.62109C240.164 5.57031 240.805 4.80859 241.914 4.80859C242.808 4.80859 243.551 5.30859 243.551 6.49219L243.551 12.1836L245.246 12.1836L245.246 6.33203C245.246 4.33594 244.133 3.34375 242.555 3.34375C241.301 3.34375 240.355 3.94531 239.933 4.875L239.844 4.875C239.465 3.92188 238.664 3.34375 237.496 3.34375C236.344 3.34375 235.488 3.91797 235.121 4.875L235.016 4.875L235.016 3.45703L233.383 3.45703L233.383 12.1836ZM249.902 12.375C251.343 12.375 252.156 11.6445 252.48 10.9922L252.547 10.9922L252.547 12.1836L254.207 12.1836L254.207 6.38672C254.207 3.84766 252.207 3.34375 250.82 3.34375C249.242 3.34375 247.785 3.98047 247.218 5.57031L248.816 5.93359C249.066 5.3125 249.703 4.71875 250.843 4.71875C251.941 4.71875 252.504 5.29297 252.504 6.28125L252.504 6.32031C252.504 6.9375 251.867 6.92969 250.297 7.10938C248.644 7.30469 246.953 7.73438 246.953 9.71875C246.953 11.4336 248.242 12.375 249.902 12.375ZM250.269 11.0117C249.308 11.0117 248.617 10.582 248.617 9.74219C248.617 8.83203 249.422 8.50781 250.406 8.375C250.957 8.30469 252.265 8.15625 252.507 7.91016L252.507 9.03516C252.507 10.0703 251.683 11.0117 250.269 11.0117ZM258.006 7C258.006 5.60938 258.858 4.8125 260.041 4.8125C261.194 4.8125 261.893 5.57031 261.893 6.83594L261.893 12.1836L263.592 12.1836L263.592 6.63281C263.592 4.47266 262.405 3.34375 260.62 3.34375C259.307 3.34375 258.452 3.94922 258.045 4.875L257.94 4.875L257.94 3.45703L256.307 3.45703L256.307 12.1836L258.006 12.1836L258.006 7ZM268.247 12.375C269.688 12.375 270.501 11.6445 270.825 10.9922L270.891 10.9922L270.891 12.1836L272.551 12.1836L272.551 6.38672C272.551 3.84766 270.551 3.34375 269.165 3.34375C267.587 3.34375 266.13 3.98047 265.563 5.57031L267.161 5.93359C267.411 5.3125 268.048 4.71875 269.188 4.71875C270.286 4.71875 270.848 5.29297 270.848 6.28125L270.848 6.32031C270.848 6.9375 270.212 6.92969 268.641 7.10938C266.989 7.30469 265.298 7.73438 265.298 9.71875C265.298 11.4336 266.587 12.375 268.247 12.375ZM268.614 11.0117C267.653 11.0117 266.962 10.582 266.962 9.74219C266.962 8.83203 267.766 8.50781 268.751 8.375C269.301 8.30469 270.61 8.15625 270.852 7.91016L270.852 9.03516C270.852 10.0703 270.028 11.0117 268.614 11.0117ZM278.312 15.6367C280.535 15.6367 282.249 14.6211 282.249 12.375L282.249 3.45703L280.585 3.45703L280.585 4.87109L280.46 4.87109C280.16 4.33203 279.558 3.34375 277.933 3.34375C275.824 3.34375 274.273 5.00781 274.273 7.78516C274.273 10.5703 275.859 12.0547 277.921 12.0547C279.523 12.0547 280.14 11.1484 280.449 10.5938L280.558 10.5938L280.558 12.3086C280.558 13.6797 279.621 14.2695 278.328 14.2695C276.913 14.2695 276.363 13.5586 276.062 13.0586L274.601 13.6602C275.062 14.7305 276.226 15.6367 278.312 15.6367ZM278.296 10.6445C276.777 10.6445 275.988 9.48047 275.988 7.76172C275.988 6.08594 276.761 4.78516 278.296 4.78516C279.777 4.78516 280.574 5.99609 280.574 7.76172C280.574 9.5625 279.761 10.6445 278.296 10.6445ZM288.128 12.3594C290.035 12.3594 291.378 11.4219 291.765 10L290.16 9.71094C289.851 10.5352 289.113 10.957 288.148 10.957C286.691 10.957 285.714 10.0117 285.668 8.33203L291.875 8.33203L291.875 7.73047C291.875 4.57422 289.988 3.34375 288.011 3.34375C285.578 3.34375 283.976 5.19531 283.976 7.875C283.976 10.5859 285.554 12.3594 288.128 12.3594ZM285.675 7.05859C285.742 5.82031 286.64 4.74609 288.023 4.74609C289.339 4.74609 290.203 5.72266 290.211 7.05859L285.675 7.05859ZM293.604 12.1836L295.304 12.1836L295.304 6.80469C295.304 5.625 296.128 4.80859 297.093 4.80859C298.038 4.80859 298.69 5.43359 298.69 6.38281L298.69 12.1836L300.386 12.1836L300.386 6.62109C300.386 5.57031 301.026 4.80859 302.136 4.80859C303.03 4.80859 303.772 5.30859 303.772 6.49219L303.772 12.1836L305.468 12.1836L305.468 6.33203C305.468 4.33594 304.354 3.34375 302.776 3.34375C301.522 3.34375 300.577 3.94531 300.155 4.875L300.065 4.875C299.687 3.92188 298.886 3.34375 297.718 3.34375C296.565 3.34375 295.71 3.91797 295.343 4.875L295.237 4.875L295.237 3.45703L293.604 3.45703L293.604 12.1836ZM311.343 12.3594C313.249 12.3594 314.593 11.4219 314.979 10L313.374 9.71094C313.065 10.5352 312.327 10.957 311.362 10.957C309.905 10.957 308.928 10.0117 308.882 8.33203L315.089 8.33203L315.089 7.73047C315.089 4.57422 313.202 3.34375 311.225 3.34375C308.792 3.34375 307.19 5.19531 307.19 7.875C307.19 10.5859 308.768 12.3594 311.343 12.3594ZM308.889 7.05859C308.956 5.82031 309.854 4.74609 311.237 4.74609C312.553 4.74609 313.417 5.72266 313.425 7.05859L308.889 7.05859ZM318.518 7C318.518 5.60938 319.369 4.8125 320.553 4.8125C321.705 4.8125 322.405 5.57031 322.405 6.83594L322.405 12.1836L324.104 12.1836L324.104 6.63281C324.104 4.47266 322.916 3.34375 321.131 3.34375C319.819 3.34375 318.963 3.94922 318.557 4.875L318.451 4.875L318.451 3.45703L316.819 3.45703L316.819 12.1836L318.518 12.1836L318.518 7ZM330.29 3.45703L328.501 3.45703L328.501 1.36719L326.801 1.36719L326.801 3.45703L325.524 3.45703L325.524 4.82031L326.801 4.82031L326.801 9.97266C326.797 11.5586 328.008 12.3242 329.348 12.2969C329.887 12.293 330.251 12.1875 330.45 12.1172L330.141 10.7109C330.028 10.7344 329.821 10.7852 329.547 10.7852C328.997 10.7852 328.501 10.6055 328.501 9.62109L328.501 4.82031L330.29 4.82031L330.29 3.45703ZM4.44922 41.3594C6.35547 41.3594 7.69922 40.4219 8.08594 39L6.48047 38.7109C6.17188 39.5352 5.43359 39.957 4.46875 39.957C3.01172 39.957 2.03516 39.0117 1.98828 37.332L8.19531 37.332L8.19531 36.7305C8.19531 33.5742 6.30859 32.3438 4.33203 32.3438C1.89844 32.3438 0.296875 34.1953 0.296875 36.875C0.296875 39.5859 1.875 41.3594 4.44922 41.3594ZM1.99609 36.0586C2.0625 34.8203 2.96094 33.7461 4.34375 33.7461C5.66016 33.7461 6.52344 34.7227 6.53125 36.0586L1.99609 36.0586ZM11.0701 32.457L9.20683 32.457L11.8865 36.8203L9.17168 41.1836L11.035 41.1836L12.9959 37.9219L14.9607 41.1836L16.8201 41.1836L14.074 36.8203L16.7967 32.457L14.9373 32.457L12.9959 35.8555L11.0701 32.457ZM18.3845 44.457L20.0838 44.457L20.0838 39.8242L20.1853 39.8242C20.4939 40.3828 21.1189 41.3555 22.7088 41.3555C24.822 41.3555 26.3572 39.6602 26.3572 36.8359C26.3572 34.0078 24.8025 32.3438 22.6931 32.3438C21.072 32.3438 20.49 33.332 20.1853 33.8711L20.0447 33.8711L20.0447 32.457L18.3845 32.457L18.3845 44.457ZM20.0525 36.8203C20.0525 34.9961 20.8455 33.7852 22.3299 33.7852C23.8689 33.7852 24.6424 35.0859 24.6424 36.8203C24.6424 38.5703 23.8455 39.9062 22.3299 39.9062C20.8689 39.9062 20.0525 38.6562 20.0525 36.8203ZM31.8613 41.3594C33.7675 41.3594 35.1113 40.4219 35.498 39L33.8925 38.7109C33.5839 39.5352 32.8456 39.957 31.8808 39.957C30.4238 39.957 29.4472 39.0117 29.4003 37.332L35.6074 37.332L35.6074 36.7305C35.6074 33.5742 33.7206 32.3438 31.7441 32.3438C29.3105 32.3438 27.7089 34.1953 27.7089 36.875C27.7089 39.5859 29.287 41.3594 31.8613 41.3594ZM29.4081 36.0586C29.4745 34.8203 30.373 33.7461 31.7558 33.7461C33.0722 33.7461 33.9355 34.7227 33.9433 36.0586L29.4081 36.0586ZM37.3373 41.1836L39.0365 41.1836L39.0365 35.8555C39.0365 34.7109 39.9193 33.8867 41.1224 33.8867C41.474 33.8867 41.8724 33.9492 42.0092 33.9922L42.0092 32.3672C41.8373 32.3438 41.5052 32.3242 41.2865 32.3242C40.2631 32.3242 39.3881 32.9062 39.0717 33.8438L38.9818 33.8438L38.9818 32.457L37.3373 32.457L37.3373 41.1836ZM47.9106 32.457L46.1215 32.457L46.1215 30.3672L44.4223 30.3672L44.4223 32.457L43.145 32.457L43.145 33.8203L44.4223 33.8203L44.4223 38.9727C44.4184 40.5586 45.6293 41.3242 46.9692 41.2969C47.5082 41.293 47.8715 41.1875 48.0707 41.1172L47.7621 39.7109C47.6489 39.7344 47.4418 39.7852 47.1684 39.7852C46.6176 39.7852 46.1215 39.6055 46.1215 38.6211L46.1215 33.8203L47.9106 33.8203L47.9106 32.457ZM56.0205 34.5859C55.665 33.2305 54.6025 32.3438 52.7158 32.3438C50.747 32.3438 49.3486 33.3828 49.3486 34.9297C49.3486 36.168 50.0986 36.9922 51.7353 37.3555L53.2119 37.6797C54.0517 37.8672 54.4463 38.2422 54.4463 38.7852C54.4463 39.4609 53.7236 39.9922 52.6103 39.9922C51.5908 39.9922 50.9384 39.5547 50.7353 38.6953L49.0908 38.9453C49.3759 40.4922 50.6611 41.3594 52.622 41.3594C54.7275 41.3594 56.1884 40.2422 56.1884 38.6602C56.1884 37.4297 55.4033 36.668 53.8017 36.2969L52.415 35.9805C51.458 35.75 51.04 35.4297 51.0478 34.8359C51.04 34.168 51.7705 33.6875 52.7353 33.6875C53.79 33.6875 54.2783 34.2734 54.4775 34.8594L56.0205 34.5859ZM68.513 34.5859C68.1575 33.2305 67.095 32.3438 65.2083 32.3438C63.2395 32.3438 61.8411 33.3828 61.8411 34.9297C61.8411 36.168 62.5911 36.9922 64.2278 37.3555L65.7044 37.6797C66.5442 37.8672 66.9388 38.2422 66.9388 38.7852C66.9388 39.4609 66.2161 39.9922 65.1028 39.9922C64.0833 39.9922 63.4309 39.5547 63.2278 38.6953L61.5833 38.9453C61.8684 40.4922 63.1536 41.3594 65.1145 41.3594C67.22 41.3594 68.6809 40.2422 68.6809 38.6602C68.6809 37.4297 67.8958 36.668 66.2942 36.2969L64.9075 35.9805C63.9505 35.75 63.5325 35.4297 63.5403 34.8359C63.5325 34.168 64.263 33.6875 65.2278 33.6875C66.2825 33.6875 66.7708 34.2734 66.97 34.8594L68.513 34.5859ZM70.3839 44.457L72.0831 44.457L72.0831 39.8242L72.1846 39.8242C72.4932 40.3828 73.1182 41.3555 74.7081 41.3555C76.8214 41.3555 78.3565 39.6602 78.3565 36.8359C78.3565 34.0078 76.8018 32.3438 74.6925 32.3438C73.0714 32.3438 72.4893 33.332 72.1846 33.8711L72.044 33.8711L72.044 32.457L70.3839 32.457L70.3839 44.457ZM72.0518 36.8203C72.0518 34.9961 72.8448 33.7852 74.3292 33.7852C75.8682 33.7852 76.6417 35.0859 76.6417 36.8203C76.6417 38.5703 75.8448 39.9062 74.3292 39.9062C72.8682 39.9062 72.0518 38.6562 72.0518 36.8203ZM83.8606 41.3594C85.7668 41.3594 87.1106 40.4219 87.4973 39L85.8918 38.7109C85.5832 39.5352 84.845 39.957 83.8801 39.957C82.4231 39.957 81.4465 39.0117 81.3996 37.332L87.6067 37.332L87.6067 36.7305C87.6067 33.5742 85.72 32.3438 83.7434 32.3438C81.3098 32.3438 79.7082 34.1953 79.7082 36.875C79.7082 39.5859 81.2864 41.3594 83.8606 41.3594ZM81.4075 36.0586C81.4739 34.8203 82.3723 33.7461 83.7551 33.7461C85.0715 33.7461 85.9348 34.7227 85.9426 36.0586L81.4075 36.0586ZM93.0124 41.3594C95.0749 41.3594 96.4108 40.1211 96.5983 38.4219L94.946 38.4219C94.7311 39.3672 93.9967 39.9219 93.0241 39.9219C91.5866 39.9219 90.6608 38.7227 90.6608 36.8203C90.6608 34.9492 91.6061 33.7734 93.0241 33.7734C94.1061 33.7734 94.7624 34.457 94.946 35.2734L96.5983 35.2734C96.4186 33.5117 94.9811 32.3438 92.9967 32.3438C90.5358 32.3438 88.946 34.1953 88.946 36.8594C88.946 39.4922 90.4811 41.3594 93.0124 41.3594ZM98.2618 41.1836L99.961 41.1836L99.961 32.457L98.2618 32.457L98.2618 41.1836ZM99.1212 31.1094C99.7071 31.1094 100.195 30.6562 100.195 30.0977C100.195 29.543 99.7071 29.082 99.1212 29.082C98.5313 29.082 98.047 29.543 98.047 30.0977C98.047 30.6562 98.5313 31.1094 99.1212 31.1094ZM104.628 41.375C106.069 41.375 106.882 40.6445 107.206 39.9922L107.272 39.9922L107.272 41.1836L108.932 41.1836L108.932 35.3867C108.932 32.8477 106.932 32.3438 105.546 32.3438C103.968 32.3438 102.511 32.9805 101.944 34.5703L103.542 34.9336C103.792 34.3125 104.429 33.7188 105.569 33.7188C106.667 33.7188 107.229 34.293 107.229 35.2812L107.229 35.3203C107.229 35.9375 106.593 35.9297 105.022 36.1094C103.37 36.3047 101.679 36.7344 101.679 38.7188C101.679 40.4336 102.968 41.375 104.628 41.375ZM104.995 40.0117C104.034 40.0117 103.343 39.582 103.343 38.7422C103.343 37.832 104.147 37.5078 105.132 37.375C105.682 37.3047 106.991 37.1562 107.233 36.9102L107.233 38.0352C107.233 39.0703 106.409 40.0117 104.995 40.0117ZM112.732 29.5469L111.033 29.5469L111.033 41.1836L112.732 41.1836L112.732 29.5469ZM114.856 41.1836L116.555 41.1836L116.555 32.457L114.856 32.457L114.856 41.1836ZM115.715 31.1094C116.301 31.1094 116.789 30.6562 116.789 30.0977C116.789 29.543 116.301 29.082 115.715 29.082C115.125 29.082 114.641 29.543 114.641 30.0977C114.641 30.6562 115.125 31.1094 115.715 31.1094ZM118.499 41.1836L125.503 41.1836L125.503 39.707L120.8 39.707L120.8 39.625L125.347 33.6953L125.347 32.457L118.651 32.457L118.651 33.9336L123.225 33.9336L123.225 34.0117L118.499 40.0195L118.499 41.1836ZM130.854 41.3594C132.76 41.3594 134.104 40.4219 134.491 39L132.885 38.7109C132.577 39.5352 131.839 39.957 130.874 39.957C129.417 39.957 128.44 39.0117 128.393 37.332L134.6 37.332L134.6 36.7305C134.6 33.5742 132.714 32.3438 130.737 32.3438C128.303 32.3438 126.702 34.1953 126.702 36.875C126.702 39.5859 128.28 41.3594 130.854 41.3594ZM128.401 36.0586C128.467 34.8203 129.366 33.7461 130.749 33.7461C132.065 33.7461 132.928 34.7227 132.936 36.0586L128.401 36.0586ZM142.873 34.5859C142.518 33.2305 141.455 32.3438 139.568 32.3438C137.6 32.3438 136.201 33.3828 136.201 34.9297C136.201 36.168 136.951 36.9922 138.588 37.3555L140.065 37.6797C140.904 37.8672 141.299 38.2422 141.299 38.7852C141.299 39.4609 140.576 39.9922 139.463 39.9922C138.443 39.9922 137.791 39.5547 137.588 38.6953L135.943 38.9453C136.229 40.4922 137.514 41.3594 139.475 41.3594C141.58 41.3594 143.041 40.2422 143.041 38.6602C143.041 37.4297 142.256 36.668 140.654 36.2969L139.268 35.9805C138.311 35.75 137.893 35.4297 137.901 34.8359C137.893 34.168 138.623 33.6875 139.588 33.6875C140.643 33.6875 141.131 34.2734 141.33 34.8594L142.873 34.5859ZM148.823 41.1836L150.522 41.1836L150.522 32.457L148.823 32.457L148.823 41.1836ZM149.682 31.1094C150.268 31.1094 150.756 30.6562 150.756 30.0977C150.756 29.543 150.268 29.082 149.682 29.082C149.092 29.082 148.608 29.543 148.608 30.0977C148.608 30.6562 149.092 31.1094 149.682 31.1094ZM154.345 36C154.345 34.6094 155.196 33.8125 156.38 33.8125C157.532 33.8125 158.232 34.5703 158.232 35.8359L158.232 41.1836L159.931 41.1836L159.931 35.6328C159.931 33.4727 158.743 32.3438 156.958 32.3438C155.646 32.3438 154.79 32.9492 154.384 33.875L154.278 33.875L154.278 32.457L152.646 32.457L152.646 41.1836L154.345 41.1836L154.345 36ZM169.391 41.3555C170.98 41.3555 171.605 40.3828 171.914 39.8242L172.055 39.8242L172.055 41.1836L173.715 41.1836L173.715 29.5469L172.016 29.5469L172.016 33.8711L171.914 33.8711C171.605 33.332 171.027 32.3438 169.402 32.3438C167.293 32.3438 165.742 34.0078 165.742 36.8359C165.742 39.6602 167.27 41.3555 169.391 41.3555ZM169.766 39.9062C168.246 39.9062 167.457 38.5703 167.457 36.8203C167.457 35.0859 168.23 33.7852 169.766 33.7852C171.246 33.7852 172.043 34.9961 172.043 36.8203C172.043 38.6562 171.23 39.9062 169.766 39.9062ZM175.972 41.1836L177.672 41.1836L177.672 35.8555C177.672 34.7109 178.554 33.8867 179.758 33.8867C180.109 33.8867 180.508 33.9492 180.644 33.9922L180.644 32.3672C180.472 32.3438 180.14 32.3242 179.922 32.3242C178.898 32.3242 178.023 32.9062 177.707 33.8438L177.617 33.8438L177.617 32.457L175.972 32.457L175.972 41.1836ZM181.96 41.1836L183.659 41.1836L183.659 32.457L181.96 32.457L181.96 41.1836ZM182.82 31.1094C183.405 31.1094 183.894 30.6562 183.894 30.0977C183.894 29.543 183.405 29.082 182.82 29.082C182.23 29.082 181.745 29.543 181.745 30.0977C181.745 30.6562 182.23 31.1094 182.82 31.1094ZM193.252 32.457L191.428 32.457L189.221 39.1719L189.131 39.1719L186.92 32.457L185.096 32.457L188.268 41.1836L190.084 41.1836L193.252 32.457ZM194.686 41.1836L196.385 41.1836L196.385 32.457L194.686 32.457L194.686 41.1836ZM195.545 31.1094C196.131 31.1094 196.619 30.6562 196.619 30.0977C196.619 29.543 196.131 29.082 195.545 29.082C194.955 29.082 194.471 29.543 194.471 30.0977C194.471 30.6562 194.955 31.1094 195.545 31.1094ZM200.208 36C200.208 34.6094 201.059 33.8125 202.243 33.8125C203.395 33.8125 204.095 34.5703 204.095 35.8359L204.095 41.1836L205.794 41.1836L205.794 35.6328C205.794 33.4727 204.606 32.3438 202.821 32.3438C201.509 32.3438 200.653 32.9492 200.247 33.875L200.141 33.875L200.141 32.457L198.509 32.457L198.509 41.1836L200.208 41.1836L200.208 36ZM211.566 44.6367C213.788 44.6367 215.503 43.6211 215.503 41.375L215.503 32.457L213.839 32.457L213.839 33.8711L213.714 33.8711C213.413 33.332 212.812 32.3438 211.187 32.3438C209.077 32.3438 207.526 34.0078 207.526 36.7852C207.526 39.5703 209.112 41.0547 211.175 41.0547C212.776 41.0547 213.394 40.1484 213.702 39.5938L213.812 39.5938L213.812 41.3086C213.812 42.6797 212.874 43.2695 211.581 43.2695C210.167 43.2695 209.616 42.5586 209.316 42.0586L207.855 42.6602C208.316 43.7305 209.48 44.6367 211.566 44.6367ZM211.55 39.6445C210.03 39.6445 209.241 38.4805 209.241 36.7617C209.241 35.0859 210.015 33.7852 211.55 33.7852C213.03 33.7852 213.827 34.9961 213.827 36.7617C213.827 38.5625 213.015 39.6445 211.55 39.6445ZM228.242 34.5859C227.887 33.2305 226.824 32.3438 224.937 32.3438C222.969 32.3438 221.57 33.3828 221.57 34.9297C221.57 36.168 222.32 36.9922 223.957 37.3555L225.433 37.6797C226.273 37.8672 226.668 38.2422 226.668 38.7852C226.668 39.4609 225.945 39.9922 224.832 39.9922C223.812 39.9922 223.16 39.5547 222.957 38.6953L221.312 38.9453C221.597 40.4922 222.883 41.3594 224.844 41.3594C226.949 41.3594 228.41 40.2422 228.41 38.6602C228.41 37.4297 227.625 36.668 226.023 36.2969L224.637 35.9805C223.679 35.75 223.262 35.4297 223.269 34.8359C223.262 34.168 223.992 33.6875 224.957 33.6875C226.012 33.6875 226.5 34.2734 226.699 34.8594L228.242 34.5859ZM234.187 32.457L232.398 32.457L232.398 30.3672L230.699 30.3672L230.699 32.457L229.421 32.457L229.421 33.8203L230.699 33.8203L230.699 38.9727C230.695 40.5586 231.906 41.3242 233.246 41.2969C233.785 41.293 234.148 41.1875 234.347 41.1172L234.039 39.7109C233.925 39.7344 233.718 39.7852 233.445 39.7852C232.894 39.7852 232.398 39.6055 232.398 38.6211L232.398 33.8203L234.187 33.8203L234.187 32.457ZM235.902 41.1836L237.601 41.1836L237.601 35.8555C237.601 34.7109 238.484 33.8867 239.687 33.8867C240.038 33.8867 240.437 33.9492 240.574 33.9922L240.574 32.3672C240.402 32.3438 240.07 32.3242 239.851 32.3242C238.828 32.3242 237.953 32.9062 237.636 33.8438L237.546 33.8438L237.546 32.457L235.902 32.457L235.902 41.1836ZM244.353 41.375C245.794 41.375 246.607 40.6445 246.931 39.9922L246.997 39.9922L246.997 41.1836L248.658 41.1836L248.658 35.3867C248.658 32.8477 246.658 32.3438 245.271 32.3438C243.693 32.3438 242.236 32.9805 241.669 34.5703L243.267 34.9336C243.517 34.3125 244.154 33.7188 245.294 33.7188C246.392 33.7188 246.954 34.293 246.954 35.2812L246.954 35.3203C246.954 35.9375 246.318 35.9297 244.747 36.1094C243.095 36.3047 241.404 36.7344 241.404 38.7188C241.404 40.4336 242.693 41.375 244.353 41.375ZM244.72 40.0117C243.759 40.0117 243.068 39.582 243.068 38.7422C243.068 37.832 243.872 37.5078 244.857 37.375C245.408 37.3047 246.716 37.1562 246.958 36.9102L246.958 38.0352C246.958 39.0703 246.134 40.0117 244.72 40.0117ZM254.832 32.457L253.043 32.457L253.043 30.3672L251.344 30.3672L251.344 32.457L250.066 32.457L250.066 33.8203L251.344 33.8203L251.344 38.9727C251.34 40.5586 252.551 41.3242 253.891 41.2969C254.43 41.293 254.793 41.1875 254.992 41.1172L254.684 39.7109C254.57 39.7344 254.363 39.7852 254.09 39.7852C253.539 39.7852 253.043 39.6055 253.043 38.6211L253.043 33.8203L254.832 33.8203L254.832 32.457ZM260.218 41.3594C262.124 41.3594 263.468 40.4219 263.854 39L262.249 38.7109C261.94 39.5352 261.202 39.957 260.237 39.957C258.78 39.957 257.803 39.0117 257.757 37.332L263.964 37.332L263.964 36.7305C263.964 33.5742 262.077 32.3438 260.1 32.3438C257.667 32.3438 256.065 34.1953 256.065 36.875C256.065 39.5859 257.643 41.3594 260.218 41.3594ZM257.764 36.0586C257.831 34.8203 258.729 33.7461 260.112 33.7461C261.428 33.7461 262.292 34.7227 262.3 36.0586L257.764 36.0586ZM269.354 44.6367C271.576 44.6367 273.291 43.6211 273.291 41.375L273.291 32.457L271.627 32.457L271.627 33.8711L271.502 33.8711C271.201 33.332 270.6 32.3438 268.975 32.3438C266.865 32.3438 265.315 34.0078 265.315 36.7852C265.315 39.5703 266.901 41.0547 268.963 41.0547C270.565 41.0547 271.182 40.1484 271.49 39.5938L271.6 39.5938L271.6 41.3086C271.6 42.6797 270.662 43.2695 269.369 43.2695C267.955 43.2695 267.404 42.5586 267.104 42.0586L265.643 42.6602C266.104 43.7305 267.268 44.6367 269.354 44.6367ZM269.338 39.6445C267.819 39.6445 267.029 38.4805 267.029 36.7617C267.029 35.0859 267.803 33.7852 269.338 33.7852C270.819 33.7852 271.615 34.9961 271.615 36.7617C271.615 38.5625 270.803 39.6445 269.338 39.6445ZM275.409 41.1836L277.108 41.1836L277.108 32.457L275.409 32.457L275.409 41.1836ZM276.268 31.1094C276.854 31.1094 277.342 30.6562 277.342 30.0977C277.342 29.543 276.854 29.082 276.268 29.082C275.678 29.082 275.194 29.543 275.194 30.0977C275.194 30.6562 275.678 31.1094 276.268 31.1094ZM282.907 41.3594C284.97 41.3594 286.306 40.1211 286.493 38.4219L284.841 38.4219C284.626 39.3672 283.892 39.9219 282.919 39.9219C281.481 39.9219 280.556 38.7227 280.556 36.8203C280.556 34.9492 281.501 33.7734 282.919 33.7734C284.001 33.7734 284.657 34.457 284.841 35.2734L286.493 35.2734C286.314 33.5117 284.876 32.3438 282.892 32.3438C280.431 32.3438 278.841 34.1953 278.841 36.8594C278.841 39.4922 280.376 41.3594 282.907 41.3594ZM295.896 44.6367C298.118 44.6367 299.833 43.6211 299.833 41.375L299.833 32.457L298.169 32.457L298.169 33.8711L298.044 33.8711C297.743 33.332 297.142 32.3438 295.517 32.3438C293.407 32.3438 291.856 34.0078 291.856 36.7852C291.856 39.5703 293.442 41.0547 295.505 41.0547C297.106 41.0547 297.724 40.1484 298.032 39.5938L298.142 39.5938L298.142 41.3086C298.142 42.6797 297.204 43.2695 295.911 43.2695C294.497 43.2695 293.946 42.5586 293.646 42.0586L292.185 42.6602C292.646 43.7305 293.81 44.6367 295.896 44.6367ZM295.88 39.6445C294.36 39.6445 293.571 38.4805 293.571 36.7617C293.571 35.0859 294.345 33.7852 295.88 33.7852C297.36 33.7852 298.157 34.9961 298.157 36.7617C298.157 38.5625 297.345 39.6445 295.88 39.6445ZM301.95 41.1836L303.65 41.1836L303.65 35.8555C303.65 34.7109 304.532 33.8867 305.736 33.8867C306.087 33.8867 306.486 33.9492 306.622 33.9922L306.622 32.3672C306.45 32.3438 306.118 32.3242 305.9 32.3242C304.876 32.3242 304.001 32.9062 303.685 33.8438L303.595 33.8438L303.595 32.457L301.95 32.457L301.95 41.1836ZM311.296 41.3594C313.757 41.3594 315.366 39.5586 315.366 36.8594C315.366 34.1445 313.757 32.3438 311.296 32.3438C308.839 32.3438 307.229 34.1445 307.229 36.8594C307.229 39.5586 308.839 41.3594 311.296 41.3594ZM311.303 39.9336C309.694 39.9336 308.944 38.5312 308.944 36.8555C308.944 35.1836 309.694 33.7617 311.303 33.7617C312.901 33.7617 313.651 35.1836 313.651 36.8555C313.651 38.5312 312.901 39.9336 311.303 39.9336ZM318.724 41.1836L320.45 41.1836L322.224 34.8828L322.353 34.8828L324.126 41.1836L325.86 41.1836L328.423 32.457L326.665 32.457L324.966 38.8359L324.88 38.8359L323.177 32.457L321.423 32.457L319.704 38.8672L319.622 38.8672L317.911 32.457L316.153 32.457L318.724 41.1836ZM333.942 32.457L332.153 32.457L332.153 30.3672L330.454 30.3672L330.454 32.457L329.177 32.457L329.177 33.8203L330.454 33.8203L330.454 38.9727C330.45 40.5586 331.661 41.3242 333.001 41.2969C333.54 41.293 333.903 41.1875 334.102 41.1172L333.794 39.7109C333.681 39.7344 333.474 39.7852 333.2 39.7852C332.649 39.7852 332.153 39.6055 332.153 38.6211L332.153 33.8203L333.942 33.8203L333.942 32.457ZM337.538 36C337.538 34.6094 338.421 33.8125 339.632 33.8125C340.8 33.8125 341.499 34.5586 341.499 35.8359L341.499 41.1836L343.198 41.1836L343.198 35.6328C343.198 33.457 342.007 32.3438 340.21 32.3438C338.85 32.3438 338.034 32.9336 337.624 33.875L337.515 33.875L337.515 29.5469L335.839 29.5469L335.839 41.1836L337.538 41.1836L337.538 36ZM347.52 39.5938L345.884 39.5938L345.829 40.2305C345.696 41.7695 345.333 43.3203 345.181 44.0234L346.384 44.0234C346.657 43.2812 347.259 41.5742 347.434 40.2109L347.52 39.5938ZM4.44922 70.3594C6.35547 70.3594 7.69922 69.4219 8.08594 68L6.48047 67.7109C6.17188 68.5352 5.43359 68.957 4.46875 68.957C3.01172 68.957 2.03516 68.0117 1.98828 66.332L8.19531 66.332L8.19531 65.7305C8.19531 62.5742 6.30859 61.3438 4.33203 61.3438C1.89844 61.3438 0.296875 63.1953 0.296875 65.875C0.296875 68.5859 1.875 70.3594 4.44922 70.3594ZM1.99609 65.0586C2.0625 63.8203 2.96094 62.7461 4.34375 62.7461C5.66016 62.7461 6.52344 63.7227 6.53125 65.0586L1.99609 65.0586ZM11.6244 65C11.6244 63.6094 12.476 62.8125 13.6596 62.8125C14.8119 62.8125 15.5112 63.5703 15.5112 64.8359L15.5112 70.1836L17.2104 70.1836L17.2104 64.6328C17.2104 62.4727 16.0229 61.3438 14.2377 61.3438C12.9252 61.3438 12.0698 61.9492 11.6635 62.875L11.558 62.875L11.558 61.457L9.92523 61.457L9.92523 70.1836L11.6244 70.1836L11.6244 65ZM21.0213 65C21.0213 63.6094 21.9041 62.8125 23.115 62.8125C24.283 62.8125 24.9822 63.5586 24.9822 64.8359L24.9822 70.1836L26.6814 70.1836L26.6814 64.6328C26.6814 62.457 25.49 61.3438 23.6931 61.3438C22.3338 61.3438 21.5174 61.9336 21.1072 62.875L20.9978 62.875L20.9978 58.5469L19.322 58.5469L19.322 70.1836L21.0213 70.1836L21.0213 65ZM31.3357 70.375C32.7771 70.375 33.5896 69.6445 33.9138 68.9922L33.9802 68.9922L33.9802 70.1836L35.6404 70.1836L35.6404 64.3867C35.6404 61.8477 33.6404 61.3438 32.2537 61.3438C30.6755 61.3438 29.2185 61.9805 28.6521 63.5703L30.2498 63.9336C30.4998 63.3125 31.1365 62.7188 32.2771 62.7188C33.3748 62.7188 33.9373 63.293 33.9373 64.2812L33.9373 64.3203C33.9373 64.9375 33.3005 64.9297 31.7302 65.1094C30.0779 65.3047 28.3865 65.7344 28.3865 67.7188C28.3865 69.4336 29.6755 70.375 31.3357 70.375ZM31.7029 69.0117C30.7419 69.0117 30.0505 68.582 30.0505 67.7422C30.0505 66.832 30.8552 66.5078 31.8396 66.375C32.3904 66.3047 33.699 66.1562 33.9412 65.9102L33.9412 67.0352C33.9412 68.0703 33.1169 69.0117 31.7029 69.0117ZM39.4399 65C39.4399 63.6094 40.2915 62.8125 41.4751 62.8125C42.6274 62.8125 43.3266 63.5703 43.3266 64.8359L43.3266 70.1836L45.0258 70.1836L45.0258 64.6328C45.0258 62.4727 43.8383 61.3438 42.0532 61.3438C40.7407 61.3438 39.8852 61.9492 39.479 62.875L39.3735 62.875L39.3735 61.457L37.7407 61.457L37.7407 70.1836L39.4399 70.1836L39.4399 65ZM50.8133 70.3594C52.8758 70.3594 54.2117 69.1211 54.3992 67.4219L52.7469 67.4219C52.532 68.3672 51.7977 68.9219 50.825 68.9219C49.3875 68.9219 48.4617 67.7227 48.4617 65.8203C48.4617 63.9492 49.407 62.7734 50.825 62.7734C51.907 62.7734 52.5633 63.457 52.7469 64.2734L54.3992 64.2734C54.2195 62.5117 52.782 61.3438 50.7977 61.3438C48.3367 61.3438 46.7469 63.1953 46.7469 65.8594C46.7469 68.4922 48.282 70.3594 50.8133 70.3594ZM56.0627 70.1836L57.7619 70.1836L57.7619 61.457L56.0627 61.457L56.0627 70.1836ZM56.9221 60.1094C57.508 60.1094 57.9963 59.6562 57.9963 59.0977C57.9963 58.543 57.508 58.082 56.9221 58.082C56.3323 58.082 55.8479 58.543 55.8479 59.0977C55.8479 59.6562 56.3323 60.1094 56.9221 60.1094ZM61.5849 65C61.5849 63.6094 62.4365 62.8125 63.6201 62.8125C64.7724 62.8125 65.4716 63.5703 65.4716 64.8359L65.4716 70.1836L67.1708 70.1836L67.1708 64.6328C67.1708 62.4727 65.9833 61.3438 64.1982 61.3438C62.8857 61.3438 62.0302 61.9492 61.624 62.875L61.5185 62.875L61.5185 61.457L59.8857 61.457L59.8857 70.1836L61.5849 70.1836L61.5849 65ZM72.9427 73.6367C75.1653 73.6367 76.8802 72.6211 76.8802 70.375L76.8802 61.457L75.2161 61.457L75.2161 62.8711L75.0911 62.8711C74.7903 62.332 74.1888 61.3438 72.5638 61.3438C70.4544 61.3438 68.9036 63.0078 68.9036 65.7852C68.9036 68.5703 70.4895 70.0547 72.552 70.0547C74.1536 70.0547 74.7708 69.1484 75.0794 68.5938L75.1888 68.5938L75.1888 70.3086C75.1888 71.6797 74.2513 72.2695 72.9583 72.2695C71.5442 72.2695 70.9934 71.5586 70.6927 71.0586L69.2317 71.6602C69.6927 72.7305 70.8567 73.6367 72.9427 73.6367ZM72.927 68.6445C71.4075 68.6445 70.6184 67.4805 70.6184 65.7617C70.6184 64.0859 71.3919 62.7852 72.927 62.7852C74.4075 62.7852 75.2044 63.9961 75.2044 65.7617C75.2044 67.5625 74.3919 68.6445 72.927 68.6445ZM88.6074 66.5625C88.6113 68.0469 87.5097 68.75 86.5566 68.75C85.5019 68.75 84.7754 67.9922 84.7754 66.8047L84.7754 61.457L83.0761 61.457L83.0761 67.0078C83.0761 69.1719 84.2636 70.2969 85.9394 70.2969C87.2519 70.2969 88.1464 69.6055 88.5488 68.6719L88.6386 68.6719L88.6386 70.1836L90.3105 70.1836L90.3105 61.457L88.6074 61.457L88.6074 66.5625ZM98.9705 63.5859C98.615 62.2305 97.5525 61.3438 95.6658 61.3438C93.697 61.3438 92.2986 62.3828 92.2986 63.9297C92.2986 65.168 93.0486 65.9922 94.6853 66.3555L96.1619 66.6797C97.0017 66.8672 97.3962 67.2422 97.3962 67.7852C97.3962 68.4609 96.6736 68.9922 95.5603 68.9922C94.5408 68.9922 93.8884 68.5547 93.6853 67.6953L92.0408 67.9453C92.3259 69.4922 93.6111 70.3594 95.572 70.3594C97.6775 70.3594 99.1384 69.2422 99.1384 67.6602C99.1384 66.4297 98.3533 65.668 96.7517 65.2969L95.365 64.9805C94.408 64.75 93.99 64.4297 93.9978 63.8359C93.99 63.168 94.7205 62.6875 95.6853 62.6875C96.74 62.6875 97.2283 63.2734 97.4275 63.8594L98.9705 63.5859ZM104.603 70.3594C106.509 70.3594 107.853 69.4219 108.24 68L106.634 67.7109C106.326 68.5352 105.587 68.957 104.623 68.957C103.166 68.957 102.189 68.0117 102.142 66.332L108.349 66.332L108.349 65.7305C108.349 62.5742 106.462 61.3438 104.486 61.3438C102.052 61.3438 100.451 63.1953 100.451 65.875C100.451 68.5859 102.029 70.3594 104.603 70.3594ZM102.15 65.0586C102.216 63.8203 103.115 62.7461 104.498 62.7461C105.814 62.7461 106.677 63.7227 106.685 65.0586L102.15 65.0586ZM110.079 70.1836L111.778 70.1836L111.778 64.8555C111.778 63.7109 112.661 62.8867 113.864 62.8867C114.216 62.8867 114.614 62.9492 114.751 62.9922L114.751 61.3672C114.579 61.3438 114.247 61.3242 114.028 61.3242C113.005 61.3242 112.13 61.9062 111.813 62.8438L111.724 62.8438L111.724 61.457L110.079 61.457L110.079 70.1836ZM123.907 70.3594C125.813 70.3594 127.157 69.4219 127.544 68L125.938 67.7109C125.63 68.5352 124.892 68.957 123.927 68.957C122.47 68.957 121.493 68.0117 121.446 66.332L127.653 66.332L127.653 65.7305C127.653 62.5742 125.767 61.3438 123.79 61.3438C121.356 61.3438 119.755 63.1953 119.755 65.875C119.755 68.5859 121.333 70.3594 123.907 70.3594ZM121.454 65.0586C121.52 63.8203 122.419 62.7461 123.802 62.7461C125.118 62.7461 125.981 63.7227 125.989 65.0586L121.454 65.0586ZM130.528 61.457L128.665 61.457L131.344 65.8203L128.63 70.1836L130.493 70.1836L132.454 66.9219L134.419 70.1836L136.278 70.1836L133.532 65.8203L136.255 61.457L134.395 61.457L132.454 64.8555L130.528 61.457ZM137.842 73.457L139.542 73.457L139.542 68.8242L139.643 68.8242C139.952 69.3828 140.577 70.3555 142.167 70.3555C144.28 70.3555 145.815 68.6602 145.815 65.8359C145.815 63.0078 144.26 61.3438 142.151 61.3438C140.53 61.3438 139.948 62.332 139.643 62.8711L139.503 62.8711L139.503 61.457L137.842 61.457L137.842 73.457ZM139.51 65.8203C139.51 63.9961 140.303 62.7852 141.788 62.7852C143.327 62.7852 144.1 64.0859 144.1 65.8203C144.1 67.5703 143.303 68.9062 141.788 68.9062C140.327 68.9062 139.51 67.6562 139.51 65.8203ZM151.319 70.3594C153.225 70.3594 154.569 69.4219 154.956 68L153.35 67.7109C153.042 68.5352 152.304 68.957 151.339 68.957C149.882 68.957 148.905 68.0117 148.858 66.332L155.065 66.332L155.065 65.7305C155.065 62.5742 153.179 61.3438 151.202 61.3438C148.768 61.3438 147.167 63.1953 147.167 65.875C147.167 68.5859 148.745 70.3594 151.319 70.3594ZM148.866 65.0586C148.932 63.8203 149.831 62.7461 151.214 62.7461C152.53 62.7461 153.393 63.7227 153.401 65.0586L148.866 65.0586ZM156.795 70.1836L158.494 70.1836L158.494 64.8555C158.494 63.7109 159.377 62.8867 160.58 62.8867C160.932 62.8867 161.33 62.9492 161.467 62.9922L161.467 61.3672C161.295 61.3438 160.963 61.3242 160.744 61.3242C159.721 61.3242 158.846 61.9062 158.53 62.8438L158.44 62.8438L158.44 61.457L156.795 61.457L156.795 70.1836ZM162.783 70.1836L164.482 70.1836L164.482 61.457L162.783 61.457L162.783 70.1836ZM163.642 60.1094C164.228 60.1094 164.717 59.6562 164.717 59.0977C164.717 58.543 164.228 58.082 163.642 58.082C163.052 58.082 162.568 58.543 162.568 59.0977C162.568 59.6562 163.052 60.1094 163.642 60.1094ZM170.368 70.3594C172.274 70.3594 173.618 69.4219 174.004 68L172.399 67.7109C172.09 68.5352 171.352 68.957 170.387 68.957C168.93 68.957 167.954 68.0117 167.907 66.332L174.114 66.332L174.114 65.7305C174.114 62.5742 172.227 61.3438 170.25 61.3438C167.817 61.3438 166.215 63.1953 166.215 65.875C166.215 68.5859 167.793 70.3594 170.368 70.3594ZM167.914 65.0586C167.981 63.8203 168.879 62.7461 170.262 62.7461C171.579 62.7461 172.442 63.7227 172.45 65.0586L167.914 65.0586ZM177.543 65C177.543 63.6094 178.394 62.8125 179.578 62.8125C180.73 62.8125 181.43 63.5703 181.43 64.8359L181.43 70.1836L183.129 70.1836L183.129 64.6328C183.129 62.4727 181.941 61.3438 180.156 61.3438C178.844 61.3438 177.988 61.9492 177.582 62.875L177.476 62.875L177.476 61.457L175.844 61.457L175.844 70.1836L177.543 70.1836L177.543 65ZM188.916 70.3594C190.979 70.3594 192.315 69.1211 192.502 67.4219L190.85 67.4219C190.635 68.3672 189.901 68.9219 188.928 68.9219C187.49 68.9219 186.565 67.7227 186.565 65.8203C186.565 63.9492 187.51 62.7734 188.928 62.7734C190.01 62.7734 190.666 63.457 190.85 64.2734L192.502 64.2734C192.322 62.5117 190.885 61.3438 188.901 61.3438C186.44 61.3438 184.85 63.1953 184.85 65.8594C184.85 68.4922 186.385 70.3594 188.916 70.3594ZM197.927 70.3594C199.834 70.3594 201.177 69.4219 201.564 68L199.959 67.7109C199.65 68.5352 198.912 68.957 197.947 68.957C196.49 68.957 195.513 68.0117 195.466 66.332L201.673 66.332L201.673 65.7305C201.673 62.5742 199.787 61.3438 197.81 61.3438C195.377 61.3438 193.775 63.1953 193.775 65.875C193.775 68.5859 195.353 70.3594 197.927 70.3594ZM195.474 65.0586C195.541 63.8203 196.439 62.7461 197.822 62.7461C199.138 62.7461 200.002 63.7227 200.009 65.0586L195.474 65.0586ZM209.946 63.5859C209.591 62.2305 208.528 61.3438 206.642 61.3438C204.673 61.3438 203.274 62.3828 203.274 63.9297C203.274 65.168 204.024 65.9922 205.661 66.3555L207.138 66.6797C207.978 66.8672 208.372 67.2422 208.372 67.7852C208.372 68.4609 207.649 68.9922 206.536 68.9922C205.517 68.9922 204.864 68.5547 204.661 67.6953L203.017 67.9453C203.302 69.4922 204.587 70.3594 206.548 70.3594C208.653 70.3594 210.114 69.2422 210.114 67.6602C210.114 66.4297 209.329 65.668 207.728 65.2969L206.341 64.9805C205.384 64.75 204.966 64.4297 204.974 63.8359C204.966 63.168 205.696 62.6875 206.661 62.6875C207.716 62.6875 208.204 63.2734 208.403 63.8594L209.946 63.5859ZM214.028 68.5938L212.391 68.5938L212.337 69.2305C212.204 70.7695 211.841 72.3203 211.688 73.0234L212.891 73.0234C213.165 72.2812 213.766 70.5742 213.942 69.2109L214.028 68.5938ZM222.699 70.375C224.141 70.375 224.953 69.6445 225.277 68.9922L225.344 68.9922L225.344 70.1836L227.004 70.1836L227.004 64.3867C227.004 61.8477 225.004 61.3438 223.617 61.3438C222.039 61.3438 220.582 61.9805 220.016 63.5703L221.613 63.9336C221.863 63.3125 222.5 62.7188 223.641 62.7188C224.738 62.7188 225.301 63.293 225.301 64.2812L225.301 64.3203C225.301 64.9375 224.664 64.9297 223.094 65.1094C221.441 65.3047 219.75 65.7344 219.75 67.7188C219.75 69.4336 221.039 70.375 222.699 70.375ZM223.066 69.0117C222.106 69.0117 221.414 68.582 221.414 67.7422C221.414 66.832 222.219 66.5078 223.203 66.375C223.754 66.3047 225.063 66.1562 225.305 65.9102L225.305 67.0352C225.305 68.0703 224.481 69.0117 223.066 69.0117ZM230.803 65C230.803 63.6094 231.655 62.8125 232.839 62.8125C233.991 62.8125 234.69 63.5703 234.69 64.8359L234.69 70.1836L236.389 70.1836L236.389 64.6328C236.389 62.4727 235.202 61.3438 233.417 61.3438C232.104 61.3438 231.249 61.9492 230.843 62.875L230.737 62.875L230.737 61.457L229.104 61.457L229.104 70.1836L230.803 70.1836L230.803 65ZM241.771 70.3555C243.36 70.3555 243.985 69.3828 244.294 68.8242L244.435 68.8242L244.435 70.1836L246.095 70.1836L246.095 58.5469L244.396 58.5469L244.396 62.8711L244.294 62.8711C243.985 62.332 243.407 61.3438 241.782 61.3438C239.673 61.3438 238.122 63.0078 238.122 65.8359C238.122 68.6602 239.65 70.3555 241.771 70.3555ZM242.146 68.9062C240.626 68.9062 239.837 67.5703 239.837 65.8203C239.837 64.0859 240.61 62.7852 242.146 62.7852C243.626 62.7852 244.423 63.9961 244.423 65.8203C244.423 67.6562 243.61 68.9062 242.146 68.9062ZM256.107 70.3594C258.568 70.3594 260.177 68.5586 260.177 65.8594C260.177 63.1445 258.568 61.3438 256.107 61.3438C253.65 61.3438 252.04 63.1445 252.04 65.8594C252.04 68.5586 253.65 70.3594 256.107 70.3594ZM256.115 68.9336C254.505 68.9336 253.755 67.5312 253.755 65.8555C253.755 64.1836 254.505 62.7617 256.115 62.7617C257.712 62.7617 258.462 64.1836 258.462 65.8555C258.462 67.5312 257.712 68.9336 256.115 68.9336ZM261.907 73.457L263.607 73.457L263.607 68.8242L263.708 68.8242C264.017 69.3828 264.642 70.3555 266.232 70.3555C268.345 70.3555 269.88 68.6602 269.88 65.8359C269.88 63.0078 268.325 61.3438 266.216 61.3438C264.595 61.3438 264.013 62.332 263.708 62.8711L263.568 62.8711L263.568 61.457L261.907 61.457L261.907 73.457ZM263.575 65.8203C263.575 63.9961 264.368 62.7852 265.853 62.7852C267.392 62.7852 268.165 64.0859 268.165 65.8203C268.165 67.5703 267.368 68.9062 265.853 68.9062C264.392 68.9062 263.575 67.6562 263.575 65.8203ZM275.697 61.457L273.908 61.457L273.908 59.3672L272.208 59.3672L272.208 61.457L270.931 61.457L270.931 62.8203L272.208 62.8203L272.208 67.9727C272.204 69.5586 273.415 70.3242 274.755 70.2969C275.294 70.293 275.658 70.1875 275.857 70.1172L275.548 68.7109C275.435 68.7344 275.228 68.7852 274.954 68.7852C274.404 68.7852 273.908 68.6055 273.908 67.6211L273.908 62.8203L275.697 62.8203L275.697 61.457ZM277.411 70.1836L279.111 70.1836L279.111 61.457L277.411 61.457L277.411 70.1836ZM278.271 60.1094C278.857 60.1094 279.345 59.6562 279.345 59.0977C279.345 58.543 278.857 58.082 278.271 58.082C277.681 58.082 277.196 58.543 277.196 59.0977C277.196 59.6562 277.681 60.1094 278.271 60.1094ZM281.234 70.1836L282.933 70.1836L282.933 64.8047C282.933 63.625 283.758 62.8086 284.723 62.8086C285.668 62.8086 286.32 63.4336 286.32 64.3828L286.32 70.1836L288.015 70.1836L288.015 64.6211C288.015 63.5703 288.656 62.8086 289.765 62.8086C290.66 62.8086 291.402 63.3086 291.402 64.4922L291.402 70.1836L293.098 70.1836L293.098 64.332C293.098 62.3359 291.984 61.3438 290.406 61.3438C289.152 61.3438 288.207 61.9453 287.785 62.875L287.695 62.875C287.316 61.9219 286.515 61.3438 285.348 61.3438C284.195 61.3438 283.34 61.918 282.973 62.875L282.867 62.875L282.867 61.457L281.234 61.457L281.234 70.1836ZM295.211 70.1836L296.91 70.1836L296.91 61.457L295.211 61.457L295.211 70.1836ZM296.07 60.1094C296.656 60.1094 297.144 59.6562 297.144 59.0977C297.144 58.543 296.656 58.082 296.07 58.082C295.48 58.082 294.996 58.543 294.996 59.0977C294.996 59.6562 295.48 60.1094 296.07 60.1094ZM298.854 70.1836L305.858 70.1836L305.858 68.707L301.155 68.707L301.155 68.625L305.701 62.6953L305.701 61.457L299.006 61.457L299.006 62.9336L303.58 62.9336L303.58 63.0117L298.854 69.0195L298.854 70.1836ZM307.697 70.1836L309.397 70.1836L309.397 61.457L307.697 61.457L307.697 70.1836ZM308.557 60.1094C309.143 60.1094 309.631 59.6562 309.631 59.0977C309.631 58.543 309.143 58.082 308.557 58.082C307.967 58.082 307.483 58.543 307.483 59.0977C307.483 59.6562 307.967 60.1094 308.557 60.1094ZM313.22 65C313.22 63.6094 314.071 62.8125 315.255 62.8125C316.407 62.8125 317.106 63.5703 317.106 64.8359L317.106 70.1836L318.805 70.1836L318.805 64.6328C318.805 62.4727 317.618 61.3438 315.833 61.3438C314.52 61.3438 313.665 61.9492 313.259 62.875L313.153 62.875L313.153 61.457L311.52 61.457L311.52 70.1836L313.22 70.1836L313.22 65ZM324.577 73.6367C326.8 73.6367 328.515 72.6211 328.515 70.375L328.515 61.457L326.851 61.457L326.851 62.8711L326.726 62.8711C326.425 62.332 325.823 61.3438 324.198 61.3438C322.089 61.3438 320.538 63.0078 320.538 65.7852C320.538 68.5703 322.124 70.0547 324.187 70.0547C325.788 70.0547 326.405 69.1484 326.714 68.5938L326.823 68.5938L326.823 70.3086C326.823 71.6797 325.886 72.2695 324.593 72.2695C323.179 72.2695 322.628 71.5586 322.327 71.0586L320.866 71.6602C321.327 72.7305 322.491 73.6367 324.577 73.6367ZM324.562 68.6445C323.042 68.6445 322.253 67.4805 322.253 65.7617C322.253 64.0859 323.026 62.7852 324.562 62.7852C326.042 62.7852 326.839 63.9961 326.839 65.7617C326.839 67.5625 326.026 68.6445 324.562 68.6445ZM1.76172 102.457C3.16797 102.457 4.05078 101.723 4.55859 100.348L8.15625 90.457L6.33203 90.457L4.12109 97.2305L4.03125 97.2305L1.82031 90.457L0 90.457L3.19531 99.2969L2.98438 99.875C2.55078 101.035 1.94531 101.133 1.01172 100.875L0.605469 102.27C0.808594 102.359 1.25 102.457 1.76172 102.457ZM12.959 99.3594C15.4199 99.3594 17.0293 97.5586 17.0293 94.8594C17.0293 92.1445 15.4199 90.3438 12.959 90.3438C10.5019 90.3438 8.89256 92.1445 8.89256 94.8594C8.89256 97.5586 10.5019 99.3594 12.959 99.3594ZM12.9668 97.9336C11.3574 97.9336 10.6074 96.5312 10.6074 94.8555C10.6074 93.1836 11.3574 91.7617 12.9668 91.7617C14.5644 91.7617 15.3144 93.1836 15.3144 94.8555C15.3144 96.5312 14.5644 97.9336 12.9668 97.9336ZM24.2908 95.5625C24.2947 97.0469 23.1931 97.75 22.24 97.75C21.1853 97.75 20.4588 96.9922 20.4588 95.8047L20.4588 90.457L18.7595 90.457L18.7595 96.0078C18.7595 98.1719 19.947 99.2969 21.6228 99.2969C22.9353 99.2969 23.8299 98.6055 24.2322 97.6719L24.322 97.6719L24.322 99.1836L25.9939 99.1836L25.9939 90.457L24.2908 90.457L24.2908 95.5625ZM28.1109 99.1836L29.8101 99.1836L29.8101 93.8555C29.8101 92.7109 30.6929 91.8867 31.8961 91.8867C32.2476 91.8867 32.6461 91.9492 32.7828 91.9922L32.7828 90.3672C32.6109 90.3438 32.2789 90.3242 32.0601 90.3242C31.0367 90.3242 30.1617 90.9062 29.8453 91.8438L29.7554 91.8438L29.7554 90.457L28.1109 90.457L28.1109 99.1836ZM38.1773 102.457L39.8765 102.457L39.8765 97.8242L39.9781 97.8242C40.2866 98.3828 40.9116 99.3555 42.5015 99.3555C44.6148 99.3555 46.1499 97.6602 46.1499 94.8359C46.1499 92.0078 44.5952 90.3438 42.4859 90.3438C40.8648 90.3438 40.2827 91.332 39.9781 91.8711L39.8374 91.8711L39.8374 90.457L38.1773 90.457L38.1773 102.457ZM39.8452 94.8203C39.8452 92.9961 40.6382 91.7852 42.1226 91.7852C43.6616 91.7852 44.4351 93.0859 44.4351 94.8203C44.4351 96.5703 43.6382 97.9062 42.1226 97.9062C40.6616 97.9062 39.8452 96.6562 39.8452 94.8203ZM47.8923 99.1836L49.5915 99.1836L49.5915 93.8555C49.5915 92.7109 50.4743 91.8867 51.6774 91.8867C52.029 91.8867 52.4274 91.9492 52.5641 91.9922L52.5641 90.3672C52.3923 90.3438 52.0602 90.3242 51.8415 90.3242C50.8181 90.3242 49.9431 90.9062 49.6266 91.8438L49.5368 91.8438L49.5368 90.457L47.8923 90.457L47.8923 99.1836ZM57.2376 99.3594C59.6985 99.3594 61.3079 97.5586 61.3079 94.8594C61.3079 92.1445 59.6985 90.3438 57.2376 90.3438C54.7806 90.3438 53.1712 92.1445 53.1712 94.8594C53.1712 97.5586 54.7806 99.3594 57.2376 99.3594ZM57.2454 97.9336C55.636 97.9336 54.886 96.5312 54.886 94.8555C54.886 93.1836 55.636 91.7617 57.2454 91.7617C58.8431 91.7617 59.5931 93.1836 59.5931 94.8555C59.5931 96.5312 58.8431 97.9336 57.2454 97.9336ZM66.3077 99.3555C67.8976 99.3555 68.5226 98.3828 68.8311 97.8242L68.9718 97.8242L68.9718 99.1836L70.6319 99.1836L70.6319 87.5469L68.9327 87.5469L68.9327 91.8711L68.8311 91.8711C68.5226 91.332 67.9444 90.3438 66.3194 90.3438C64.2101 90.3438 62.6593 92.0078 62.6593 94.8359C62.6593 97.6602 64.1866 99.3555 66.3077 99.3555ZM66.6827 97.9062C65.1632 97.9062 64.3741 96.5703 64.3741 94.8203C64.3741 93.0859 65.1476 91.7852 66.6827 91.7852C68.1632 91.7852 68.9601 92.9961 68.9601 94.8203C68.9601 96.6562 68.1476 97.9062 66.6827 97.9062ZM78.4208 95.5625C78.4247 97.0469 77.3231 97.75 76.37 97.75C75.3153 97.75 74.5888 96.9922 74.5888 95.8047L74.5888 90.457L72.8895 90.457L72.8895 96.0078C72.8895 98.1719 74.077 99.2969 75.7528 99.2969C77.0653 99.2969 77.9599 98.6055 78.3622 97.6719L78.452 97.6719L78.452 99.1836L80.1239 99.1836L80.1239 90.457L78.4208 90.457L78.4208 95.5625ZM85.9167 99.3594C87.9792 99.3594 89.3151 98.1211 89.5026 96.4219L87.8503 96.4219C87.6354 97.3672 86.9011 97.9219 85.9284 97.9219C84.4909 97.9219 83.5651 96.7227 83.5651 94.8203C83.5651 92.9492 84.5104 91.7734 85.9284 91.7734C87.0104 91.7734 87.6667 92.457 87.8503 93.2734L89.5026 93.2734C89.3229 91.5117 87.8854 90.3438 85.9011 90.3438C83.4401 90.3438 81.8503 92.1953 81.8503 94.8594C81.8503 97.4922 83.3854 99.3594 85.9167 99.3594ZM95.2403 90.457L93.4513 90.457L93.4513 88.3672L91.7521 88.3672L91.7521 90.457L90.4747 90.457L90.4747 91.8203L91.7521 91.8203L91.7521 96.9727C91.7482 98.5586 92.9591 99.3242 94.2989 99.2969C94.838 99.293 95.2013 99.1875 95.4005 99.1172L95.0919 97.7109C94.9786 97.7344 94.7716 97.7852 94.4982 97.7852C93.9474 97.7852 93.4513 97.6055 93.4513 96.6211L93.4513 91.8203L95.2403 91.8203L95.2403 90.457ZM107.577 92.5859C107.221 91.2305 106.159 90.3438 104.272 90.3438C102.303 90.3438 100.905 91.3828 100.905 92.9297C100.905 94.168 101.655 94.9922 103.291 95.3555L104.768 95.6797C105.608 95.8672 106.002 96.2422 106.002 96.7852C106.002 97.4609 105.28 97.9922 104.166 97.9922C103.147 97.9922 102.495 97.5547 102.291 96.6953L100.647 96.9453C100.932 98.4922 102.217 99.3594 104.178 99.3594C106.284 99.3594 107.745 98.2422 107.745 96.6602C107.745 95.4297 106.959 94.668 105.358 94.2969L103.971 93.9805C103.014 93.75 102.596 93.4297 102.604 92.8359C102.596 92.168 103.327 91.6875 104.291 91.6875C105.346 91.6875 105.834 92.2734 106.034 92.8594L107.577 92.5859ZM113.522 90.457L111.733 90.457L111.733 88.3672L110.033 88.3672L110.033 90.457L108.756 90.457L108.756 91.8203L110.033 91.8203L110.033 96.9727C110.03 98.5586 111.24 99.3242 112.58 99.2969C113.119 99.293 113.483 99.1875 113.682 99.1172L113.373 97.7109C113.26 97.7344 113.053 97.7852 112.78 97.7852C112.229 97.7852 111.733 97.6055 111.733 96.6211L111.733 91.8203L113.522 91.8203L113.522 90.457ZM115.236 99.1836L116.936 99.1836L116.936 93.8555C116.936 92.7109 117.818 91.8867 119.021 91.8867C119.373 91.8867 119.771 91.9492 119.908 91.9922L119.908 90.3672C119.736 90.3438 119.404 90.3242 119.186 90.3242C118.162 90.3242 117.287 90.9062 116.971 91.8438L116.881 91.8438L116.881 90.457L115.236 90.457L115.236 99.1836ZM123.687 99.375C125.129 99.375 125.941 98.6445 126.266 97.9922L126.332 97.9922L126.332 99.1836L127.992 99.1836L127.992 93.3867C127.992 90.8477 125.992 90.3438 124.605 90.3438C123.027 90.3438 121.57 90.9805 121.004 92.5703L122.602 92.9336C122.852 92.3125 123.488 91.7188 124.629 91.7188C125.727 91.7188 126.289 92.293 126.289 93.2812L126.289 93.3203C126.289 93.9375 125.652 93.9297 124.082 94.1094C122.43 94.3047 120.738 94.7344 120.738 96.7188C120.738 98.4336 122.027 99.375 123.687 99.375ZM124.055 98.0117C123.094 98.0117 122.402 97.582 122.402 96.7422C122.402 95.832 123.207 95.5078 124.191 95.375C124.742 95.3047 126.051 95.1562 126.293 94.9102L126.293 96.0352C126.293 97.0703 125.469 98.0117 124.055 98.0117ZM134.167 90.457L132.378 90.457L132.378 88.3672L130.678 88.3672L130.678 90.457L129.401 90.457L129.401 91.8203L130.678 91.8203L130.678 96.9727C130.674 98.5586 131.885 99.3242 133.225 99.2969C133.764 99.293 134.128 99.1875 134.327 99.1172L134.018 97.7109C133.905 97.7344 133.698 97.7852 133.424 97.7852C132.874 97.7852 132.378 97.6055 132.378 96.6211L132.378 91.8203L134.167 91.8203L134.167 90.457ZM139.552 99.3594C141.458 99.3594 142.802 98.4219 143.189 97L141.583 96.7109C141.275 97.5352 140.537 97.957 139.572 97.957C138.115 97.957 137.138 97.0117 137.091 95.332L143.298 95.332L143.298 94.7305C143.298 91.5742 141.412 90.3438 139.435 90.3438C137.001 90.3438 135.4 92.1953 135.4 94.875C135.4 97.5859 136.978 99.3594 139.552 99.3594ZM137.099 94.0586C137.165 92.8203 138.064 91.7461 139.447 91.7461C140.763 91.7461 141.626 92.7227 141.634 94.0586L137.099 94.0586ZM148.688 102.637C150.911 102.637 152.626 101.621 152.626 99.375L152.626 90.457L150.962 90.457L150.962 91.8711L150.837 91.8711C150.536 91.332 149.934 90.3438 148.309 90.3438C146.2 90.3438 144.649 92.0078 144.649 94.7852C144.649 97.5703 146.235 99.0547 148.298 99.0547C149.899 99.0547 150.516 98.1484 150.825 97.5938L150.934 97.5938L150.934 99.3086C150.934 100.68 149.997 101.27 148.704 101.27C147.29 101.27 146.739 100.559 146.438 100.059L144.977 100.66C145.438 101.73 146.602 102.637 148.688 102.637ZM148.673 97.6445C147.153 97.6445 146.364 96.4805 146.364 94.7617C146.364 93.0859 147.138 91.7852 148.673 91.7852C150.153 91.7852 150.95 92.9961 150.95 94.7617C150.95 96.5625 150.138 97.6445 148.673 97.6445ZM155.817 102.457C157.224 102.457 158.106 101.723 158.614 100.348L162.212 90.457L160.388 90.457L158.177 97.2305L158.087 97.2305L155.876 90.457L154.056 90.457L157.251 99.2969L157.04 99.875C156.606 101.035 156.001 101.133 155.067 100.875L154.661 102.27C154.864 102.359 155.306 102.457 155.817 102.457ZM171.881 90.457L169.998 90.457L169.998 89.6719C169.998 88.8984 170.318 88.4805 171.146 88.4805C171.498 88.4805 171.748 88.5586 171.908 88.6094L172.306 87.2344C172.068 87.1445 171.572 87 170.884 87C169.506 87 168.295 87.8086 168.295 89.4453L168.295 90.457L166.947 90.457L166.947 91.8203L168.295 91.8203L168.295 99.1836L169.998 99.1836L169.998 91.8203L171.881 91.8203L171.881 90.457ZM176.797 99.3594C179.258 99.3594 180.867 97.5586 180.867 94.8594C180.867 92.1445 179.258 90.3438 176.797 90.3438C174.34 90.3438 172.73 92.1445 172.73 94.8594C172.73 97.5586 174.34 99.3594 176.797 99.3594ZM176.805 97.9336C175.195 97.9336 174.445 96.5312 174.445 94.8555C174.445 93.1836 175.195 91.7617 176.805 91.7617C178.402 91.7617 179.152 93.1836 179.152 94.8555C179.152 96.5312 178.402 97.9336 176.805 97.9336ZM182.597 99.1836L184.297 99.1836L184.297 93.8555C184.297 92.7109 185.179 91.8867 186.383 91.8867C186.734 91.8867 187.133 91.9492 187.269 91.9922L187.269 90.3672C187.097 90.3438 186.765 90.3242 186.547 90.3242C185.523 90.3242 184.648 90.9062 184.332 91.8438L184.242 91.8438L184.242 90.457L182.597 90.457L182.597 99.1836ZM192.664 99.1836L194.363 99.1836L194.363 93.8047C194.363 92.625 195.187 91.8086 196.152 91.8086C197.097 91.8086 197.75 92.4336 197.75 93.3828L197.75 99.1836L199.445 99.1836L199.445 93.6211C199.445 92.5703 200.086 91.8086 201.195 91.8086C202.09 91.8086 202.832 92.3086 202.832 93.4922L202.832 99.1836L204.527 99.1836L204.527 93.332C204.527 91.3359 203.414 90.3438 201.836 90.3438C200.582 90.3438 199.636 90.9453 199.215 91.875L199.125 91.875C198.746 90.9219 197.945 90.3438 196.777 90.3438C195.625 90.3438 194.769 90.918 194.402 91.875L194.297 91.875L194.297 90.457L192.664 90.457L192.664 99.1836ZM209.183 99.375C210.625 99.375 211.437 98.6445 211.761 97.9922L211.828 97.9922L211.828 99.1836L213.488 99.1836L213.488 93.3867C213.488 90.8477 211.488 90.3438 210.101 90.3438C208.523 90.3438 207.066 90.9805 206.5 92.5703L208.097 92.9336C208.347 92.3125 208.984 91.7188 210.125 91.7188C211.222 91.7188 211.785 92.293 211.785 93.2812L211.785 93.3203C211.785 93.9375 211.148 93.9297 209.578 94.1094C207.925 94.3047 206.234 94.7344 206.234 96.7188C206.234 98.4336 207.523 99.375 209.183 99.375ZM209.55 98.0117C208.589 98.0117 207.898 97.582 207.898 96.7422C207.898 95.832 208.703 95.5078 209.687 95.375C210.238 95.3047 211.546 95.1562 211.789 94.9102L211.789 96.0352C211.789 97.0703 210.964 98.0117 209.55 98.0117ZM216.932 90.457L215.069 90.457L217.748 94.8203L215.033 99.1836L216.897 99.1836L218.858 95.9219L220.822 99.1836L222.682 99.1836L219.936 94.8203L222.658 90.457L220.799 90.457L218.858 93.8555L216.932 90.457ZM224.246 99.1836L225.945 99.1836L225.945 90.457L224.246 90.457L224.246 99.1836ZM225.106 89.1094C225.692 89.1094 226.18 88.6562 226.18 88.0977C226.18 87.543 225.692 87.082 225.106 87.082C224.516 87.082 224.031 87.543 224.031 88.0977C224.031 88.6562 224.516 89.1094 225.106 89.1094ZM228.069 99.1836L229.768 99.1836L229.768 93.8047C229.768 92.625 230.593 91.8086 231.558 91.8086C232.503 91.8086 233.155 92.4336 233.155 93.3828L233.155 99.1836L234.85 99.1836L234.85 93.6211C234.85 92.5703 235.491 91.8086 236.6 91.8086C237.495 91.8086 238.237 92.3086 238.237 93.4922L238.237 99.1836L239.933 99.1836L239.933 93.332C239.933 91.3359 238.819 90.3438 237.241 90.3438C235.987 90.3438 235.042 90.9453 234.62 91.875L234.53 91.875C234.151 90.9219 233.35 90.3438 232.183 90.3438C231.03 90.3438 230.175 90.918 229.808 91.875L229.702 91.875L229.702 90.457L228.069 90.457L228.069 99.1836ZM247.577 95.5625C247.581 97.0469 246.479 97.75 245.526 97.75C244.471 97.75 243.745 96.9922 243.745 95.8047L243.745 90.457L242.046 90.457L242.046 96.0078C242.046 98.1719 243.233 99.2969 244.909 99.2969C246.221 99.2969 247.116 98.6055 247.518 97.6719L247.608 97.6719L247.608 99.1836L249.28 99.1836L249.28 90.457L247.577 90.457L247.577 95.5625ZM251.397 99.1836L253.096 99.1836L253.096 93.8047C253.096 92.625 253.92 91.8086 254.885 91.8086C255.831 91.8086 256.483 92.4336 256.483 93.3828L256.483 99.1836L258.178 99.1836L258.178 93.6211C258.178 92.5703 258.819 91.8086 259.928 91.8086C260.823 91.8086 261.565 92.3086 261.565 93.4922L261.565 99.1836L263.26 99.1836L263.26 93.332C263.26 91.3359 262.147 90.3438 260.569 90.3438C259.315 90.3438 258.37 90.9453 257.948 91.875L257.858 91.875C257.479 90.9219 256.678 90.3438 255.51 90.3438C254.358 90.3438 253.502 90.918 253.135 91.875L253.03 91.875L253.03 90.457L251.397 90.457L251.397 99.1836ZM269.452 99.1836L271.151 99.1836L271.151 90.457L269.452 90.457L269.452 99.1836ZM270.311 89.1094C270.897 89.1094 271.386 88.6562 271.386 88.0977C271.386 87.543 270.897 87.082 270.311 87.082C269.721 87.082 269.237 87.543 269.237 88.0977C269.237 88.6562 269.721 89.1094 270.311 89.1094ZM273.275 99.1836L274.974 99.1836L274.974 93.8047C274.974 92.625 275.798 91.8086 276.763 91.8086C277.708 91.8086 278.361 92.4336 278.361 93.3828L278.361 99.1836L280.056 99.1836L280.056 93.6211C280.056 92.5703 280.697 91.8086 281.806 91.8086C282.701 91.8086 283.443 92.3086 283.443 93.4922L283.443 99.1836L285.138 99.1836L285.138 93.332C285.138 91.3359 284.025 90.3438 282.447 90.3438C281.193 90.3438 280.248 90.9453 279.826 91.875L279.736 91.875C279.357 90.9219 278.556 90.3438 277.388 90.3438C276.236 90.3438 275.38 90.918 275.013 91.875L274.908 91.875L274.908 90.457L273.275 90.457L273.275 99.1836ZM287.251 102.457L288.95 102.457L288.95 97.8242L289.052 97.8242C289.361 98.3828 289.986 99.3555 291.575 99.3555C293.689 99.3555 295.224 97.6602 295.224 94.8359C295.224 92.0078 293.669 90.3438 291.56 90.3438C289.939 90.3438 289.357 91.332 289.052 91.8711L288.911 91.8711L288.911 90.457L287.251 90.457L287.251 102.457ZM288.919 94.8203C288.919 92.9961 289.712 91.7852 291.197 91.7852C292.736 91.7852 293.509 93.0859 293.509 94.8203C293.509 96.5703 292.712 97.9062 291.197 97.9062C289.736 97.9062 288.919 96.6562 288.919 94.8203ZM299.509 99.375C300.951 99.375 301.763 98.6445 302.087 97.9922L302.154 97.9922L302.154 99.1836L303.814 99.1836L303.814 93.3867C303.814 90.8477 301.814 90.3438 300.427 90.3438C298.849 90.3438 297.392 90.9805 296.826 92.5703L298.423 92.9336C298.673 92.3125 299.31 91.7188 300.451 91.7188C301.548 91.7188 302.111 92.293 302.111 93.2812L302.111 93.3203C302.111 93.9375 301.474 93.9297 299.904 94.1094C298.251 94.3047 296.56 94.7344 296.56 96.7188C296.56 98.4336 297.849 99.375 299.509 99.375ZM299.876 98.0117C298.915 98.0117 298.224 97.582 298.224 96.7422C298.224 95.832 299.029 95.5078 300.013 95.375C300.564 95.3047 301.872 95.1562 302.115 94.9102L302.115 96.0352C302.115 97.0703 301.29 98.0117 299.876 98.0117ZM309.59 99.3594C311.652 99.3594 312.988 98.1211 313.176 96.4219L311.524 96.4219C311.309 97.3672 310.574 97.9219 309.602 97.9219C308.164 97.9219 307.238 96.7227 307.238 94.8203C307.238 92.9492 308.184 91.7734 309.602 91.7734C310.684 91.7734 311.34 92.457 311.524 93.2734L313.176 93.2734C312.996 91.5117 311.559 90.3438 309.574 90.3438C307.113 90.3438 305.524 92.1953 305.524 94.8594C305.524 97.4922 307.059 99.3594 309.59 99.3594ZM318.914 90.457L317.125 90.457L317.125 88.3672L315.425 88.3672L315.425 90.457L314.148 90.457L314.148 91.8203L315.425 91.8203L315.425 96.9727C315.421 98.5586 316.632 99.3242 317.972 99.2969C318.511 99.293 318.875 99.1875 319.074 99.1172L318.765 97.7109C318.652 97.7344 318.445 97.7852 318.171 97.7852C317.621 97.7852 317.125 97.6055 317.125 96.6211L317.125 91.8203L318.914 91.8203L318.914 90.457ZM321.749 99.293C322.367 99.293 322.886 98.7852 322.886 98.1562C322.886 97.5352 322.367 97.0234 321.749 97.0234C321.124 97.0234 320.613 97.5352 320.613 98.1562C320.613 98.7852 321.124 99.293 321.749 99.293ZM0.824219 128.184L8.1875 128.184L8.1875 126.672L2.58203 126.672L2.58203 123.109L7.73828 123.109L7.73828 121.605L2.58203 121.605L2.58203 118.059L8.12109 118.059L8.12109 116.547L0.824219 116.547L0.824219 128.184ZM11.8744 116.547L10.1752 116.547L10.1752 128.184L11.8744 128.184L11.8744 116.547ZM17.7599 128.359C19.6662 128.359 21.0099 127.422 21.3966 126L19.7912 125.711C19.4826 126.535 18.7443 126.957 17.7794 126.957C16.3224 126.957 15.3458 126.012 15.299 124.332L21.506 124.332L21.506 123.73C21.506 120.574 19.6193 119.344 17.6427 119.344C15.2091 119.344 13.6076 121.195 13.6076 123.875C13.6076 126.586 15.1857 128.359 17.7599 128.359ZM15.3068 123.059C15.3732 121.82 16.2716 120.746 17.6544 120.746C18.9708 120.746 19.8341 121.723 19.8419 123.059L15.3068 123.059ZM30.4433 119.457L28.6191 119.457L26.412 126.172L26.3222 126.172L24.1113 119.457L22.287 119.457L25.4589 128.184L27.2753 128.184L30.4433 119.457ZM34.1587 128.375C35.6001 128.375 36.4126 127.645 36.7368 126.992L36.8032 126.992L36.8032 128.184L38.4633 128.184L38.4633 122.387C38.4633 119.848 36.4633 119.344 35.0766 119.344C33.4985 119.344 32.0415 119.98 31.4751 121.57L33.0727 121.934C33.3227 121.312 33.9594 120.719 35.1001 120.719C36.1977 120.719 36.7602 121.293 36.7602 122.281L36.7602 122.32C36.7602 122.938 36.1235 122.93 34.5532 123.109C32.9008 123.305 31.2094 123.734 31.2094 125.719C31.2094 127.434 32.4985 128.375 34.1587 128.375ZM34.5258 127.012C33.5649 127.012 32.8735 126.582 32.8735 125.742C32.8735 124.832 33.6782 124.508 34.6626 124.375C35.2133 124.305 36.5219 124.156 36.7641 123.91L36.7641 125.035C36.7641 126.07 35.9399 127.012 34.5258 127.012ZM44.6379 119.457L42.8488 119.457L42.8488 117.367L41.1496 117.367L41.1496 119.457L39.8722 119.457L39.8722 120.82L41.1496 120.82L41.1496 125.973C41.1457 127.559 42.3566 128.324 43.6965 128.297C44.2355 128.293 44.5988 128.188 44.798 128.117L44.4894 126.711C44.3761 126.734 44.1691 126.785 43.8957 126.785C43.3449 126.785 42.8488 126.605 42.8488 125.621L42.8488 120.82L44.6379 120.82L44.6379 119.457ZM50.0233 128.359C51.9296 128.359 53.2733 127.422 53.66 126L52.0546 125.711C51.746 126.535 51.0077 126.957 50.0428 126.957C48.5858 126.957 47.6093 126.012 47.5624 124.332L53.7694 124.332L53.7694 123.73C53.7694 120.574 51.8827 119.344 49.9061 119.344C47.4725 119.344 45.871 121.195 45.871 123.875C45.871 126.586 47.4491 128.359 50.0233 128.359ZM47.5702 123.059C47.6366 121.82 48.535 120.746 49.9178 120.746C51.2343 120.746 52.0975 121.723 52.1053 123.059L47.5702 123.059ZM60.6522 131.457C62.0584 131.457 62.9412 130.723 63.4491 129.348L67.0467 119.457L65.2225 119.457L63.0116 126.23L62.9217 126.23L60.7108 119.457L58.8905 119.457L62.0858 128.297L61.8748 128.875C61.4412 130.035 60.8358 130.133 59.9022 129.875L59.4959 131.27C59.6991 131.359 60.1405 131.457 60.6522 131.457ZM71.8494 128.359C74.3104 128.359 75.9197 126.559 75.9197 123.859C75.9197 121.145 74.3104 119.344 71.8494 119.344C69.3924 119.344 67.783 121.145 67.783 123.859C67.783 126.559 69.3924 128.359 71.8494 128.359ZM71.8572 126.934C70.2479 126.934 69.4979 125.531 69.4979 123.855C69.4979 122.184 70.2479 120.762 71.8572 120.762C73.4549 120.762 74.2049 122.184 74.2049 123.855C74.2049 125.531 73.4549 126.934 71.8572 126.934ZM83.1812 124.562C83.1852 126.047 82.0836 126.75 81.1305 126.75C80.0758 126.75 79.3492 125.992 79.3492 124.805L79.3492 119.457L77.65 119.457L77.65 125.008C77.65 127.172 78.8375 128.297 80.5133 128.297C81.8258 128.297 82.7203 127.605 83.1227 126.672L83.2125 126.672L83.2125 128.184L84.8844 128.184L84.8844 119.457L83.1812 119.457L83.1812 124.562ZM87.0014 128.184L88.7006 128.184L88.7006 122.855C88.7006 121.711 89.5834 120.887 90.7865 120.887C91.1381 120.887 91.5365 120.949 91.6732 120.992L91.6732 119.367C91.5014 119.344 91.1693 119.324 90.9506 119.324C89.9271 119.324 89.0521 119.906 88.7357 120.844L88.6459 120.844L88.6459 119.457L87.0014 119.457L87.0014 128.184ZM103.611 121.586C103.255 120.23 102.193 119.344 100.306 119.344C98.3372 119.344 96.9388 120.383 96.9388 121.93C96.9388 123.168 97.6888 123.992 99.3255 124.355L100.802 124.68C101.642 124.867 102.036 125.242 102.036 125.785C102.036 126.461 101.314 126.992 100.201 126.992C99.181 126.992 98.5287 126.555 98.3255 125.695L96.681 125.945C96.9662 127.492 98.2513 128.359 100.212 128.359C102.318 128.359 103.779 127.242 103.779 125.66C103.779 124.43 102.993 123.668 101.392 123.297L100.005 122.98C99.0482 122.75 98.6302 122.43 98.638 121.836C98.6302 121.168 99.3607 120.688 100.326 120.688C101.38 120.688 101.868 121.273 102.068 121.859L103.611 121.586ZM109.556 119.457L107.767 119.457L107.767 117.367L106.068 117.367L106.068 119.457L104.79 119.457L104.79 120.82L106.068 120.82L106.068 125.973C106.064 127.559 107.275 128.324 108.614 128.297C109.153 128.293 109.517 128.188 109.716 128.117L109.407 126.711C109.294 126.734 109.087 126.785 108.814 126.785C108.263 126.785 107.767 126.605 107.767 125.621L107.767 120.82L109.556 120.82L109.556 119.457ZM113.813 128.375C115.255 128.375 116.067 127.645 116.392 126.992L116.458 126.992L116.458 128.184L118.118 128.184L118.118 122.387C118.118 119.848 116.118 119.344 114.731 119.344C113.153 119.344 111.696 119.98 111.13 121.57L112.727 121.934C112.977 121.312 113.614 120.719 114.755 120.719C115.852 120.719 116.415 121.293 116.415 122.281L116.415 122.32C116.415 122.938 115.778 122.93 114.208 123.109C112.556 123.305 110.864 123.734 110.864 125.719C110.864 127.434 112.153 128.375 113.813 128.375ZM114.181 127.012C113.22 127.012 112.528 126.582 112.528 125.742C112.528 124.832 113.333 124.508 114.317 124.375C114.868 124.305 116.177 124.156 116.419 123.91L116.419 125.035C116.419 126.07 115.595 127.012 114.181 127.012ZM120.218 128.184L121.918 128.184L121.918 122.855C121.918 121.711 122.8 120.887 124.004 120.887C124.355 120.887 124.754 120.949 124.89 120.992L124.89 119.367C124.718 119.344 124.386 119.324 124.168 119.324C123.144 119.324 122.269 119.906 121.953 120.844L121.863 120.844L121.863 119.457L120.218 119.457L120.218 128.184ZM130.792 119.457L129.003 119.457L129.003 117.367L127.303 117.367L127.303 119.457L126.026 119.457L126.026 120.82L127.303 120.82L127.303 125.973C127.3 127.559 128.51 128.324 129.85 128.297C130.389 128.293 130.753 128.188 130.952 128.117L130.643 126.711C130.53 126.734 130.323 126.785 130.05 126.785C129.499 126.785 129.003 126.605 129.003 125.621L129.003 120.82L130.792 120.82L130.792 119.457ZM138.038 124.562C138.042 126.047 136.94 126.75 135.987 126.75C134.932 126.75 134.206 125.992 134.206 124.805L134.206 119.457L132.506 119.457L132.506 125.008C132.506 127.172 133.694 128.297 135.37 128.297C136.682 128.297 137.577 127.605 137.979 126.672L138.069 126.672L138.069 128.184L139.741 128.184L139.741 119.457L138.038 119.457L138.038 124.562ZM141.858 131.457L143.557 131.457L143.557 126.824L143.658 126.824C143.967 127.383 144.592 128.355 146.182 128.355C148.295 128.355 149.83 126.66 149.83 123.836C149.83 121.008 148.276 119.344 146.166 119.344C144.545 119.344 143.963 120.332 143.658 120.871L143.518 120.871L143.518 119.457L141.858 119.457L141.858 131.457ZM143.526 123.82C143.526 121.996 144.319 120.785 145.803 120.785C147.342 120.785 148.116 122.086 148.116 123.82C148.116 125.57 147.319 126.906 145.803 126.906C144.342 126.906 143.526 125.656 143.526 123.82ZM157.546 128.184L159.272 128.184L161.046 121.883L161.175 121.883L162.948 128.184L164.683 128.184L167.245 119.457L165.487 119.457L163.788 125.836L163.702 125.836L161.999 119.457L160.245 119.457L158.526 125.867L158.444 125.867L156.733 119.457L154.976 119.457L157.546 128.184ZM168.69 128.184L170.389 128.184L170.389 119.457L168.69 119.457L168.69 128.184ZM169.55 118.109C170.136 118.109 170.624 117.656 170.624 117.098C170.624 116.543 170.136 116.082 169.55 116.082C168.96 116.082 168.475 116.543 168.475 117.098C168.475 117.656 168.96 118.109 169.55 118.109ZM176.587 119.457L174.798 119.457L174.798 117.367L173.099 117.367L173.099 119.457L171.822 119.457L171.822 120.82L173.099 120.82L173.099 125.973C173.095 127.559 174.306 128.324 175.646 128.297C176.185 128.293 176.548 128.188 176.748 128.117L176.439 126.711C176.326 126.734 176.119 126.785 175.845 126.785C175.294 126.785 174.798 126.605 174.798 125.621L174.798 120.82L176.587 120.82L176.587 119.457ZM180.183 123C180.183 121.609 181.066 120.812 182.277 120.812C183.445 120.812 184.144 121.559 184.144 122.836L184.144 128.184L185.843 128.184L185.843 122.633C185.843 120.457 184.652 119.344 182.855 119.344C181.496 119.344 180.679 119.934 180.269 120.875L180.16 120.875L180.16 116.547L178.484 116.547L178.484 128.184L180.183 128.184L180.183 123ZM196.107 119.457L194.318 119.457L194.318 117.367L192.619 117.367L192.619 119.457L191.342 119.457L191.342 120.82L192.619 120.82L192.619 125.973C192.615 127.559 193.826 128.324 195.166 128.297C195.705 128.293 196.068 128.188 196.268 128.117L195.959 126.711C195.846 126.734 195.639 126.785 195.365 126.785C194.814 126.785 194.318 126.605 194.318 125.621L194.318 120.82L196.107 120.82L196.107 119.457ZM200.365 128.375C201.806 128.375 202.619 127.645 202.943 126.992L203.009 126.992L203.009 128.184L204.67 128.184L204.67 122.387C204.67 119.848 202.67 119.344 201.283 119.344C199.705 119.344 198.248 119.98 197.681 121.57L199.279 121.934C199.529 121.312 200.166 120.719 201.306 120.719C202.404 120.719 202.967 121.293 202.967 122.281L202.967 122.32C202.967 122.938 202.33 122.93 200.759 123.109C199.107 123.305 197.416 123.734 197.416 125.719C197.416 127.434 198.705 128.375 200.365 128.375ZM200.732 127.012C199.771 127.012 199.08 126.582 199.08 125.742C199.08 124.832 199.884 124.508 200.869 124.375C201.42 124.305 202.728 124.156 202.97 123.91L202.97 125.035C202.97 126.07 202.146 127.012 200.732 127.012ZM206.77 128.184L208.469 128.184L208.469 119.457L206.77 119.457L206.77 128.184ZM207.629 118.109C208.215 118.109 208.704 117.656 208.704 117.098C208.704 116.543 208.215 116.082 207.629 116.082C207.039 116.082 206.555 116.543 206.555 117.098C206.555 117.656 207.039 118.109 207.629 118.109ZM212.292 116.547L210.593 116.547L210.593 128.184L212.292 128.184L212.292 116.547ZM218.092 128.359C220.553 128.359 222.162 126.559 222.162 123.859C222.162 121.145 220.553 119.344 218.092 119.344C215.635 119.344 214.025 121.145 214.025 123.859C214.025 126.559 215.635 128.359 218.092 128.359ZM218.099 126.934C216.49 126.934 215.74 125.531 215.74 123.855C215.74 122.184 216.49 120.762 218.099 120.762C219.697 120.762 220.447 122.184 220.447 123.855C220.447 125.531 219.697 126.934 218.099 126.934ZM223.892 128.184L225.591 128.184L225.591 122.855C225.591 121.711 226.474 120.887 227.677 120.887C228.029 120.887 228.427 120.949 228.564 120.992L228.564 119.367C228.392 119.344 228.06 119.324 227.841 119.324C226.818 119.324 225.943 119.906 225.627 120.844L225.537 120.844L225.537 119.457L223.892 119.457L223.892 128.184ZM233.323 128.359C235.23 128.359 236.573 127.422 236.96 126L235.355 125.711C235.046 126.535 234.308 126.957 233.343 126.957C231.886 126.957 230.909 126.012 230.863 124.332L237.07 124.332L237.07 123.73C237.07 120.574 235.183 119.344 233.206 119.344C230.773 119.344 229.171 121.195 229.171 123.875C229.171 126.586 230.749 128.359 233.323 128.359ZM230.87 123.059C230.937 121.82 231.835 120.746 233.218 120.746C234.534 120.746 235.398 121.723 235.406 123.059L230.87 123.059ZM242.069 128.355C243.659 128.355 244.284 127.383 244.592 126.824L244.733 126.824L244.733 128.184L246.393 128.184L246.393 116.547L244.694 116.547L244.694 120.871L244.592 120.871C244.284 120.332 243.706 119.344 242.081 119.344C239.971 119.344 238.421 121.008 238.421 123.836C238.421 126.66 239.948 128.355 242.069 128.355ZM242.444 126.906C240.924 126.906 240.135 125.57 240.135 123.82C240.135 122.086 240.909 120.785 242.444 120.785C243.924 120.785 244.721 121.996 244.721 123.82C244.721 125.656 243.909 126.906 242.444 126.906ZM259.272 121.586C258.917 120.23 257.854 119.344 255.968 119.344C253.999 119.344 252.601 120.383 252.601 121.93C252.601 123.168 253.351 123.992 254.987 124.355L256.464 124.68C257.304 124.867 257.698 125.242 257.698 125.785C257.698 126.461 256.976 126.992 255.862 126.992C254.843 126.992 254.19 126.555 253.987 125.695L252.343 125.945C252.628 127.492 253.913 128.359 255.874 128.359C257.979 128.359 259.44 127.242 259.44 125.66C259.44 124.43 258.655 123.668 257.054 123.297L255.667 122.98C254.71 122.75 254.292 122.43 254.3 121.836C254.292 121.168 255.022 120.688 255.987 120.688C257.042 120.688 257.53 121.273 257.729 121.859L259.272 121.586ZM264.819 128.359C267.28 128.359 268.889 126.559 268.889 123.859C268.889 121.145 267.28 119.344 264.819 119.344C262.362 119.344 260.753 121.145 260.753 123.859C260.753 126.559 262.362 128.359 264.819 128.359ZM264.827 126.934C263.218 126.934 262.468 125.531 262.468 123.855C262.468 122.184 263.218 120.762 264.827 120.762C266.425 120.762 267.175 122.184 267.175 123.855C267.175 125.531 266.425 126.934 264.827 126.934ZM272.319 116.547L270.62 116.547L270.62 128.184L272.319 128.184L272.319 116.547ZM279.974 124.562C279.978 126.047 278.876 126.75 277.923 126.75C276.868 126.75 276.142 125.992 276.142 124.805L276.142 119.457L274.443 119.457L274.443 125.008C274.443 127.172 275.63 128.297 277.306 128.297C278.618 128.297 279.513 127.605 279.915 126.672L280.005 126.672L280.005 128.184L281.677 128.184L281.677 119.457L279.974 119.457L279.974 124.562ZM287.868 119.457L286.079 119.457L286.079 117.367L284.38 117.367L284.38 119.457L283.103 119.457L283.103 120.82L284.38 120.82L284.38 125.973C284.376 127.559 285.587 128.324 286.927 128.297C287.466 128.293 287.829 128.188 288.028 128.117L287.72 126.711C287.606 126.734 287.399 126.785 287.126 126.785C286.575 126.785 286.079 126.605 286.079 125.621L286.079 120.82L287.868 120.82L287.868 119.457ZM289.583 128.184L291.282 128.184L291.282 119.457L289.583 119.457L289.583 128.184ZM290.442 118.109C291.028 118.109 291.516 117.656 291.516 117.098C291.516 116.543 291.028 116.082 290.442 116.082C289.852 116.082 289.368 116.543 289.368 117.098C289.368 117.656 289.852 118.109 290.442 118.109ZM297.082 128.359C299.542 128.359 301.152 126.559 301.152 123.859C301.152 121.145 299.542 119.344 297.082 119.344C294.624 119.344 293.015 121.145 293.015 123.859C293.015 126.559 294.624 128.359 297.082 128.359ZM297.089 126.934C295.48 126.934 294.73 125.531 294.73 123.855C294.73 122.184 295.48 120.762 297.089 120.762C298.687 120.762 299.437 122.184 299.437 123.855C299.437 125.531 298.687 126.934 297.089 126.934ZM304.581 123C304.581 121.609 305.433 120.812 306.616 120.812C307.769 120.812 308.468 121.57 308.468 122.836L308.468 128.184L310.167 128.184L310.167 122.633C310.167 120.473 308.98 119.344 307.195 119.344C305.882 119.344 305.027 119.949 304.62 120.875L304.515 120.875L304.515 119.457L302.882 119.457L302.882 128.184L304.581 128.184L304.581 123ZM318.822 121.586C318.466 120.23 317.404 119.344 315.517 119.344C313.548 119.344 312.15 120.383 312.15 121.93C312.15 123.168 312.9 123.992 314.537 124.355L316.013 124.68C316.853 124.867 317.248 125.242 317.248 125.785C317.248 126.461 316.525 126.992 315.412 126.992C314.392 126.992 313.74 126.555 313.537 125.695L311.892 125.945C312.177 127.492 313.462 128.359 315.423 128.359C317.529 128.359 318.99 127.242 318.99 125.66C318.99 124.43 318.205 123.668 316.603 123.297L315.216 122.98C314.259 122.75 313.841 122.43 313.849 121.836C313.841 121.168 314.572 120.688 315.537 120.688C316.591 120.688 317.08 121.273 317.279 121.859L318.822 121.586ZM3.95703 157.355C5.54688 157.355 6.17188 156.383 6.48047 155.824L6.62109 155.824L6.62109 157.184L8.28125 157.184L8.28125 145.547L6.58203 145.547L6.58203 149.871L6.48047 149.871C6.17188 149.332 5.59375 148.344 3.96875 148.344C1.85938 148.344 0.308594 150.008 0.308594 152.836C0.308594 155.66 1.83594 157.355 3.95703 157.355ZM4.33203 155.906C2.8125 155.906 2.02344 154.57 2.02344 152.82C2.02344 151.086 2.79688 149.785 4.33203 149.785C5.8125 149.785 6.60938 150.996 6.60938 152.82C6.60938 154.656 5.79688 155.906 4.33203 155.906ZM14.3006 157.359C16.2068 157.359 17.5506 156.422 17.9373 155L16.3318 154.711C16.0232 155.535 15.285 155.957 14.3201 155.957C12.8631 155.957 11.8865 155.012 11.8396 153.332L18.0467 153.332L18.0467 152.73C18.0467 149.574 16.16 148.344 14.1834 148.344C11.7498 148.344 10.1482 150.195 10.1482 152.875C10.1482 155.586 11.7264 157.359 14.3006 157.359ZM11.8475 152.059C11.9139 150.82 12.8123 149.746 14.1951 149.746C15.5115 149.746 16.3748 150.723 16.3826 152.059L11.8475 152.059ZM26.3196 150.586C25.9641 149.23 24.9016 148.344 23.0149 148.344C21.0461 148.344 19.6477 149.383 19.6477 150.93C19.6477 152.168 20.3977 152.992 22.0344 153.355L23.511 153.68C24.3508 153.867 24.7453 154.242 24.7453 154.785C24.7453 155.461 24.0227 155.992 22.9094 155.992C21.8899 155.992 21.2375 155.555 21.0344 154.695L19.3899 154.945C19.675 156.492 20.9602 157.359 22.9211 157.359C25.0266 157.359 26.4875 156.242 26.4875 154.66C26.4875 153.43 25.7024 152.668 24.1008 152.297L22.7141 151.98C21.7571 151.75 21.3391 151.43 21.3469 150.836C21.3391 150.168 22.0696 149.688 23.0344 149.688C24.0891 149.688 24.5774 150.273 24.7766 150.859L26.3196 150.586ZM28.1905 157.184L29.8897 157.184L29.8897 148.457L28.1905 148.457L28.1905 157.184ZM29.0498 147.109C29.6358 147.109 30.1241 146.656 30.1241 146.098C30.1241 145.543 29.6358 145.082 29.0498 145.082C28.46 145.082 27.9756 145.543 27.9756 146.098C27.9756 146.656 28.46 147.109 29.0498 147.109ZM35.6736 160.637C37.8962 160.637 39.6111 159.621 39.6111 157.375L39.6111 148.457L37.947 148.457L37.947 149.871L37.822 149.871C37.5212 149.332 36.9197 148.344 35.2947 148.344C33.1853 148.344 31.6345 150.008 31.6345 152.785C31.6345 155.57 33.2204 157.055 35.2829 157.055C36.8845 157.055 37.5017 156.148 37.8103 155.594L37.9197 155.594L37.9197 157.309C37.9197 158.68 36.9822 159.27 35.6892 159.27C34.2751 159.27 33.7243 158.559 33.4236 158.059L31.9626 158.66C32.4236 159.73 33.5876 160.637 35.6736 160.637ZM35.6579 155.645C34.1384 155.645 33.3493 154.48 33.3493 152.762C33.3493 151.086 34.1228 149.785 35.6579 149.785C37.1384 149.785 37.9353 150.996 37.9353 152.762C37.9353 154.563 37.1228 155.645 35.6579 155.645ZM43.4276 152C43.4276 150.609 44.2792 149.813 45.4628 149.813C46.6151 149.813 47.3144 150.57 47.3144 151.836L47.3144 157.184L49.0136 157.184L49.0136 151.633C49.0136 149.473 47.8261 148.344 46.0409 148.344C44.7284 148.344 43.8729 148.949 43.4667 149.875L43.3612 149.875L43.3612 148.457L41.7284 148.457L41.7284 157.184L43.4276 157.184L43.4276 152ZM54.887 157.359C56.7932 157.359 58.137 156.422 58.5237 155L56.9182 154.711C56.6096 155.535 55.8713 155.957 54.9065 155.957C53.4495 155.957 52.4729 155.012 52.426 153.332L58.633 153.332L58.633 152.73C58.633 149.574 56.7463 148.344 54.7698 148.344C52.3362 148.344 50.7346 150.195 50.7346 152.875C50.7346 155.586 52.3127 157.359 54.887 157.359ZM52.4338 152.059C52.5002 150.82 53.3987 149.746 54.7815 149.746C56.0979 149.746 56.9612 150.723 56.969 152.059L52.4338 152.059ZM63.6325 157.355C65.2223 157.355 65.8473 156.383 66.1559 155.824L66.2966 155.824L66.2966 157.184L67.9567 157.184L67.9567 145.547L66.2575 145.547L66.2575 149.871L66.1559 149.871C65.8473 149.332 65.2692 148.344 63.6442 148.344C61.5348 148.344 59.9841 150.008 59.9841 152.836C59.9841 155.66 61.5114 157.355 63.6325 157.355ZM64.0075 155.906C62.488 155.906 61.6989 154.57 61.6989 152.82C61.6989 151.086 62.4723 149.785 64.0075 149.785C65.488 149.785 66.2848 150.996 66.2848 152.82C66.2848 154.656 65.4723 155.906 64.0075 155.906ZM78.4492 148.457L76.5664 148.457L76.5664 147.672C76.5664 146.898 76.8867 146.48 77.7148 146.48C78.0664 146.48 78.3164 146.559 78.4766 146.609L78.875 145.234C78.6367 145.145 78.1406 145 77.4531 145C76.0742 145 74.8633 145.809 74.8633 147.445L74.8633 148.457L73.5156 148.457L73.5156 149.82L74.8633 149.82L74.8633 157.184L76.5664 157.184L76.5664 149.82L78.4492 149.82L78.4492 148.457ZM83.3656 157.359C85.8265 157.359 87.4359 155.559 87.4359 152.859C87.4359 150.145 85.8265 148.344 83.3656 148.344C80.9085 148.344 79.2991 150.145 79.2991 152.859C79.2991 155.559 80.9085 157.359 83.3656 157.359ZM83.3734 155.934C81.764 155.934 81.014 154.531 81.014 152.855C81.014 151.184 81.764 149.762 83.3734 149.762C84.971 149.762 85.721 151.184 85.721 152.855C85.721 154.531 84.971 155.934 83.3734 155.934ZM89.1661 157.184L90.8654 157.184L90.8654 151.855C90.8654 150.711 91.7482 149.887 92.9513 149.887C93.3029 149.887 93.7013 149.949 93.838 149.992L93.838 148.367C93.6661 148.344 93.3341 148.324 93.1154 148.324C92.0919 148.324 91.2169 148.906 90.9005 149.844L90.8107 149.844L90.8107 148.457L89.1661 148.457L89.1661 157.184ZM105.775 150.586C105.42 149.23 104.357 148.344 102.471 148.344C100.502 148.344 99.1036 149.383 99.1036 150.93C99.1036 152.168 99.8536 152.992 101.49 153.355L102.967 153.68C103.807 153.867 104.201 154.242 104.201 154.785C104.201 155.461 103.479 155.992 102.365 155.992C101.346 155.992 100.693 155.555 100.49 154.695L98.8458 154.945C99.1309 156.492 100.416 157.359 102.377 157.359C104.482 157.359 105.943 156.242 105.943 154.66C105.943 153.43 105.158 152.668 103.557 152.297L102.17 151.98C101.213 151.75 100.795 151.43 100.803 150.836C100.795 150.168 101.525 149.688 102.49 149.688C103.545 149.688 104.033 150.273 104.232 150.859L105.775 150.586ZM113.178 153.563C113.182 155.047 112.08 155.75 111.127 155.75C110.072 155.75 109.346 154.992 109.346 153.805L109.346 148.457L107.646 148.457L107.646 154.008C107.646 156.172 108.834 157.297 110.51 157.297C111.822 157.297 112.717 156.605 113.119 155.672L113.209 155.672L113.209 157.184L114.881 157.184L114.881 148.457L113.178 148.457L113.178 153.563ZM120.674 157.359C122.736 157.359 124.072 156.121 124.259 154.422L122.607 154.422C122.392 155.367 121.658 155.922 120.685 155.922C119.248 155.922 118.322 154.723 118.322 152.82C118.322 150.949 119.267 149.773 120.685 149.773C121.767 149.773 122.424 150.457 122.607 151.273L124.259 151.273C124.08 149.512 122.642 148.344 120.658 148.344C118.197 148.344 116.607 150.195 116.607 152.859C116.607 155.492 118.142 157.359 120.674 157.359ZM129.599 157.359C131.661 157.359 132.997 156.121 133.185 154.422L131.532 154.422C131.317 155.367 130.583 155.922 129.61 155.922C128.173 155.922 127.247 154.723 127.247 152.82C127.247 150.949 128.192 149.773 129.61 149.773C130.692 149.773 131.349 150.457 131.532 151.273L133.185 151.273C133.005 149.512 131.567 148.344 129.583 148.344C127.122 148.344 125.532 150.195 125.532 152.859C125.532 155.492 127.067 157.359 129.599 157.359ZM138.61 157.359C140.516 157.359 141.86 156.422 142.247 155L140.641 154.711C140.333 155.535 139.594 155.957 138.629 155.957C137.172 155.957 136.196 155.012 136.149 153.332L142.356 153.332L142.356 152.73C142.356 149.574 140.469 148.344 138.493 148.344C136.059 148.344 134.458 150.195 134.458 152.875C134.458 155.586 136.036 157.359 138.61 157.359ZM136.157 152.059C136.223 150.82 137.122 149.746 138.504 149.746C139.821 149.746 140.684 150.723 140.692 152.059L136.157 152.059ZM150.629 150.586C150.273 149.23 149.211 148.344 147.324 148.344C145.355 148.344 143.957 149.383 143.957 150.93C143.957 152.168 144.707 152.992 146.344 153.355L147.82 153.68C148.66 153.867 149.055 154.242 149.055 154.785C149.055 155.461 148.332 155.992 147.219 155.992C146.199 155.992 145.547 155.555 145.344 154.695L143.699 154.945C143.984 156.492 145.27 157.359 147.23 157.359C149.336 157.359 150.797 156.242 150.797 154.66C150.797 153.43 150.012 152.668 148.41 152.297L147.023 151.98C146.066 151.75 145.648 151.43 145.656 150.836C145.648 150.168 146.379 149.688 147.344 149.688C148.398 149.688 148.887 150.273 149.086 150.859L150.629 150.586ZM159.043 150.586C158.687 149.23 157.625 148.344 155.738 148.344C153.769 148.344 152.371 149.383 152.371 150.93C152.371 152.168 153.121 152.992 154.758 153.355L156.234 153.68C157.074 153.867 157.469 154.242 157.469 154.785C157.469 155.461 156.746 155.992 155.633 155.992C154.613 155.992 153.961 155.555 153.758 154.695L152.113 154.945C152.398 156.492 153.683 157.359 155.644 157.359C157.75 157.359 159.211 156.242 159.211 154.66C159.211 153.43 158.426 152.668 156.824 152.297L155.437 151.98C154.48 151.75 154.062 151.43 154.07 150.836C154.062 150.168 154.793 149.688 155.758 149.688C156.812 149.688 157.301 150.273 157.5 150.859L159.043 150.586ZM162.035 157.293C162.652 157.293 163.171 156.785 163.171 156.156C163.171 155.535 162.652 155.023 162.035 155.023C161.41 155.023 160.898 155.535 160.898 156.156C160.898 156.785 161.41 157.293 162.035 157.293Z" fill="#000000" fill-opacity="0.800000" fill-rule="evenodd"/>
</svg>
