<svg version="1.2" xmlns="http://www.w3.org/2000/svg" viewBox="0 0 698 158" width="698" height="158">
	<title>star_1-svg</title>
	<style>
		.s0 { opacity: .5;fill: #ffffff } 
		.s1 { fill: #ffffff } 
	</style>
	<path id="Layer" class="s0" d="m211.1 140.6c0 1.2-2.4 2.2-5.8 2.7-1.7 0.3-3.1 1.6-3.4 3.4-0.5 3.4-1.5 5.7-2.6 5.7-1.2 0-2.1-2.3-2.7-5.7-0.3-1.8-1.6-3.1-3.4-3.4-3.4-0.5-5.7-1.5-5.7-2.7 0-1.1 2.3-2.1 5.7-2.6 1.8-0.3 3.1-1.6 3.4-3.4 0.6-3.4 1.5-5.7 2.7-5.7 1.1 0 2.1 2.3 2.6 5.7 0.3 1.8 1.7 3.1 3.4 3.4 3.4 0.5 5.8 1.5 5.8 2.6z"/>
	<path id="Layer" class="s1" d="m589-161c0 0.6-1.2 1.1-2.9 1.4-0.9 0.1-1.6 0.8-1.8 1.7-0.2 1.7-0.7 2.9-1.3 2.9-0.6 0-1.1-1.2-1.3-2.9-0.2-0.9-0.9-1.6-1.7-1.7-1.8-0.3-3-0.8-3-1.4 0-0.5 1.2-1 3-1.3 0.8-0.1 1.5-0.8 1.7-1.7 0.2-1.8 0.7-2.9 1.3-2.9 0.6 0 1.1 1.1 1.3 2.9 0.2 0.9 0.9 1.6 1.8 1.7 1.7 0.3 2.9 0.8 2.9 1.3z"/>
	<path id="Layer" class="s1" d="m99.5-425.2c0 1.1-2.3 2.1-5.8 2.7-1.7 0.2-3.1 1.6-3.4 3.3-0.5 3.5-1.5 5.8-2.6 5.8-1.1 0-2.1-2.3-2.7-5.8-0.2-1.7-1.6-3.1-3.3-3.3-3.5-0.6-5.8-1.6-5.8-2.7 0-1.1 2.3-2.1 5.8-2.6 1.7-0.3 3.1-1.7 3.3-3.4 0.6-3.5 1.6-5.8 2.7-5.8 1.1 0 2.1 2.3 2.6 5.8 0.3 1.7 1.7 3.1 3.4 3.4 3.5 0.5 5.8 1.5 5.8 2.6z"/>
	<path id="Layer" class="s1" d="m636.4-465.4c0 1.1-2.3 2.1-5.8 2.6-1.7 0.3-3.1 1.7-3.4 3.4-0.5 3.4-1.5 5.7-2.6 5.7-1.1 0-2.1-2.3-2.7-5.7-0.2-1.7-1.6-3.1-3.3-3.4-3.5-0.5-5.8-1.5-5.8-2.6 0-1.2 2.3-2.1 5.8-2.7 1.7-0.3 3.1-1.6 3.3-3.4 0.6-3.4 1.6-5.7 2.7-5.7 1.1 0 2.1 2.3 2.6 5.7 0.3 1.8 1.7 3.1 3.4 3.4 3.5 0.6 5.8 1.5 5.8 2.7z"/>
	<path id="Layer" class="s1" d="m35.9-189.6c0 1.2-2.4 2.1-5.8 2.7-1.7 0.2-3.1 1.6-3.4 3.3-0.5 3.5-1.5 5.8-2.6 5.8-1.2 0-2.1-2.3-2.7-5.8-0.3-1.7-1.6-3.1-3.4-3.3-3.4-0.6-5.7-1.6-5.7-2.7 0-1.1 2.3-2.1 5.7-2.6 1.8-0.3 3.1-1.7 3.4-3.4 0.6-3.5 1.5-5.8 2.7-5.8 1.1 0 2.1 2.3 2.6 5.8 0.3 1.7 1.7 3.1 3.4 3.4 3.4 0.5 5.8 1.5 5.8 2.6z"/>
	<path id="Layer" class="s0" d="m636.4 116.1c0 1.2-2.3 2.1-5.8 2.7-1.7 0.2-3.1 1.6-3.4 3.3-0.5 3.5-1.5 5.8-2.6 5.8-1.1 0-2.1-2.3-2.7-5.8-0.2-1.7-1.6-3.1-3.3-3.3-3.5-0.6-5.8-1.5-5.8-2.7 0-1.1 2.3-2.1 5.8-2.6 1.7-0.3 3.1-1.7 3.3-3.4 0.6-3.5 1.6-5.8 2.7-5.8 1.1 0 2.1 2.3 2.6 5.8 0.3 1.7 1.7 3.1 3.4 3.4 3.5 0.5 5.8 1.5 5.8 2.6z"/>
	<path id="Layer" class="s1" d="m697.3-46.6c0 0.7-1.4 1.3-3.5 1.7-1.1 0.1-1.9 1-2.1 2-0.3 2.1-0.9 3.5-1.6 3.5-0.7 0-1.3-1.4-1.6-3.5-0.2-1-1.1-1.9-2.1-2-2.1-0.4-3.5-1-3.5-1.7 0-0.7 1.4-1.3 3.5-1.6 1-0.2 1.9-1 2.1-2.1 0.3-2.1 0.9-3.5 1.6-3.5 0.7 0 1.3 1.4 1.6 3.5 0.2 1.1 1 1.9 2.1 2.1 2.1 0.3 3.5 0.9 3.5 1.6z"/>
	<path id="Layer" class="s1" d="m19.5-8.5c0 0.7-1.4 1.3-3.5 1.6-1.1 0.2-1.9 1-2.1 2.1-0.3 2.1-0.9 3.5-1.6 3.5-0.7 0-1.3-1.4-1.6-3.5-0.2-1.1-1-1.9-2.1-2.1-2.1-0.3-3.5-0.9-3.5-1.6 0-0.7 1.4-1.3 3.5-1.6 1.1-0.2 1.9-1 2.1-2.1 0.3-2.1 0.9-3.5 1.6-3.5 0.7 0 1.3 1.4 1.6 3.5 0.2 1.1 1 1.9 2.1 2.1 2.1 0.3 3.5 0.9 3.5 1.6z"/>
	<path id="Layer" class="s1" d="m549.5-300.8c0 0.7-1.4 1.3-3.5 1.6-1.1 0.2-1.9 1-2.1 2.1-0.3 2.1-0.9 3.5-1.6 3.5-0.7 0-1.3-1.4-1.6-3.5-0.2-1.1-1-1.9-2.1-2.1-2.1-0.3-3.5-0.9-3.5-1.6 0-0.7 1.4-1.3 3.5-1.6 1.1-0.2 1.9-1.1 2.1-2.1 0.3-2.1 0.9-3.5 1.6-3.5 0.7 0 1.3 1.4 1.6 3.5 0.2 1 1 1.9 2.1 2.1 2.1 0.3 3.5 0.9 3.5 1.6z"/>
	<path id="Layer" class="s1" d="m50.3 123.1c0 0.7-1.4 1.3-3.5 1.6-1.1 0.2-1.9 1-2.1 2.1-0.3 2.1-0.9 3.5-1.6 3.5-0.7 0-1.3-1.4-1.6-3.5-0.2-1.1-1.1-2-2.1-2.1-2.1-0.3-3.5-0.9-3.5-1.6 0-0.7 1.4-1.3 3.5-1.7 1-0.1 1.9-1 2.1-2 0.3-2.1 0.9-3.5 1.6-3.5 0.7 0 1.3 1.4 1.6 3.5 0.2 1 1 1.9 2.1 2 2.1 0.4 3.5 1 3.5 1.7z"/>
	<path id="Layer" class="s1" d="m542.3-551.8c0 0.7-1.4 1.3-3.5 1.6-1.1 0.2-1.9 1-2.1 2.1-0.3 2.1-0.9 3.5-1.6 3.5-0.7 0-1.3-1.4-1.6-3.5-0.2-1.1-1.1-1.9-2.1-2.1-2.1-0.3-3.5-0.9-3.5-1.6 0-0.7 1.4-1.3 3.5-1.6 1-0.2 1.9-1 2.1-2.1 0.3-2.1 0.9-3.5 1.6-3.5 0.7 0 1.3 1.4 1.6 3.5 0.2 1.1 1 1.9 2.1 2.1 2.1 0.3 3.5 0.9 3.5 1.6z"/>
	<path id="Layer" class="s1" d="m104.5 34.6c2.8 0 5.1-2.2 5.1-5 0-2.8-2.3-5.1-5.1-5.1-2.8 0-5 2.3-5 5.1 0 2.8 2.2 5 5 5z"/>
	<path id="Layer" class="s1" d="m220.1-322.5c0-2.8-2.3-5-5.1-5-2.8-0.1-5.1 2.2-5.1 5 0 2.8 2.3 5.1 5.1 5.1 2.8 0 5.1-2.3 5.1-5.1z"/>
	<path id="Layer" class="s1" d="m10.1-334.5c2.8 0 5.1-2.3 5.1-5.1 0-2.7-2.3-5-5.1-5-2.8 0-5 2.3-5 5 0 2.8 2.2 5.1 5 5.1z"/>
	<path id="Layer" class="s1" d="m129.8-146.9c2.8 0 5.1-2.3 5.1-5 0-2.8-2.3-5.1-5.1-5.1-2.8 0-5 2.3-5 5.1 0 2.7 2.2 5 5 5z"/>
	<path id="Layer" class="s1" d="m134.9-280.5c2.8 0 5-2.2 5-5 0-2.8-2.2-5.1-5-5.1-2.8 0-5.1 2.3-5.1 5.1 0 2.8 2.3 5 5.1 5z"/>
	<path id="Layer" class="s1" d="m5.1-497.4c2.8 0 5-2.3 5-5.1 0-2.8-2.2-5-5-5-2.8 0-5.1 2.2-5.1 5 0 2.8 2.3 5.1 5.1 5.1z"/>
	<path id="Layer" class="s1" d="m449.5 157.5c2.8 0 5-2.3 5-5.1 0-2.8-2.2-5-5-5-2.8 0-5.1 2.2-5.1 5 0 2.8 2.3 5.1 5.1 5.1z"/>
	<path id="Layer" class="s1" d="m669.2-312.9c2.8 0 5.1-2.3 5.1-5.1 0-2.8-2.3-5.1-5.1-5.1-2.8 0-5.1 2.3-5.1 5.1 0 2.8 2.3 5.1 5.1 5.1z"/>
	<path id="Layer" class="s1" d="m162.9-513.5c2.8 0 5.1-2.2 5.1-5 0-2.8-2.3-5.1-5.1-5.1-2.7 0-5 2.3-5 5.1 0 2.8 2.3 5 5 5z"/>
</svg>