<svg width="636.000000" height="665.000000" viewBox="0 0 636 665" fill="none" xmlns="http://www.w3.org/2000/svg" xmlns:xlink="http://www.w3.org/1999/xlink">
	<desc>
			Created with Pixso.
	</desc>
	<defs/>
	<path id="Vector" d="M547.825 374.848C547.825 375.892 545.721 376.801 542.577 377.302C540.99 377.555 539.741 378.825 539.491 380.438C538.999 383.633 538.103 385.773 537.077 385.773C536.05 385.773 535.154 383.635 534.662 380.438C534.414 378.825 533.164 377.555 531.576 377.302C528.43 376.801 526.322 375.89 526.322 374.848C526.322 373.805 528.43 372.887 531.572 372.389C533.161 372.138 534.412 370.866 534.662 369.25C535.154 366.051 536.05 363.913 537.077 363.913C538.103 363.913 538.999 366.051 539.491 369.25C539.739 370.866 540.992 372.136 542.582 372.389C545.723 372.887 547.825 373.796 547.825 374.848Z" fill="#FFFFFF" fill-opacity="1.000000" fill-rule="nonzero"/>
	<path id="Vector" d="M90.7295 124.206C90.7295 125.25 88.6255 126.16 85.4819 126.661C83.8945 126.913 82.646 128.184 82.3955 129.796C81.9033 132.991 81.0078 135.132 79.9814 135.132C78.9551 135.132 78.0591 132.993 77.5669 129.796C77.3188 128.184 76.0684 126.913 74.481 126.661C71.335 126.16 69.2266 125.249 69.2266 124.206C69.2266 123.164 71.335 122.246 74.4766 121.747C76.0659 121.497 77.3164 120.224 77.5669 118.609C78.0591 115.41 78.9551 113.271 79.9814 113.271C81.0078 113.271 81.9033 115.41 82.3955 118.609C82.644 120.224 83.8965 121.494 85.4863 121.747C88.6279 122.246 90.7295 123.155 90.7295 124.206Z" fill="#FFFFFF" fill-opacity="1.000000" fill-rule="nonzero"/>
	<path id="Vector" d="M580.435 86.8438C580.435 87.8882 578.331 88.7974 575.187 89.2983C573.6 89.5508 572.351 90.8213 572.101 92.4341C571.608 95.6289 570.713 97.7695 569.687 97.7695C568.66 97.7695 567.764 95.6309 567.272 92.4341C567.024 90.8213 565.773 89.5508 564.186 89.2983C561.04 88.7974 558.932 87.8862 558.932 86.8438C558.932 85.8013 561.04 84.8833 564.182 84.3848C565.771 84.1343 567.021 82.8618 567.272 81.2466C567.764 78.0474 568.66 75.9087 569.687 75.9087C570.713 75.9087 571.608 78.0474 572.101 81.2466C572.349 82.8618 573.602 84.1318 575.191 84.3848C578.333 84.8833 580.435 85.7925 580.435 86.8438Z" fill="#FFFFFF" fill-opacity="1.000000" fill-rule="nonzero"/>
	<path id="Vector" d="M32.7012 342.884C32.7012 343.929 30.5972 344.838 27.4534 345.339C25.866 345.591 24.6179 346.862 24.3674 348.475C23.8752 351.669 22.9795 353.81 21.9531 353.81C20.9265 353.81 20.0308 351.671 19.5386 348.475C19.2903 346.862 18.04 345.591 16.4526 345.339C13.3066 344.838 11.1982 343.927 11.1982 342.884C11.1982 341.842 13.3066 340.924 16.4482 340.425C18.0378 340.175 19.2881 338.902 19.5386 337.287C20.0308 334.088 20.9265 331.949 21.9531 331.949C22.9795 331.949 23.8752 334.088 24.3674 337.287C24.6157 338.902 25.8684 340.172 27.458 340.425C30.5994 340.924 32.7012 341.833 32.7012 342.884Z" fill="#FFFFFF" fill-opacity="1.000000" fill-rule="nonzero"/>
	<path id="Vector" d="M636 475.617C636 476.255 634.712 476.812 632.788 477.119C631.816 477.275 631.052 478.051 630.899 479.039C630.597 480.995 630.05 482.306 629.42 482.306C628.791 482.306 628.243 480.995 627.941 479.039C627.788 478.051 627.023 477.273 626.052 477.119C624.126 476.812 622.835 476.255 622.835 475.617C622.835 474.979 624.126 474.417 626.05 474.112C627.023 473.958 627.791 473.18 627.941 472.19C628.243 470.231 628.791 468.921 629.42 468.921C630.05 468.921 630.597 470.231 630.899 472.19C631.052 473.178 631.816 473.957 632.79 474.112C634.712 474.417 636 474.974 636 475.617Z" fill="#FFFFFF" fill-opacity="1.000000" fill-rule="nonzero"/>
	<path id="Vector" d="M501.207 239.625C501.207 240.264 499.919 240.821 497.995 241.128C497.023 241.284 496.259 242.06 496.106 243.048C495.804 245.004 495.257 246.315 494.627 246.315C493.998 246.315 493.45 245.004 493.148 243.048C492.995 242.06 492.23 241.282 491.259 241.128C489.333 240.821 488.042 240.264 488.042 239.625C488.042 238.987 489.333 238.425 491.257 238.121C492.23 237.967 492.998 237.189 493.148 236.199C493.45 234.24 493.998 232.93 494.627 232.93C495.257 232.93 495.804 234.24 496.106 236.199C496.259 237.187 497.023 237.965 497.997 238.121C499.919 238.425 501.207 238.982 501.207 239.625Z" fill="#FFFFFF" fill-opacity="1.000000" fill-rule="nonzero"/>
	<path id="Vector" d="M494.625 6.6958C494.625 7.33447 493.336 7.8916 491.412 8.19824C490.441 8.354 489.676 9.13037 489.523 10.1182C489.222 12.0742 488.674 13.3853 488.044 13.3853C487.415 13.3853 486.867 12.0742 486.566 10.1182C486.413 9.13037 485.648 8.35205 484.677 8.19824C482.75 7.8916 481.46 7.33447 481.46 6.6958C481.46 6.05762 482.75 5.49561 484.675 5.19092C485.648 5.0376 486.415 4.25928 486.566 3.26904C486.867 1.31055 487.415 0 488.044 0C488.674 0 489.222 1.31055 489.523 3.26904C489.676 4.25732 490.441 5.03564 491.415 5.19092C493.336 5.49561 494.625 6.05273 494.625 6.6958Z" fill="#FFFFFF" fill-opacity="1.000000" fill-rule="nonzero"/>
	<path id="Vector" d="M530.938 497.339C530.938 499.931 528.871 502.032 526.322 502.032C523.772 502.032 521.706 499.931 521.706 497.339C521.706 494.748 523.772 492.647 526.322 492.647C528.871 492.647 530.938 494.748 530.938 497.339Z" fill="#FFFFFF" fill-opacity="1.000000" fill-rule="evenodd"/>
	<path id="Vector" d="M196.102 214.822C198.651 214.825 200.716 216.928 200.713 219.52C200.71 222.111 198.642 224.21 196.092 224.207C193.543 224.205 191.479 222.101 191.481 219.51C191.484 216.918 193.553 214.819 196.102 214.822Z" fill="#FFFFFF" fill-opacity="1.000000" fill-rule="evenodd"/>
	<path id="Vector" d="M13.8474 203.682C13.8474 206.273 11.7808 208.375 9.23145 208.375C6.68237 208.375 4.61572 206.273 4.61572 203.682C4.61572 201.09 6.68237 198.989 9.23145 198.989C11.7808 198.989 13.8474 201.09 13.8474 203.682Z" fill="#FFFFFF" fill-opacity="1.000000" fill-rule="evenodd"/>
	<path id="Vector" d="M123.021 377.81C123.021 380.402 120.954 382.503 118.405 382.503C115.855 382.503 113.789 380.402 113.789 377.81C113.789 375.219 115.855 373.118 118.405 373.118C120.954 373.118 123.021 375.219 123.021 377.81Z" fill="#FFFFFF" fill-opacity="1.000000" fill-rule="evenodd"/>
	<path id="Vector" d="M127.637 253.836C127.637 256.428 125.57 258.529 123.021 258.529C120.471 258.529 118.405 256.428 118.405 253.836C118.405 251.245 120.471 249.144 123.021 249.144C125.57 249.144 127.637 251.245 127.637 253.836Z" fill="#FFFFFF" fill-opacity="1.000000" fill-rule="evenodd"/>
	<path id="Vector" d="M9.23169 52.4526C9.23169 55.0444 7.16504 57.1455 4.61572 57.1455C2.06665 57.1455 0 55.0444 0 52.4526C0 49.8613 2.06665 47.7603 4.61572 47.7603C7.16504 47.7603 9.23169 49.8613 9.23169 52.4526Z" fill="#FFFFFF" fill-opacity="1.000000" fill-rule="evenodd"/>
	<path id="Vector" d="M614.987 223.682C614.987 226.273 612.92 228.375 610.371 228.375C607.822 228.375 605.755 226.273 605.755 223.682C605.755 221.09 607.822 218.989 610.371 218.989C612.92 218.989 614.987 221.09 614.987 223.682Z" fill="#FFFFFF" fill-opacity="1.000000" fill-rule="evenodd"/>
	<path id="Vector" d="M153.243 37.5537C153.243 40.1455 151.176 42.2466 148.627 42.2466C146.078 42.2466 144.011 40.1455 144.011 37.5537C144.011 34.9624 146.078 32.8613 148.627 32.8613C151.176 32.8613 153.243 34.9624 153.243 37.5537Z" fill="#FFFFFF" fill-opacity="1.000000" fill-rule="evenodd"/>
</svg>
