<svg width="180" height="17" viewBox="0 0 180 17" fill="none" xmlns="http://www.w3.org/2000/svg">
<g clip-path="url(#clip0_532_1134)">
<path fill-rule="evenodd" clip-rule="evenodd" d="M0 0.348452H6.47473C10.076 0.348452 11.9591 2.34878 11.9591 4.80528C11.9591 6.50103 11.069 7.65278 9.83473 8.26195V8.30587C11.4132 8.91504 12.3033 10.2623 12.3033 11.9793C12.3033 14.4358 10.5429 16.5877 6.73846 16.5877H0V0.348452ZM6.27297 6.78295C7.34506 6.78295 7.83165 6.19645 7.83165 5.54337C7.83165 4.89029 7.34637 4.28254 6.27297 4.28254H4.37143V6.78295H6.27297ZM6.33363 12.6522C7.46637 12.6522 8.01363 12.0657 8.01363 11.305C8.01363 10.5442 7.44659 9.9577 6.35473 9.9577H4.37143V12.6536H6.33363V12.6522ZM13.233 9.97895V0.348452H17.644V9.93503C17.644 11.7399 18.4734 12.6961 19.8897 12.6961C21.3059 12.6961 22.196 11.7399 22.196 9.91379V0.348452H26.6281V9.97895C26.6281 14.066 24.0791 17.0014 19.8897 17.0014C15.7002 17.0014 13.2316 14.066 13.2316 9.97895H13.233ZM37.8593 1.13045V5.30395C36.9086 4.58712 35.2892 4.08704 33.9745 4.08704C32.7811 4.08704 32.1732 4.5007 32.1732 5.04328C32.1732 5.58587 32.8404 5.8692 34.0352 6.32537C36.0593 7.08612 38.8101 8.10754 38.8101 11.5642C38.8101 14.6511 36.6448 16.9334 32.8404 16.9334C30.8782 16.9334 29.0769 16.3242 27.964 15.521V11.1293C29.0571 12.0855 30.716 12.8463 32.3143 12.8463C33.6699 12.8463 34.2976 12.3023 34.2976 11.6945C34.2976 10.9125 33.2651 10.564 32.0308 10.0852C30.4114 9.45479 27.8426 8.32428 27.8426 5.1722C27.8426 2.3247 29.9275 -0.00146484 33.6501 -0.00146484C35.2892 -0.00146484 36.7662 0.454702 37.8593 1.12904V1.13045ZM39.9429 0.348452H44.3538V16.5877H39.9429V0.348452ZM60.0369 16.5877H55.8277L50.3842 7.87095H50.3644V16.5877H46.1763V0.348452H50.3855L55.829 8.91362H55.8488V0.348452H60.0369V16.5877ZM61.858 0.348452H72.2993V4.56587H66.269V6.52228H71.6914V10.3487H66.269V12.3703H72.2993V16.5877H61.858V0.348452ZM83.3684 1.13045V5.30395C82.4176 4.58712 80.7982 4.08704 79.4835 4.08704C78.2901 4.08704 77.6822 4.5007 77.6822 5.04328C77.6822 5.58587 78.3495 5.8692 79.5442 6.32537C81.5684 7.08612 84.3191 8.10754 84.3191 11.5642C84.3191 14.6511 82.1539 16.9334 78.3495 16.9334C76.3873 16.9334 74.5859 16.3242 73.473 15.521V11.1293C74.5662 12.0855 76.2251 12.8463 77.8233 12.8463C79.1789 12.8463 79.8066 12.3023 79.8066 11.6945C79.8066 10.9125 78.7741 10.564 77.5398 10.0852C75.9204 9.45479 73.3517 8.32428 73.3517 5.1722C73.3517 2.3247 75.4365 -0.00146484 79.1591 -0.00146484C80.7982 -0.00146484 82.2752 0.454702 83.3684 1.12904V1.13045ZM95.044 1.13045V5.30395C94.0932 4.58712 92.4738 4.08704 91.1591 4.08704C89.9657 4.08704 89.3578 4.5007 89.3578 5.04328C89.3578 5.58587 90.0251 5.8692 91.2198 6.32537C93.244 7.08612 95.9947 8.10754 95.9947 11.5642C95.9947 14.6511 93.8295 16.9334 90.0251 16.9334C88.0629 16.9334 86.2615 16.3242 85.1486 15.521V11.1293C86.2418 12.0855 87.9007 12.8463 89.4989 12.8463C90.8545 12.8463 91.4822 12.3023 91.4822 11.6945C91.4822 10.9125 90.4497 10.564 89.2154 10.0852C87.596 9.45479 85.0273 8.32428 85.0273 5.1722C85.0273 2.3247 87.1121 -0.00146484 90.8347 -0.00146484C92.4739 -0.00146484 93.9508 0.454702 95.044 1.12904V1.13045ZM101.106 16.6189H105.517V0.381035H101.106V16.6203V16.6189ZM121.197 0.381035H117.009V8.9462H116.989L111.546 0.381035H107.337V16.6203H111.525V7.90353H111.545L116.988 16.6203H121.197V0.381035ZM128.297 0.0325352C124.573 0.0325352 122.49 2.3587 122.49 5.2062C122.49 8.35828 125.06 9.48879 126.678 10.1192C127.912 10.598 128.945 10.9451 128.945 11.7285C128.945 12.3377 128.317 12.8803 126.961 12.8803C125.363 12.8803 123.703 12.1195 122.611 11.1633V15.555C123.724 16.3596 125.525 16.9674 127.487 16.9674C131.292 16.9674 133.457 14.6851 133.457 11.5982C133.457 8.14154 130.705 7.12012 128.682 6.35937C127.489 5.9032 126.82 5.64253 126.82 5.07728C126.82 4.51203 127.427 4.12104 128.622 4.12104C129.936 4.12104 131.556 4.62112 132.506 5.33795V1.16304C131.413 0.488702 129.936 0.0325352 128.297 0.0325352ZM134.487 16.6189H138.898V0.381035H134.487V16.6203V16.6189ZM145.13 12.3363H145.981C148.267 12.3363 149.744 10.9451 149.744 8.50987C149.744 6.07462 148.267 4.6622 145.981 4.6622H145.13V12.3363ZM154.196 8.50987C154.196 13.4016 150.756 16.6189 145.818 16.6189H140.719V0.381035H145.818C150.756 0.381035 154.196 3.61954 154.196 8.51128V8.50987ZM155.392 16.6189H165.833V12.4015H159.803V10.3799H165.225V6.55345H159.803V4.59703H165.833V0.381035H155.392V16.6203V16.6189ZM172.776 8.0537C173.889 8.0537 174.76 7.48845 174.76 6.35795C174.76 5.22745 173.889 4.6622 172.756 4.6622H171.826V8.0537H172.776ZM180 16.6189H174.799L171.926 11.5968H171.824V16.6189H167.413V0.381035H172.796C176.581 0.381035 179.21 2.18587 179.21 6.03354C179.21 7.55503 178.582 9.77212 176.073 10.9026L179.999 16.6203L180 16.6189Z" fill="black" fill-opacity="0.8"/>
</g>
<defs>
<clipPath id="clip0_532_1134">
<rect width="180" height="17" fill="white"/>
</clipPath>
</defs>
</svg>
