<svg width="148" height="33" viewBox="0 0 148 33" fill="none" xmlns="http://www.w3.org/2000/svg">
<g clip-path="url(#clip0_532_1142)">
<path fill-rule="evenodd" clip-rule="evenodd" d="M16.5797 24.6545C15.5284 24.8058 14.5826 24.0355 14.5826 23.0304H14.5803V1.64311C14.5803 0.638025 15.5284 -0.132289 16.5774 0.0195105C22.9021 0.928896 27.75 6.09952 27.75 12.3375C27.75 18.5754 22.9044 23.7446 16.5797 24.6545ZM1.7834 33.0002H9.50437C10.489 33.0002 11.2882 32.2742 11.2882 31.3761V9.9511C11.2882 9.05491 10.489 8.32702 9.50437 8.32702H1.78386C0.7992 8.32702 0 9.05491 0 9.9511V31.3761C0 32.2723 0.7992 33.0002 1.7834 33.0002Z" fill="black" fill-opacity="0.8"/>
<path d="M51.9513 6.99597H45.0355C44.9128 6.99597 44.7952 7.04564 44.7085 7.13405C44.6217 7.22246 44.573 7.34237 44.573 7.4674V25.5325C44.573 25.6576 44.6217 25.7775 44.7085 25.8659C44.7952 25.9543 44.9128 26.004 45.0355 26.004H48.2522C48.3748 26.004 48.4925 25.9543 48.5792 25.8659C48.666 25.7775 48.7147 25.6576 48.7147 25.5325V20.5566C48.7147 20.4316 48.7634 20.3117 48.8501 20.2233C48.9369 20.1349 49.0545 20.0852 49.1772 20.0852H51.9513C55.8187 20.0852 58.7264 17.2882 58.7264 13.5408C58.7264 9.79343 55.7914 6.99691 51.9513 6.99691V6.99597ZM51.7593 16.2831H49.1772C49.0545 16.2831 48.9369 16.2334 48.8501 16.145C48.7634 16.0566 48.7147 15.9367 48.7147 15.8117V11.2963C48.7147 11.1713 48.7634 11.0514 48.8501 10.963C48.9369 10.8746 49.0545 10.8249 49.1772 10.8249H51.7593C53.4049 10.8249 54.5297 11.9658 54.5297 13.5403C54.5297 15.1154 53.4049 16.2831 51.7593 16.2831ZM74.9435 25.7013C74.977 25.7905 75.0362 25.8672 75.1133 25.9213C75.1904 25.9754 75.2819 26.0044 75.3755 26.0044H78.8896C78.9657 26.0044 79.0407 25.9853 79.1079 25.9487C79.175 25.912 79.2322 25.8591 79.2745 25.7945C79.3167 25.7299 79.3426 25.6556 79.35 25.5783C79.3573 25.5011 79.3458 25.4232 79.3165 25.3515L71.9391 7.28637C71.904 7.2005 71.8447 7.12715 71.7687 7.07555C71.6928 7.02396 71.6035 6.99644 71.5122 6.99644H68.21C68.1179 6.99645 68.0278 7.02449 67.9514 7.07699C67.8751 7.12948 67.8158 7.20403 67.7812 7.29109L60.6125 25.3562C60.5841 25.4278 60.5734 25.5054 60.5813 25.5821C60.5892 25.6589 60.6154 25.7325 60.6578 25.7965C60.7001 25.8606 60.7572 25.913 60.8241 25.9492C60.8909 25.9855 60.9655 26.0044 61.0412 26.0044H64.4508C64.545 26.0044 64.6369 25.975 64.7143 25.9202C64.7916 25.8655 64.8507 25.7879 64.8837 25.698L65.9756 22.7261C66.0086 22.6362 66.0677 22.5587 66.1451 22.5039C66.2224 22.4492 66.3144 22.4198 66.4085 22.4197H73.3951C73.4887 22.4197 73.5802 22.4487 73.6573 22.5028C73.7344 22.5569 73.7936 22.6337 73.8271 22.7228L74.9435 25.7013ZM69.468 13.1887C69.6183 12.7818 70.1826 12.7818 70.3333 13.1887L72.1879 18.1976C72.2144 18.2689 72.2234 18.3458 72.2143 18.4215C72.2052 18.4972 72.1781 18.5695 72.1356 18.6322C72.093 18.6949 72.0361 18.7462 71.9699 18.7816C71.9036 18.817 71.8299 18.8355 71.755 18.8354H68.0458C67.971 18.8354 67.8974 18.8168 67.8311 18.7814C67.7649 18.746 67.7081 18.6947 67.6656 18.632C67.6231 18.5693 67.5961 18.497 67.587 18.4214C67.5779 18.3457 67.587 18.2689 67.6134 18.1976L69.468 13.1887ZM88.8167 22.2028C88.694 22.2028 88.5764 22.1532 88.4896 22.0648C88.4029 21.9764 88.3542 21.8564 88.3542 21.7314V7.4674C88.3542 7.34237 88.3054 7.22246 88.2187 7.13405C88.132 7.04564 88.0143 6.99597 87.8917 6.99597H84.675C84.5523 6.99597 84.4347 7.04564 84.3479 7.13405C84.2612 7.22246 84.2125 7.34237 84.2125 7.4674V25.5325C84.2125 25.6576 84.2612 25.7775 84.3479 25.8659C84.4347 25.9543 84.5523 26.004 84.675 26.004H95.2704C95.3931 26.004 95.5107 25.9543 95.5974 25.8659C95.6842 25.7775 95.7329 25.6576 95.7329 25.5325V22.6738C95.7329 22.5488 95.6842 22.4289 95.5974 22.3405C95.5107 22.252 95.3931 22.2024 95.2704 22.2024L88.8167 22.2028ZM105.342 22.2028C105.219 22.2028 105.102 22.1532 105.015 22.0648C104.928 21.9764 104.879 21.8564 104.879 21.7314V7.4674C104.879 7.34237 104.831 7.22246 104.744 7.13405C104.657 7.04564 104.539 6.99597 104.417 6.99597H101.2C101.077 6.99597 100.96 7.04564 100.873 7.13405C100.786 7.22246 100.738 7.34237 100.738 7.4674V25.5325C100.738 25.6576 100.786 25.7775 100.873 25.8659C100.96 25.9543 101.077 26.004 101.2 26.004H111.796C111.918 26.004 112.036 25.9543 112.123 25.8659C112.209 25.7775 112.258 25.6576 112.258 25.5325V22.6738C112.258 22.5488 112.209 22.4289 112.123 22.3405C112.036 22.252 111.918 22.2024 111.796 22.2024L105.342 22.2028ZM121.867 22.2028C121.744 22.2028 121.627 22.1532 121.54 22.0648C121.453 21.9764 121.404 21.8564 121.404 21.7314V18.7638C121.404 18.6387 121.453 18.5188 121.54 18.4304C121.627 18.342 121.744 18.2923 121.867 18.2923H127.607C127.73 18.2923 127.848 18.2427 127.935 18.1543C128.021 18.0659 128.07 17.9459 128.07 17.8209V15.0437C128.07 14.9187 128.021 14.7988 127.935 14.7104C127.848 14.622 127.73 14.5723 127.607 14.5723H121.867C121.744 14.5723 121.627 14.5226 121.54 14.4342C121.453 14.3458 121.404 14.2259 121.404 14.1009V11.2695C121.404 11.1444 121.453 11.0245 121.54 10.9361C121.627 10.8477 121.744 10.798 121.867 10.798H128.321C128.443 10.798 128.561 10.7484 128.648 10.66C128.734 10.5716 128.783 10.4516 128.783 10.3266V7.4674C128.783 7.34237 128.734 7.22246 128.648 7.13405C128.561 7.04564 128.443 6.99597 128.321 6.99597H117.725C117.603 6.99597 117.485 7.04564 117.398 7.13405C117.311 7.22246 117.263 7.34237 117.263 7.4674V25.5325C117.263 25.6576 117.311 25.7775 117.398 25.8659C117.485 25.9543 117.603 26.004 117.725 26.004H128.622C128.745 26.004 128.863 25.9543 128.949 25.8659C129.036 25.7775 129.085 25.6576 129.085 25.5325V22.6738C129.085 22.5488 129.036 22.4289 128.949 22.3405C128.863 22.252 128.745 22.2024 128.622 22.2024L121.867 22.2028ZM148 7.4674C148 7.34237 147.951 7.22246 147.865 7.13405C147.778 7.04564 147.66 6.99597 147.538 6.99597H133.623C133.501 6.99597 133.383 7.04564 133.296 7.13405C133.209 7.22246 133.161 7.34237 133.161 7.4674V10.3535C133.161 10.4785 133.209 10.5984 133.296 10.6868C133.383 10.7752 133.501 10.8249 133.623 10.8249H138.047C138.17 10.8249 138.287 10.8746 138.374 10.963C138.461 11.0514 138.51 11.1713 138.51 11.2963V25.533C138.51 25.658 138.558 25.778 138.645 25.8664C138.732 25.9548 138.849 26.0044 138.972 26.0044H142.189C142.311 26.0044 142.429 25.9548 142.516 25.8664C142.602 25.778 142.651 25.658 142.651 25.533V11.2963C142.651 11.1713 142.7 11.0514 142.787 10.963C142.873 10.8746 142.991 10.8249 143.114 10.8249H147.538C147.66 10.8249 147.778 10.7752 147.865 10.6868C147.951 10.5984 148 10.4785 148 10.3535V7.4674Z" fill="black" fill-opacity="0.8"/>
</g>
<defs>
<clipPath id="clip0_532_1142">
<rect width="148" height="33" fill="white"/>
</clipPath>
</defs>
</svg>
