<svg width="196" height="26" viewBox="0 0 196 26" fill="none" xmlns="http://www.w3.org/2000/svg">
<path d="M10.6045 13.5423L21.2089 24.9173H0L10.6045 13.5423Z" fill="black" fill-opacity="0.8"/>
<path d="M0 2.1673L10.6045 13.5423L21.2089 2.1673H0Z" fill="black" fill-opacity="0.8"/>
<path d="M10.6062 13.5423L21.2107 24.9173L31.8151 13.5423L21.2107 2.1673L10.6062 13.5423Z" fill="black" fill-opacity="0.8"/>
<path d="M191.913 7.55857C191.913 7.72386 191.703 7.79629 191.605 7.67C190.829 6.68757 189.547 5.94286 187.794 5.94286C183.998 5.94286 181.84 9.282 181.84 13.325C181.84 17.342 183.998 20.6793 187.794 20.6793C189.571 20.6793 190.96 20.0014 191.823 18.8314C191.92 18.7014 192.136 18.772 192.136 18.9391V20.189C192.136 20.2819 192.204 20.3561 192.288 20.3561H194.712C194.797 20.3561 194.865 20.2819 194.865 20.189V0.167143C194.865 0.122814 194.849 0.0803004 194.82 0.048955C194.791 0.0176096 194.752 0 194.712 0L192.065 0C192.024 0.00048899 191.986 0.0183143 191.957 0.0496068C191.929 0.0808993 191.913 0.123134 191.913 0.167143V7.55857ZM192.036 13.325C192.036 15.8507 190.672 17.8304 188.414 17.8304C186.181 17.8304 184.792 15.8489 184.792 13.325C184.792 10.7473 186.181 8.79357 188.414 8.79357C190.672 8.79357 192.036 10.7473 192.036 13.325ZM181.104 6.31429C181.104 6.27261 181.09 6.23243 181.064 6.20178C181.038 6.17113 181.002 6.15228 180.964 6.149C180.87 6.14111 180.776 6.13615 180.681 6.13414C178.858 6.13414 177.796 6.93086 177.211 7.71086C177.113 7.84086 176.886 7.77029 176.886 7.59943V6.435C176.886 6.39099 176.87 6.34876 176.842 6.31746C176.813 6.28617 176.775 6.26835 176.734 6.26786H174.309C174.268 6.26835 174.23 6.28617 174.201 6.31746C174.173 6.34876 174.157 6.39099 174.157 6.435V20.189C174.157 20.2819 174.225 20.3561 174.309 20.3561H176.957C176.998 20.3557 177.036 20.3378 177.065 20.3065C177.093 20.2752 177.109 20.233 177.109 20.189V13.0279C177.109 10.3127 178.35 9.11857 180.434 9.11857C180.612 9.11857 180.799 9.13714 180.929 9.15014C180.95 9.15272 180.972 9.15035 180.993 9.14318C181.014 9.13601 181.033 9.1242 181.05 9.10849C181.066 9.09279 181.08 9.07353 181.089 9.05193C181.098 9.03033 181.104 9.00686 181.104 8.983V6.31429ZM168.603 13.7614C168.624 13.758 168.647 13.7596 168.668 13.7664C168.689 13.7731 168.708 13.7847 168.725 13.8003C168.742 13.816 168.755 13.8354 168.764 13.8572C168.773 13.879 168.778 13.9027 168.778 13.9267V14.6287C168.778 16.5286 167.612 18.1573 165.23 18.1573C163.815 18.1573 162.946 17.641 162.946 16.3113C162.946 15.3344 163.542 14.6027 165.354 14.3019L168.603 13.7614ZM164.635 20.6811C166.471 20.6811 167.851 20.098 168.746 18.954C168.843 18.8277 169.056 18.8983 169.063 19.0654C169.099 19.8733 169.204 20.3543 169.225 20.3543H171.797C171.906 20.3543 171.982 20.2317 171.948 20.1184C171.769 19.5019 171.655 18.5027 171.655 17.6949V11.2079C171.655 7.97829 169.869 5.94286 166.099 5.94286C162.3 5.94286 160.744 8.112 160.437 10.5096C160.435 10.5326 160.437 10.556 160.443 10.5781C160.45 10.6002 160.46 10.6206 160.475 10.638C160.489 10.6553 160.506 10.6692 160.525 10.6788C160.545 10.6883 160.566 10.6933 160.587 10.6934H163.166C163.241 10.6934 163.302 10.634 163.319 10.5541C163.56 9.334 164.47 8.60414 166.024 8.60414C167.785 8.60414 168.778 9.47143 168.778 11.1819V11.2543C168.778 11.2944 168.765 11.3332 168.741 11.3635C168.717 11.3939 168.683 11.4138 168.647 11.4196L165.056 11.9693C161.657 12.4837 160.12 14.0307 160.12 16.419C160.12 18.8333 161.434 20.6811 164.635 20.6811ZM152.306 20.6811C156.423 20.6811 159.004 17.2881 159.004 13.3269C159.004 9.36371 156.423 5.94286 152.306 5.94286C148.212 5.94286 145.633 9.36371 145.633 13.325C145.633 17.2881 148.212 20.6811 152.306 20.6811ZM148.585 13.3269C148.585 10.5839 150.172 8.79357 152.306 8.79357C154.465 8.79357 156.052 10.5839 156.052 13.325C156.052 16.0401 154.465 17.8304 152.306 17.8304C150.172 17.8304 148.585 16.042 148.585 13.3269ZM134.761 7.67C134.662 7.79629 134.454 7.72386 134.454 7.55857V0.167143C134.454 0.122814 134.438 0.0803004 134.409 0.048955C134.381 0.0176096 134.342 0 134.301 0L131.654 0C131.613 0 131.574 0.0176096 131.546 0.048955C131.517 0.0803004 131.501 0.122814 131.501 0.167143V20.1871C131.501 20.28 131.569 20.3543 131.654 20.3543H134.078C134.163 20.3543 134.231 20.28 134.231 20.1871V18.9243C134.231 18.7571 134.442 18.6866 134.538 18.8166C135.419 19.9959 136.81 20.6811 138.572 20.6811C142.392 20.6811 144.551 17.342 144.551 13.3269C144.551 9.282 142.392 5.94286 138.572 5.94286C136.839 5.94286 135.542 6.68757 134.761 7.67ZM134.354 13.325C134.354 10.7473 135.717 8.79357 137.976 8.79357C140.208 8.79357 141.599 10.7473 141.599 13.325C141.599 15.8507 140.208 17.8304 137.976 17.8304C135.719 17.8304 134.354 15.8489 134.354 13.325ZM128.994 17.7004C128.993 17.6743 128.987 17.6487 128.976 17.6254C128.965 17.6021 128.95 17.5816 128.931 17.5655C128.912 17.5494 128.89 17.538 128.867 17.5321C128.844 17.5262 128.819 17.526 128.796 17.5314C128.626 17.5686 128.363 17.615 128.077 17.615C127.059 17.615 126.638 17.0709 126.638 15.9584V9.01271C126.639 8.96871 126.655 8.92667 126.684 8.89572C126.712 8.86478 126.751 8.84743 126.792 8.84743H128.891C128.977 8.84743 129.045 8.77314 129.045 8.68029V6.43871C129.045 6.39438 129.029 6.35187 129 6.32053C128.971 6.28918 128.932 6.27157 128.891 6.27157H126.79C126.77 6.27157 126.75 6.26725 126.731 6.25885C126.713 6.25045 126.696 6.23814 126.681 6.22262C126.667 6.2071 126.656 6.18867 126.648 6.16839C126.641 6.14811 126.637 6.12638 126.637 6.10443V2.77457C126.637 2.73056 126.621 2.68833 126.592 2.65704C126.564 2.62574 126.525 2.60792 126.485 2.60743H123.838C123.797 2.60743 123.758 2.62504 123.73 2.65638C123.701 2.68773 123.685 2.73024 123.685 2.77457V6.10629C123.685 6.12824 123.681 6.14997 123.673 6.17025C123.665 6.19053 123.654 6.20895 123.64 6.22447C123.625 6.23999 123.609 6.25231 123.59 6.2607C123.571 6.2691 123.551 6.27343 123.531 6.27343H121.878C121.838 6.27343 121.799 6.29078 121.77 6.32172C121.741 6.35267 121.725 6.39471 121.725 6.43871V8.684C121.725 8.77686 121.793 8.85114 121.878 8.85114H123.531C123.616 8.85114 123.685 8.92543 123.685 9.01643V16.2871C123.685 18.9466 124.827 20.4397 127.456 20.4397C128.186 20.4397 128.673 20.3506 128.881 20.3041C128.914 20.2964 128.943 20.2766 128.963 20.2481C128.984 20.2197 128.994 20.1843 128.994 20.1481V17.7004ZM108.17 13.325C108.17 17.3959 110.8 20.6793 114.595 20.6793C118.321 20.6793 120.254 17.9196 120.67 15.4421C120.673 15.4187 120.672 15.3947 120.667 15.3717C120.661 15.3488 120.651 15.3275 120.636 15.3094C120.622 15.2913 120.605 15.2769 120.585 15.2671C120.565 15.2573 120.543 15.2524 120.521 15.2527H117.791C117.757 15.253 117.724 15.2656 117.696 15.2884C117.669 15.3112 117.65 15.343 117.641 15.379C117.259 16.8294 116.114 17.8304 114.57 17.8304C112.461 17.8304 111.122 15.9584 111.122 13.325C111.122 10.6656 112.461 8.79357 114.57 8.79357C116.114 8.79357 117.259 9.79457 117.641 11.245C117.66 11.3193 117.721 11.3713 117.791 11.3713H120.521C120.543 11.3716 120.565 11.3667 120.585 11.3569C120.605 11.3471 120.622 11.3327 120.636 11.3146C120.651 11.2965 120.661 11.2752 120.667 11.2523C120.672 11.2293 120.673 11.2053 120.67 11.1819C120.254 8.70443 118.321 5.94471 114.595 5.94471C110.8 5.94471 108.17 9.22814 108.17 13.325ZM103.198 14.3836C103.198 16.6901 102.058 17.9121 100.223 17.9121C98.4364 17.9121 97.7172 16.6363 97.7172 14.7104V6.435C97.7172 6.39067 97.701 6.34816 97.6722 6.31681C97.6435 6.28547 97.6045 6.26786 97.5638 6.26786H94.9169C94.8762 6.26786 94.8372 6.28547 94.8085 6.31681C94.7797 6.34816 94.7635 6.39067 94.7635 6.435V15.145C94.7635 18.4284 96.3776 20.6793 99.5016 20.6793C101.237 20.6793 102.421 19.968 103.084 19.0859C103.185 18.9521 103.423 19.0283 103.423 19.201V20.189C103.423 20.2819 103.491 20.3561 103.577 20.3561H105.999C106.084 20.3561 106.152 20.2819 106.152 20.189V6.435C106.152 6.39067 106.136 6.34816 106.107 6.31681C106.078 6.28547 106.039 6.26786 105.999 6.26786H103.352C103.311 6.26786 103.272 6.28547 103.243 6.31681C103.215 6.34816 103.198 6.39067 103.198 6.435V14.3836ZM89.5465 7.55857C89.5465 7.72386 89.3369 7.79629 89.238 7.67C88.4626 6.68757 87.1809 5.94286 85.4271 5.94286C81.6315 5.94286 79.4721 9.282 79.4721 13.325C79.4721 17.342 81.6315 20.6793 85.4271 20.6793C87.203 20.6793 88.5921 20.0014 89.4562 18.8314C89.5533 18.7014 89.7681 18.772 89.7681 18.9391V20.189C89.7681 20.2819 89.8363 20.3561 89.9215 20.3561H92.3451C92.4303 20.3561 92.4985 20.2819 92.4985 20.189V0.167143C92.4985 0.122814 92.4823 0.0803004 92.4535 0.048955C92.4248 0.0176096 92.3857 0 92.3451 0L89.6982 0C89.6575 0 89.6185 0.0176096 89.5897 0.048955C89.561 0.0803004 89.5448 0.122814 89.5448 0.167143L89.5465 7.55857ZM89.6692 13.325C89.6692 15.8507 88.3058 17.8304 86.0475 17.8304C83.8148 17.8304 82.4241 15.8489 82.4241 13.325C82.4241 10.7473 83.8148 8.79357 86.0475 8.79357C88.3041 8.79357 89.6692 10.7473 89.6692 13.325ZM71.5827 20.6811C75.7021 20.6811 78.2808 17.2881 78.2808 13.3269C78.2808 9.36186 75.7038 5.94286 71.5827 5.94286C67.4906 5.94286 64.9102 9.36371 64.9102 13.325C64.9102 17.2881 67.4906 20.6811 71.5827 20.6811ZM67.8621 13.3269C67.8621 10.5839 69.4489 8.79357 71.5827 8.79357C73.7421 8.79357 75.3289 10.5839 75.3289 13.325C75.3289 16.0401 73.7421 17.8304 71.5827 17.8304C69.4489 17.8304 67.8621 16.042 67.8621 13.3269ZM64.571 6.31429C64.5711 6.27261 64.5568 6.23243 64.5309 6.20178C64.505 6.17113 64.4694 6.15228 64.4313 6.149C64.3377 6.14111 64.2439 6.13616 64.15 6.13414C62.3264 6.13414 61.2629 6.93086 60.6783 7.71086C60.5794 7.84086 60.3545 7.77029 60.3545 7.59943V6.435C60.3545 6.39067 60.3383 6.34816 60.3095 6.31681C60.2808 6.28547 60.2417 6.26786 60.2011 6.26786H57.7775C57.7368 6.26786 57.6978 6.28547 57.669 6.31681C57.6403 6.34816 57.6241 6.39067 57.6241 6.435V20.189C57.6241 20.2819 57.6923 20.3561 57.7775 20.3561H60.4243C60.5096 20.3561 60.5777 20.2819 60.5777 20.189V13.0279C60.5777 10.3127 61.8168 9.11857 63.9012 9.11857C64.0802 9.11857 64.2659 9.13714 64.3955 9.15014C64.4172 9.15272 64.4393 9.15035 64.4602 9.14318C64.4811 9.13601 64.5004 9.1242 64.5169 9.10849C64.5334 9.09279 64.5467 9.07353 64.556 9.05193C64.5653 9.03033 64.5704 9.00686 64.571 8.983V6.31429ZM45.7039 19.0766C45.7039 18.9094 45.9152 18.837 46.0158 18.9651C46.7947 19.9587 48.0917 20.6811 49.8233 20.6811C53.6427 20.6811 55.8021 17.342 55.8021 13.3269C55.8021 9.282 53.6427 5.94286 49.8233 5.94286C48.0593 5.94286 46.6685 6.65043 45.7874 7.81857C45.692 7.94671 45.4806 7.87429 45.4806 7.70714V6.435C45.4806 6.39067 45.4645 6.34816 45.4357 6.31681C45.4069 6.28547 45.3679 6.26786 45.3272 6.26786H42.9053C42.8647 6.26786 42.8256 6.28547 42.7969 6.31681C42.7681 6.34816 42.752 6.39067 42.752 6.435V25.8329C42.752 25.9257 42.8201 26 42.9053 26H45.5522C45.6374 26 45.7056 25.9257 45.7056 25.8329L45.7039 19.0766ZM45.605 13.325C45.605 10.7194 46.9685 8.73786 49.2268 8.73786C51.4595 8.73786 52.8502 10.7194 52.8502 13.325C52.8502 15.8507 51.4595 17.8304 49.2268 17.8304C46.9702 17.8304 45.605 15.8489 45.605 13.325Z" fill="black" fill-opacity="0.8"/>
</svg>
