<svg width="150" height="35" viewBox="0 0 150 35" fill="none" xmlns="http://www.w3.org/2000/svg">
<g clip-path="url(#clip0_532_1150)">
<path d="M17.1933 16.4306H7.91597L12.4538 4.32639H12.605M10.4874 0L0 26.8819H3.98319L6.70588 19.6389H18.4034L21.0756 26.8819H25.0588L14.521 0H10.4874Z" fill="black" fill-opacity="0.8"/>
<path d="M30.7058 0.048584H27.126V26.9305H30.7058V0.048584Z" fill="black" fill-opacity="0.8"/>
<path d="M50.0671 17.6944C50.0671 21.8264 47.1932 24.3542 44.0167 24.3542C40.8402 24.3542 37.9663 21.9236 37.9663 17.6944C37.9663 13.4653 40.8402 11.0347 44.0167 11.0347C47.1932 11.0347 50.0671 13.5625 50.0671 17.6944ZM38.0671 24.3542C39.1764 26.0069 41.5461 27.4653 44.5713 27.5139C49.3613 27.5139 53.5965 23.3819 53.5965 17.6944C53.5965 12.0556 49.3613 7.875 44.5713 7.875C41.5461 7.875 39.126 9.33333 38.0671 11.0347H37.9159V8.50694H34.4873V35H38.0671V26.8819L37.9159 24.3542H38.0671Z" fill="black" fill-opacity="0.8"/>
<path d="M140.975 21.2917C140.975 25.0347 143.092 27.1736 147.126 27.1736C148.336 27.1736 149.193 27.0278 150 26.6875L148.74 23.7222C148.235 23.9167 147.782 24.0139 147.076 24.0139C145.412 24.0139 144.555 23.0903 144.555 21.0486V11.6667H149.244V8.50695H144.555V2.91667H140.975V8.55556H137.647V11.6667H140.975M127.16 11.0833C131.294 11.0833 132.655 13.9028 132.756 15.5069H121.714C122.37 12.7847 124.487 11.0833 127.16 11.0833ZM117.882 17.6944C117.882 23.2361 121.765 27.4653 127.664 27.5139C132.05 27.5139 134.874 25.0833 135.983 22.4583L132.807 21.1458C131.748 23.5278 129.681 24.3056 127.563 24.3056C124.588 24.3056 121.664 22.1667 121.462 18.2778H136.487L136.538 17.5972C136.538 11.6667 132.857 7.77778 127.21 7.77778C121.664 7.875 117.882 12.4444 117.882 17.6944ZM112.336 17.6944C112.336 21.8264 109.462 24.3542 106.235 24.3542C103.059 24.3542 100.185 21.9236 100.185 17.6944C100.185 13.4653 103.059 11.0347 106.235 11.0347C109.462 11.0347 112.336 13.5625 112.336 17.6944ZM100.336 24.3542C101.445 26.0069 103.815 27.4653 106.84 27.5139C111.681 27.5139 115.866 23.3333 115.866 17.6944C115.866 12.0556 111.63 7.875 106.84 7.875C103.815 7.875 101.395 9.33333 100.336 11.0347H100.185L100.336 8.50695V0.0486111H96.7563V26.9306H100.185V24.4028H100.336V24.3542ZM89.6975 18.9583C89.6975 21.9236 86.6723 24.3542 83.8487 24.3542C81.9832 24.3542 79.8656 23.3819 79.8656 21.4375C79.8656 19.7847 81.3782 17.7917 85.1597 17.7917C88.1849 17.7917 89.6975 18.9583 89.6975 18.9583ZM76.1345 21.3403C76.1345 25.1806 79.4118 27.4653 83.2437 27.5139C86.521 27.5139 88.437 25.8611 89.4958 24.3542H89.6471V26.8819H93.0756V15.7986C93.0756 10.5972 89.2437 7.92361 84.5546 7.92361C79.7647 7.92361 77.4958 10.6944 76.7899 12.3958L80.0672 13.7569C80.7227 12.0069 82.6387 11.0833 84.6051 11.0833C87.2773 11.0833 89.5966 12.7361 89.5966 15.5556V16.0417C88.8403 15.6528 86.9748 14.9236 84.4034 14.9236C80.0168 14.9236 76.1345 17.1597 76.1345 21.3403ZM59.9496 8.50695L59.8992 0H56.3193V26.8819H59.8992V16.7222C59.8992 13.9028 61.8151 11.0833 64.9412 11.0833C67.6639 11.0833 69.6303 12.3958 69.6303 16.1875V26.9306H73.2101V15.6528C73.2101 11.1319 70.8403 7.92361 65.9496 7.92361C63.3782 7.92361 60.9076 9.38194 59.9496 11.0833H59.7983L59.9496 8.50695Z" fill="black" fill-opacity="0.8"/>
</g>
<defs>
<clipPath id="clip0_532_1150">
<rect width="150" height="35" fill="white"/>
</clipPath>
</defs>
</svg>
