<svg width="120" height="30" viewBox="0 0 120 30" fill="none" xmlns="http://www.w3.org/2000/svg">
<g clip-path="url(#clip0_532_1076)">
<path d="M68.0263 9.77867C68.0263 6.27767 68.0868 3.01811 68.2685 0L59.0005 1.7505V2.59557L59.9091 2.7163C60.5755 2.77666 60.9995 3.01811 61.2418 3.38028C61.4841 3.80282 61.6658 4.40644 61.787 5.31187C61.9081 7.06237 62.0293 11.0463 61.9687 17.3239C61.9687 23.5412 61.9081 27.4648 61.787 28.9738C65.1186 29.6982 67.7234 30 69.6618 30C73.2963 30 76.1434 28.9738 78.2029 26.8612C80.2625 24.8089 81.3529 21.9115 81.3529 18.3501C81.3529 15.5131 80.5654 13.159 78.9904 11.2877C77.4154 9.4165 75.4165 8.51107 73.054 8.51107C71.479 8.51107 69.8435 8.9336 68.0263 9.77867ZM68.208 28.3702C68.0868 26.4386 67.9657 20.6439 67.9657 11.167C68.5108 10.9859 69.2378 10.8652 70.1464 10.8652C71.6002 10.8652 72.7511 11.5895 73.5992 13.0986C74.4473 14.6076 74.8713 16.4185 74.8713 18.7123C74.8713 21.5493 74.3867 23.8431 73.4175 25.7746C72.4483 27.6459 71.2367 28.6117 69.7224 28.6117C69.2378 28.4909 68.7532 28.4306 68.208 28.3702ZM24.2302 0.603622H0V1.81087L1.27208 1.93159C2.24129 2.11268 2.90762 2.47485 3.33165 3.01811C3.75568 3.62173 3.99798 4.58753 4.05856 5.91549C4.54316 12.4346 4.54316 18.5312 4.05856 24.1449C3.93741 25.4728 3.6951 26.4386 3.33165 27.0423C2.90762 27.6459 2.24129 28.008 1.27208 28.1288L0 28.3099V29.5171H15.6285V28.3099L13.9929 28.1891C13.0237 28.0684 12.3574 27.6459 11.9334 27.1026C11.5093 26.499 11.267 25.5332 11.2065 24.2052C11.0247 21.7907 10.9036 19.0141 10.9036 15.9356L14.1747 15.996C15.9313 16.0563 17.1429 17.3843 17.7486 20.0402H18.9601V10.2012H17.7486C17.1429 12.7968 15.9919 14.1247 14.1747 14.1851L10.9036 14.2455C10.9036 8.81288 11.0247 4.9497 11.2065 2.59557H15.9919C19.3841 2.59557 21.686 4.76861 23.0187 9.11469L24.4725 8.69215L24.2302 0.603622ZM21.3831 19.1952C21.3831 22.334 22.2918 24.9296 24.0485 26.9819C25.8051 29.0342 28.4099 30 31.681 30C34.952 30 37.6174 28.9738 39.5558 26.8612C41.4942 24.8089 42.4028 22.2133 42.4028 19.0744C42.4028 15.9356 41.4942 13.34 39.7375 11.2877C37.9808 9.23541 35.3761 8.26962 32.105 8.26962C28.8339 8.26962 26.1686 9.29577 24.2302 11.4085C22.2918 13.4608 21.3831 16.0563 21.3831 19.1952ZM34.8915 12.3139C35.6184 14.0644 35.9213 16.3581 35.9213 19.1348C35.9213 25.5332 34.5886 28.672 31.9838 28.672C30.6512 28.672 29.6214 27.7666 28.8945 25.9557C28.1676 24.1449 27.8647 21.8511 27.8647 19.1348C27.8647 12.7968 29.1974 9.65795 31.8021 9.65795C33.1348 9.59759 34.1646 10.503 34.8915 12.3139ZM86.0777 26.9819C88.0767 28.9738 90.6209 30 93.6497 30C95.5275 30 97.163 29.6378 98.6169 28.8531C100.071 28.1288 101.222 27.2233 102.009 26.1368L101.403 25.4125C100.071 26.4386 98.5563 26.9215 96.7996 26.9215C94.3766 26.9215 92.4987 26.1368 91.2267 24.507C89.894 22.8773 89.2882 20.8249 89.4094 18.169H102.373C102.373 15.2716 101.646 12.9175 100.131 11.0463C98.6169 9.23541 96.4967 8.32998 93.7708 8.32998C90.3786 8.32998 87.7739 9.4165 85.896 11.5292C84.0182 13.6419 83.1095 16.2374 83.1095 19.3159C83.1095 22.4547 84.0788 24.9899 86.0777 26.9819ZM90.5603 11.831C91.2267 10.3823 92.0747 9.65795 93.2256 9.65795C95.0429 9.65795 95.9515 11.9517 95.9515 16.5996L89.5305 16.7203C89.5911 14.9095 89.894 13.2797 90.5603 11.831ZM118.667 9.4165C117.032 8.69215 114.972 8.26962 112.489 8.26962C109.944 8.26962 107.945 8.9336 106.431 10.2012C104.917 11.4688 104.129 13.0382 104.129 14.9095C104.129 16.5392 104.614 17.8068 105.522 18.7123C106.431 19.6177 107.885 20.4024 109.763 21.0664C111.459 21.67 112.67 22.2736 113.276 22.8169C113.882 23.4205 114.245 24.0845 114.245 24.9899C114.245 25.835 113.942 26.6197 113.276 27.2233C112.67 27.8873 111.822 28.1891 110.732 28.1891C108.067 28.1891 106.068 26.2575 104.674 22.3944L103.645 22.6962L103.887 28.7324C106.068 29.5775 108.491 30 111.156 30C113.942 30 116.063 29.3964 117.638 28.1288C119.213 26.9215 120 25.171 120 22.998C120 21.5493 119.637 20.3421 118.849 19.4366C118.062 18.5312 116.79 17.7465 114.972 17.0221C112.973 16.2978 111.58 15.6338 110.853 15.0302C110.126 14.4266 109.763 13.7022 109.763 12.7968C109.763 11.8913 110.005 11.167 110.55 10.5634C111.095 9.95976 111.762 9.71831 112.61 9.71831C115.033 9.71831 116.79 11.4688 117.88 14.9095L118.91 14.6076L118.667 9.4165ZM60.3937 8.87324C59.5457 8.4507 58.6371 8.26962 57.6073 8.26962C56.5775 8.26962 55.5477 8.69215 54.3968 9.53722C53.2458 10.3823 52.3978 11.5292 51.7314 13.0986L51.792 8.26962L42.5846 10.0805V10.9256L43.4932 10.9859C44.6441 11.1066 45.3104 12.0121 45.4316 13.6419C45.7951 17.3843 45.7951 21.3682 45.4316 25.5936C45.3104 27.2233 44.6441 28.0684 43.4932 28.2495L42.5846 28.3702V29.5171H55.4266V28.3702L53.791 28.2495C52.6401 28.1288 51.9738 27.2233 51.8526 25.5936C51.4891 22.0926 51.4286 18.3501 51.7314 14.4869C52.0949 13.8833 52.8824 13.5211 54.0939 13.4004C55.3054 13.2797 56.6986 13.6419 58.1525 14.4869L60.3937 8.87324Z" fill="black" fill-opacity="0.8"/>
</g>
<defs>
<clipPath id="clip0_532_1076">
<rect width="120" height="30" fill="white"/>
</clipPath>
</defs>
</svg>
