<svg width="179.000000" height="35.000000" viewBox="0 0 179 35" fill="none" xmlns="http://www.w3.org/2000/svg" xmlns:xlink="http://www.w3.org/1999/xlink">
	<desc>
			Created with Pixso.
	</desc>
	<defs/>
	<rect id="Logo" width="179.000000" height="35.000000" fill="#FFFFFF" fill-opacity="0"/>
	<path id="Path" d="M32.751 22.1142Q29.938 22.1142 27.8154 21.0408Q26.3901 20.3358 25.3916 19.2414Q24.9033 18.706 24.5166 18.0775C23.7153 16.802 23.3149 15.3164 23.3149 13.6208C23.3149 12.3453 23.5449 11.1864 24.0054 10.1442C24.4487 9.10195 25.0879 8.19973 25.9233 7.43751C26.7588 6.69084 27.7559 6.11529 28.915 5.71084C30.0742 5.3064 31.353 5.10417 32.751 5.10417L45.187 5.10417Q47.9741 5.10417 50.1221 6.17751C51.5371 6.89306 52.645 7.88862 53.4463 9.16417C54.2305 10.4553 54.6226 11.9408 54.6226 13.6208C54.6226 14.8964 54.4014 16.0553 53.958 17.0975C53.4976 18.1397 52.8496 19.0342 52.0146 19.7808Q50.7612 20.9008 49.0225 21.5075C47.8633 21.912 46.585 22.1142 45.187 22.1142L32.751 22.1142ZM66.2886 22.1142Q63.4761 22.1142 61.3535 21.0408Q59.9282 20.3358 58.9297 19.2414Q58.4409 18.706 58.0547 18.0775Q57.8984 17.8291 57.7627 17.5701Q56.853 15.834 56.853 13.6208C56.853 12.3453 57.083 11.1864 57.5435 10.1442C57.9863 9.10195 58.626 8.19973 59.4609 7.43751C60.2964 6.69084 61.2939 6.11529 62.4531 5.71084C63.6123 5.3064 64.8906 5.10417 66.2886 5.10417L88.314 5.10417C90.1724 5.10417 91.8174 5.46195 93.2495 6.17751C94.6646 6.89306 95.7725 7.88862 96.5737 9.16417C97.3579 10.4553 97.75 11.9408 97.75 13.6208C97.75 14.8964 97.5283 16.0553 97.085 17.0975C96.625 18.1397 95.9771 19.0342 95.1416 19.7808C94.3062 20.5275 93.3091 21.1031 92.1499 21.5075C90.9907 21.912 89.7119 22.1142 88.314 22.1142L66.2886 22.1142ZM106.944 22.155C106.297 22.155 105.606 22.1083 104.873 22.015C104.14 21.9372 103.433 21.8283 102.751 21.6883C102.086 21.5328 101.489 21.3617 100.961 21.175C100.415 20.9728 100.032 20.685 99.8101 20.3117C99.6299 19.9957 99.54 19.6643 99.54 19.3175C99.54 19.2375 99.5449 19.1567 99.5542 19.075C99.6055 18.6395 99.7676 18.2506 100.04 17.9083C100.313 17.5661 100.68 17.3328 101.14 17.2083C101.6 17.0683 102.12 17.1072 102.7 17.325C103.296 17.5428 103.995 17.7217 104.796 17.8617C105.615 18.0017 106.331 18.0717 106.944 18.0717C107.933 18.0717 108.606 17.9706 108.965 17.7683C109.323 17.5661 109.501 17.3328 109.501 17.0683C109.501 16.8194 109.374 16.6172 109.118 16.4617C108.879 16.2906 108.428 16.1428 107.763 16.0183L104.694 15.4117C103.041 15.085 101.813 14.525 101.012 13.7317C100.211 12.9383 99.8101 11.9194 99.8101 10.675Q99.8101 9.60931 100.212 8.7272L100.212 8.727Q100.286 8.56628 100.373 8.41167C100.765 7.72723 101.31 7.14389 102.009 6.66167C102.708 6.17944 103.543 5.80611 104.515 5.54166C105.487 5.27722 106.569 5.145 107.763 5.145C108.564 5.145 109.417 5.22278 110.32 5.37833C111.224 5.53389 111.999 5.75945 112.647 6.055Q113.253 6.32125 113.563 6.78525L113.564 6.7859Q113.607 6.85021 113.644 6.91833C113.836 7.24189 113.932 7.57713 113.932 7.92406Q113.932 8.00412 113.925 8.085C113.892 8.48945 113.747 8.855 113.491 9.18167C113.252 9.49278 112.911 9.71056 112.468 9.835C112.025 9.94389 111.488 9.89722 110.857 9.695C110.431 9.555 109.919 9.44611 109.323 9.36833C108.726 9.275 108.181 9.22833 107.686 9.22833C107.141 9.22833 106.68 9.28278 106.305 9.39167C105.93 9.485 105.649 9.625 105.461 9.81167C105.274 9.98278 105.18 10.185 105.18 10.4183C105.18 10.6206 105.299 10.8072 105.538 10.9783C105.777 11.1339 106.237 11.2739 106.919 11.3983L109.987 12.005C111.624 12.3317 112.843 12.8839 113.644 13.6617Q114.117 14.1108 114.407 14.6568Q114.872 15.529 114.872 16.6483C114.872 17.4883 114.684 18.2506 114.309 18.935C113.934 19.6039 113.397 20.1794 112.698 20.6617C112.016 21.1439 111.189 21.5172 110.218 21.7817C109.246 22.0306 108.155 22.155 106.944 22.155ZM136.113 22.1083C135.227 22.1083 134.544 21.8906 134.067 21.455C133.59 21.0039 133.351 20.3661 133.351 19.5417L133.351 7.75834C133.351 6.93389 133.59 6.30389 134.067 5.86833C134.544 5.41722 135.227 5.19167 136.113 5.19167C137 5.19167 137.673 5.41722 138.133 5.86833C138.61 6.30389 138.849 6.93389 138.849 7.75834L138.849 19.5417C138.849 20.3661 138.619 21.0039 138.159 21.455C137.698 21.8906 137.017 22.1083 136.113 22.1083ZM164.031 22.1083C163.144 22.1083 162.462 21.8906 161.985 21.455C161.508 21.0039 161.269 20.3583 161.269 19.5183L161.269 14.7338L156.666 8.575C156.386 8.19884 156.247 7.78786 156.247 7.34207C156.247 7.2717 156.25 7.20045 156.257 7.12833C156.308 6.59945 156.547 6.14834 156.973 5.775C157.399 5.38612 158.013 5.19167 158.814 5.19167C159.377 5.19167 159.88 5.31611 160.323 5.565C160.783 5.81389 161.218 6.22611 161.627 6.80167L164.095 10.2476L166.588 6.77834Q167.202 5.915 167.866 5.565C168.31 5.31611 168.821 5.19167 169.401 5.19167C170.168 5.19167 170.756 5.37056 171.165 5.72833C171.591 6.07056 171.821 6.50611 171.855 7.035Q171.859 7.09725 171.86 7.1595L171.86 7.16191Q171.86 7.89179 171.318 8.62167L166.767 14.7295L166.767 19.5183Q166.767 20.7423 166.156 21.3879Q165.474 22.1083 164.031 22.1083ZM9.23145 21.875Q7.85059 21.875 7.10889 21.2217Q7.01025 21.1281 6.9248 21.0234L6.9248 21.0234Q6.39307 20.3708 6.39307 19.285L6.39307 8.015Q6.39307 6.92139 6.93262 6.2848Q7.01465 6.18794 7.10889 6.10167Q7.85059 5.425 9.23145 5.425L15.5479 5.425Q17.5166 5.425 18.8975 5.96167Q20.2783 6.475 20.9941 7.43167Q21.2627 7.77756 21.4336 8.16615L21.4336 8.16616Q21.7358 8.85234 21.7358 9.67167Q21.7358 10.5102 21.4253 11.211Q21.2085 11.6998 20.8408 12.1217C20.4048 12.637 19.8472 13.0288 19.1694 13.2972C20.041 13.5588 20.7344 13.968 21.25 14.525Q21.5112 14.801 21.7021 15.1192L21.7021 15.1192Q22.2217 15.9845 22.2217 17.1617C22.2217 18.5928 21.6421 19.7361 20.4829 20.5917Q18.7441 21.875 15.7778 21.875L9.23145 21.875ZM123.5 22.1083C122.614 22.1083 121.932 21.8906 121.455 21.455C120.978 21.0039 120.739 20.3739 120.739 19.565L120.739 9.485L117.261 9.485C116.528 9.485 115.965 9.31389 115.573 8.97167C115.198 8.61389 115.011 8.10834 115.011 7.455C115.011 6.80167 115.198 6.30389 115.573 5.96167C115.965 5.60389 116.528 5.425 117.261 5.425L129.714 5.425Q130.814 5.425 131.376 5.96167C131.769 6.30389 131.964 6.80167 131.964 7.455C131.964 8.10834 131.769 8.61389 131.376 8.97167Q130.814 9.485 129.714 9.485L126.236 9.485L126.236 19.565C126.236 20.3739 126.006 21.0039 125.546 21.455C125.086 21.8906 124.404 22.1083 123.5 22.1083ZM144.528 22.1083C143.642 22.1083 142.96 21.8906 142.483 21.455Q142.384 21.3615 142.298 21.2568Q141.767 20.6041 141.767 19.5183L141.767 8.015Q141.767 6.92138 142.306 6.28477Q142.388 6.18793 142.483 6.10167C142.977 5.65056 143.685 5.425 144.605 5.425L152.916 5.425C153.615 5.425 154.144 5.58833 154.501 5.915C154.859 6.24167 155.039 6.71611 155.039 7.33833C155.039 7.96056 154.859 8.43501 154.501 8.76167C154.144 9.08833 153.615 9.25167 152.916 9.25167L147.265 9.25167L147.265 11.8183L152.328 11.8183Q153.376 11.8183 153.913 12.3083Q153.992 12.3802 154.059 12.4616Q154.45 12.9353 154.45 13.7317Q154.45 14.5281 154.059 15.0017Q153.992 15.0831 153.913 15.155Q153.376 15.645 152.328 15.645L147.265 15.645L147.265 19.5183Q147.265 20.7423 146.654 21.3879Q145.972 22.1083 144.528 22.1083ZM11.6353 11.7017L14.5249 11.7017Q15.5986 11.7017 16.0591 11.3983Q16.1768 11.3147 16.2646 11.2066Q16.5195 10.8925 16.5195 10.3717Q16.5195 9.84522 16.2588 9.54314Q16.1733 9.44354 16.0591 9.36833Q15.5986 9.065 14.5249 9.065L11.6353 9.065L11.6353 11.7017ZM32.751 9.28084C31.9668 9.28084 31.3018 9.45195 30.7563 9.79417C30.1938 10.152 29.7676 10.6497 29.4775 11.2875C29.1709 11.9408 29.0176 12.7186 29.0176 13.6208C29.0176 14.9742 29.3496 16.032 30.0146 16.7942C30.6797 17.5564 31.5918 17.9375 32.751 17.9375L45.187 17.9375C45.9541 17.9375 46.6191 17.7664 47.1816 17.4242C47.7441 17.082 48.1787 16.5919 48.4858 15.9542C48.7754 15.3164 48.9204 14.5386 48.9204 13.6208C48.9204 12.252 48.5879 11.1864 47.9229 10.4242Q47.6182 10.0747 47.2441 9.83211L47.2441 9.83205Q46.394 9.28084 45.187 9.28084L32.751 9.28084ZM66.2886 9.28084C65.5044 9.28084 64.8398 9.45195 64.2939 9.79417C63.7314 10.152 63.3052 10.6497 63.0156 11.2875C62.7085 11.9408 62.5552 12.7186 62.5552 13.6208C62.5552 14.9742 62.8877 16.032 63.5527 16.7942C64.2173 17.5564 65.1294 17.9375 66.2886 17.9375L88.314 17.9375C89.0811 17.9375 89.7461 17.7664 90.3086 17.4242C90.8711 17.082 91.3062 16.5919 91.6128 15.9542C91.9028 15.3164 92.0474 14.5386 92.0474 13.6208Q92.0474 11.5675 91.0503 10.4242C90.3853 9.66195 89.4731 9.28084 88.314 9.28084L66.2886 9.28084ZM11.6353 18.235L15.0107 18.235Q16.0845 18.235 16.5449 17.885C16.8687 17.6361 17.0308 17.2706 17.0308 16.7883Q17.0308 16.2681 16.7793 15.9409Q16.6812 15.8133 16.5449 15.715Q16.0845 15.3417 15.0107 15.3417L11.6353 15.3417L11.6353 18.235Z" fill="#624DDC" fill-opacity="1.000000" fill-rule="evenodd"/>
	<path id="Path" d="M164.843 30.5734C165.113 30.6078 165.368 30.625 165.607 30.625C166.053 30.625 166.456 30.5791 166.814 30.4873C167.173 30.3898 167.478 30.2521 167.729 30.0742C167.987 29.8964 168.185 29.6841 168.323 29.4374C168.461 29.1849 168.531 28.9038 168.531 28.594Q168.531 28.1812 168.359 27.8595Q168.252 27.6581 168.078 27.4924C167.783 27.2056 167.333 27.0019 166.729 26.8814L165.598 26.6576C165.346 26.6117 165.176 26.5601 165.088 26.5027C165 26.4396 164.956 26.3708 164.956 26.2962C164.956 26.2101 164.991 26.1355 165.06 26.0724C165.129 26.0036 165.233 25.952 165.371 25.9175C165.51 25.8774 165.679 25.8573 165.88 25.8573C166.063 25.8573 166.264 25.8745 166.484 25.9089C166.704 25.9376 166.893 25.9778 167.05 26.0294C167.283 26.104 167.48 26.1212 167.644 26.081C167.808 26.0351 167.934 25.9548 168.021 25.8401C168.116 25.7196 168.169 25.5848 168.182 25.4356C168.194 25.2864 168.16 25.143 168.078 25.0053C168.002 24.8676 167.88 24.7615 167.71 24.6869C167.471 24.5779 167.185 24.4947 166.852 24.4373C166.519 24.3799 166.204 24.3512 165.909 24.3512Q165.249 24.3512 164.711 24.4975C164.353 24.5951 164.044 24.7328 163.787 24.9106C163.529 25.0885 163.328 25.3036 163.183 25.5561C163.045 25.8028 162.976 26.081 162.976 26.3909Q162.976 26.848 163.171 27.1951Q163.27 27.3708 163.419 27.5182C163.714 27.8108 164.167 28.0174 164.777 28.1379L165.909 28.3616C166.154 28.4075 166.321 28.462 166.409 28.5251C166.503 28.5825 166.55 28.6571 166.55 28.7489C166.55 28.8464 166.484 28.9325 166.352 29.0071C166.22 29.0817 165.972 29.119 165.607 29.119C165.381 29.119 165.117 29.0931 164.815 29.0415C164.519 28.9899 164.261 28.9239 164.042 28.8436C163.828 28.7632 163.636 28.7489 163.466 28.8005C163.296 28.8464 163.161 28.9325 163.061 29.0587C162.96 29.1849 162.9 29.3284 162.881 29.489C162.862 29.6497 162.894 29.8017 162.976 29.9451C163.057 30.0828 163.199 30.189 163.4 30.2635C163.595 30.3324 163.815 30.3955 164.06 30.4529C164.312 30.5045 164.573 30.5447 164.843 30.5734ZM142.892 30.6078C142.666 30.6078 142.474 30.559 142.317 30.4615C142.166 30.364 142.069 30.232 142.024 30.0656C141.987 29.8935 142.021 29.7013 142.128 29.489L144.401 25.1172C144.533 24.859 144.694 24.6697 144.882 24.5492C145.077 24.4287 145.3 24.3685 145.552 24.3685C145.804 24.3685 146.023 24.4287 146.212 24.5492C146.401 24.6697 146.561 24.859 146.693 25.1172L148.966 29.489C149.08 29.707 149.117 29.9021 149.08 30.0742C149.048 30.2406 148.957 30.3726 148.806 30.4701C148.661 30.5619 148.479 30.6078 148.259 30.6078C147.97 30.6078 147.747 30.5475 147.589 30.4271C147.432 30.3066 147.291 30.1115 147.165 29.8419L146.955 29.3943L144.14 29.3943L143.93 29.8419C143.804 30.1115 143.672 30.3066 143.534 30.4271C143.396 30.5475 143.182 30.6078 142.892 30.6078ZM134.585 30.5217C134.258 30.5217 134.003 30.4414 133.821 30.2808C133.645 30.1144 133.557 29.882 133.557 29.5837L133.557 25.3926C133.557 25.0885 133.645 24.8561 133.821 24.6955C133.997 24.5348 134.249 24.4545 134.576 24.4545C134.903 24.4545 135.151 24.5348 135.321 24.6955C135.497 24.8561 135.585 25.0885 135.585 25.3926L135.585 28.9899L137.65 28.9899C137.927 28.9899 138.138 29.0558 138.282 29.1878C138.433 29.3198 138.509 29.5091 138.509 29.7558C138.509 30.0025 138.433 30.1918 138.282 30.3238C138.138 30.4557 137.927 30.5217 137.65 30.5217L134.585 30.5217ZM154.082 30.5217C153.743 30.5217 153.482 30.4414 153.299 30.2808C153.124 30.1144 153.035 29.8763 153.035 29.5665L153.035 25.4098C153.035 25.1 153.124 24.8647 153.299 24.7041C153.482 24.5377 153.743 24.4545 154.082 24.4545L156.412 24.4545C156.896 24.4545 157.308 24.5205 157.647 24.6525C157.987 24.7787 158.245 24.9594 158.42 25.1946C158.603 25.4299 158.694 25.7052 158.694 26.0208C158.694 26.3708 158.584 26.672 158.364 26.9244C158.203 27.1145 157.998 27.259 157.748 27.358C158.069 27.4545 158.325 27.6054 158.515 27.8109C158.754 28.0633 158.874 28.3875 158.874 28.7833C158.874 29.3112 158.66 29.7328 158.232 30.0484C157.805 30.364 157.226 30.5217 156.497 30.5217L154.082 30.5217ZM154.969 26.7695L156.035 26.7695C156.298 26.7695 156.487 26.7322 156.601 26.6576C156.713 26.5773 156.77 26.4511 156.77 26.279C156.77 26.1069 156.713 25.9835 156.601 25.9089C156.487 25.8343 156.298 25.797 156.035 25.797L154.969 25.797L154.969 26.7695ZM145.533 26.365L144.795 27.983L146.297 27.983L145.552 26.365L145.533 26.365ZM154.969 29.1792L156.214 29.1792C156.478 29.1792 156.667 29.1362 156.78 29.0501C156.899 28.9583 156.959 28.8235 156.959 28.6456C156.959 28.4678 156.899 28.3358 156.78 28.2498C156.667 28.158 156.478 28.1121 156.214 28.1121L154.969 28.1121L154.969 29.1792Z" fill="#000000" fill-opacity="0.600000" fill-rule="evenodd"/>
</svg>
