<svg version="1.2" xmlns="http://www.w3.org/2000/svg" viewBox="0 0 612 383" width="612" height="383">
	<title>stars_2-svg</title>
	<style>
		.s0 { fill: #ffffff } 
		.s1 { opacity: .5;fill: #ffffff } 
	</style>
	<path id="Layer" class="s0" d="m600.6 69.9c0 1.1-2.3 2.1-5.7 2.6-1.8 0.3-3.1 1.6-3.4 3.4-0.6 3.4-1.5 5.7-2.7 5.7-1.1 0-2.1-2.3-2.6-5.7-0.3-1.8-1.7-3.1-3.4-3.4-3.4-0.5-5.8-1.5-5.8-2.6 0-1.2 2.4-2.1 5.8-2.7 1.7-0.3 3.1-1.6 3.4-3.4 0.5-3.4 1.5-5.7 2.6-5.7 1.2 0 2.1 2.3 2.7 5.7 0.3 1.8 1.6 3.1 3.4 3.4 3.4 0.6 5.7 1.5 5.7 2.7z"/>
	<path id="Layer" class="s0" d="m99.5-200.2c0 1.1-2.3 2.1-5.8 2.7-1.7 0.2-3.1 1.6-3.4 3.3-0.5 3.5-1.5 5.8-2.6 5.8-1.1 0-2.1-2.3-2.7-5.8-0.2-1.7-1.6-3.1-3.3-3.3-3.5-0.6-5.8-1.6-5.8-2.7 0-1.1 2.3-2.1 5.8-2.6 1.7-0.3 3.1-1.7 3.3-3.4 0.6-3.5 1.6-5.8 2.7-5.8 1.1 0 2.1 2.3 2.6 5.8 0.3 1.7 1.7 3.1 3.4 3.4 3.5 0.5 5.8 1.5 5.8 2.6z"/>
	<path id="Layer" class="s0" d="m35.9 35.4c0 1.2-2.4 2.1-5.8 2.7-1.7 0.2-3.1 1.6-3.4 3.3-0.5 3.5-1.5 5.8-2.6 5.8-1.2 0-2.1-2.3-2.7-5.8-0.3-1.7-1.6-3.1-3.4-3.3-3.4-0.6-5.7-1.6-5.7-2.7 0-1.1 2.3-2.1 5.7-2.6 1.8-0.3 3.1-1.7 3.4-3.4 0.6-3.5 1.5-5.8 2.7-5.8 1.1 0 2.1 2.3 2.6 5.8 0.3 1.7 1.7 3.1 3.4 3.4 3.4 0.5 5.8 1.5 5.8 2.6z"/>
	<path id="Layer" class="s0" d="m549.5-75.8c0 0.7-1.4 1.3-3.5 1.6-1.1 0.2-1.9 1-2.1 2.1-0.3 2.1-0.9 3.5-1.6 3.5-0.7 0-1.3-1.4-1.6-3.5-0.2-1.1-1-1.9-2.1-2.1-2.1-0.3-3.5-0.9-3.5-1.6 0-0.7 1.4-1.3 3.5-1.6 1.1-0.2 1.9-1.1 2.1-2.1 0.3-2.1 0.9-3.5 1.6-3.5 0.7 0 1.3 1.4 1.6 3.5 0.2 1 1 1.9 2.1 2.1 2.1 0.3 3.5 0.9 3.5 1.6z"/>
	<path id="Layer" class="s0" d="m542.3-326.8c0 0.7-1.4 1.3-3.5 1.6-1.1 0.2-1.9 1-2.1 2.1-0.3 2.1-0.9 3.5-1.6 3.5-0.7 0-1.3-1.4-1.6-3.5-0.2-1.1-1.1-1.9-2.1-2.1-2.1-0.3-3.5-0.9-3.5-1.6 0-0.7 1.4-1.3 3.5-1.6 1-0.2 1.9-1 2.1-2.1 0.3-2.1 0.9-3.5 1.6-3.5 0.7 0 1.3 1.4 1.6 3.5 0.2 1.1 1 1.9 2.1 2.1 2.1 0.3 3.5 0.9 3.5 1.6z"/>
	<path id="Layer" class="s0" d="m104.5 259.6c2.8 0 5.1-2.2 5.1-5 0-2.8-2.3-5.1-5.1-5.1-2.8 0-5 2.3-5 5.1 0 2.8 2.2 5 5 5z"/>
	<path id="Layer" class="s0" d="m577 206.9c2.8 0 5.1-2.3 5.1-5.1 0-2.8-2.3-5-5.1-5-2.8 0-5 2.2-5 5 0 2.8 2.2 5.1 5 5.1z"/>
	<path id="Layer" class="s0" d="m220.1-97.5c0-2.8-2.3-5-5.1-5-2.8-0.1-5.1 2.2-5.1 5 0 2.8 2.3 5.1 5.1 5.1 2.8 0 5.1-2.3 5.1-5.1z"/>
	<path id="Layer" class="s0" d="m10.1-109.5c2.8 0 5.1-2.3 5.1-5.1 0-2.7-2.3-5-5.1-5-2.8 0-5 2.3-5 5 0 2.8 2.2 5.1 5 5.1z"/>
	<path id="Layer" class="s0" d="m129.8 78.1c2.8 0 5.1-2.3 5.1-5 0-2.8-2.3-5.1-5.1-5.1-2.8 0-5 2.3-5 5.1 0 2.7 2.2 5 5 5z"/>
	<path id="Layer" class="s0" d="m134.9-55.5c2.8 0 5-2.2 5-5 0-2.8-2.2-5.1-5-5.1-2.8 0-5.1 2.3-5.1 5.1 0 2.8 2.3 5 5.1 5z"/>
	<path id="Layer" class="s0" d="m5.1-272.4c2.8 0 5-2.3 5-5.1 0-2.8-2.2-5-5-5-2.8 0-5.1 2.2-5.1 5 0 2.8 2.3 5.1 5.1 5.1z"/>
	<path id="Layer" class="s1" d="m449.5 382.5c2.8 0 5-2.3 5-5.1 0-2.8-2.2-5-5-5-2.8 0-5.1 2.2-5.1 5 0 2.8 2.3 5.1 5.1 5.1z"/>
	<path id="Layer" class="s0" d="m162.9-288.5c2.8 0 5.1-2.2 5.1-5 0-2.8-2.3-5.1-5.1-5.1-2.7 0-5 2.3-5 5.1 0 2.8 2.3 5 5 5z"/>
</svg>