<svg width="697.290039" height="716.475586" viewBox="0 0 697.29 716.476" fill="none" xmlns="http://www.w3.org/2000/svg" xmlns:xlink="http://www.w3.org/1999/xlink">
	<desc>
			Created with Pixso.
	</desc>
	<defs/>
	<g opacity="0.500000">
		<path id="Vector" d="M211.051 699.647C211.051 700.773 208.744 701.752 205.297 702.292C203.557 702.564 202.188 703.933 201.914 705.671C201.374 709.113 200.392 711.419 199.267 711.419C198.141 711.419 197.159 709.115 196.62 705.671C196.348 703.933 194.977 702.564 193.236 702.292C189.787 701.752 187.476 700.771 187.476 699.647C187.476 698.525 189.787 697.536 193.231 696.998C194.974 696.729 196.345 695.357 196.62 693.617C197.159 690.17 198.141 687.866 199.267 687.866C200.392 687.866 201.374 690.17 201.914 693.617C202.186 695.357 203.559 696.726 205.302 696.998C208.746 697.536 211.051 698.515 211.051 699.647Z" fill="#FFFFFF" fill-opacity="1.000000" fill-rule="nonzero"/>
	</g>
	<path id="Vector" d="M588.971 398.043C588.971 398.613 587.804 399.108 586.06 399.382C585.179 399.52 584.487 400.212 584.348 401.091C584.075 402.833 583.578 404 583.009 404C582.439 404 581.942 402.834 581.669 401.091C581.531 400.212 580.838 399.52 579.957 399.382C578.212 399.108 577.042 398.612 577.042 398.043C577.042 397.475 578.212 396.975 579.955 396.703C580.837 396.566 581.53 395.873 581.669 394.992C581.942 393.248 582.439 392.082 583.009 392.082C583.578 392.082 584.075 393.248 584.348 394.992C584.486 395.873 585.181 396.565 586.062 396.703C587.805 396.975 588.971 397.47 588.971 398.043Z" fill="#FFFFFF" fill-opacity="1.000000" fill-rule="nonzero"/>
	<path id="Vector" d="M99.4731 133.82C99.4731 134.946 97.1663 135.925 93.7197 136.465C91.9792 136.737 90.6108 138.106 90.3362 139.844C89.7966 143.286 88.8145 145.592 87.6892 145.592C86.5637 145.592 85.5818 143.288 85.0422 139.844C84.77 138.106 83.3989 136.737 81.6587 136.465C78.2095 135.925 75.8979 134.943 75.8979 133.82C75.8979 132.698 78.2095 131.708 81.6538 131.171C83.3965 130.901 84.7676 129.53 85.0422 127.79C85.5818 124.343 86.5637 122.039 87.6892 122.039C88.8145 122.039 89.7966 124.343 90.3362 127.79C90.6084 129.53 91.9817 130.899 93.7246 131.171C97.1687 131.708 99.4731 132.688 99.4731 133.82Z" fill="#FFFFFF" fill-opacity="1.000000" fill-rule="nonzero"/>
	<path id="Vector" d="M636.37 93.5659C636.37 94.6914 634.063 95.6709 630.617 96.2109C628.876 96.4829 627.508 97.8516 627.233 99.5894C626.694 103.031 625.711 105.338 624.586 105.338C623.461 105.338 622.479 103.034 621.939 99.5894C621.667 97.8516 620.296 96.4829 618.556 96.2109C615.106 95.6709 612.795 94.689 612.795 93.5659C612.795 92.4434 615.106 91.4541 618.551 90.9165C620.293 90.647 621.664 89.2759 621.939 87.5356C622.479 84.0889 623.461 81.7847 624.586 81.7847C625.711 81.7847 626.694 84.0889 627.233 87.5356C627.505 89.2759 628.879 90.6445 630.621 90.9165C634.066 91.4541 636.37 92.4336 636.37 93.5659Z" fill="#FFFFFF" fill-opacity="1.000000" fill-rule="nonzero"/>
	<path id="Vector" d="M35.8525 369.426C35.8525 370.551 33.5457 371.531 30.0991 372.071C28.3586 372.343 26.9902 373.711 26.7156 375.449C26.176 378.891 25.1938 381.198 24.0686 381.198C22.9431 381.198 21.9612 378.894 21.4216 375.449C21.1494 373.711 19.7783 372.343 18.0381 372.071C14.5889 371.531 12.2773 370.549 12.2773 369.426C12.2773 368.303 14.5889 367.314 18.0332 366.776C19.7759 366.507 21.147 365.136 21.4216 363.396C21.9612 359.949 22.9431 357.645 24.0686 357.645C25.1938 357.645 26.176 359.949 26.7156 363.396C26.9878 365.136 28.3611 366.504 30.104 366.776C33.5481 367.314 35.8525 368.293 35.8525 369.426Z" fill="#FFFFFF" fill-opacity="1.000000" fill-rule="nonzero"/>
	<g opacity="0.500000">
		<path id="Vector" d="M532.37 587.127C532.37 588.252 530.063 589.232 526.617 589.771C524.876 590.044 523.508 591.413 523.233 593.15C522.694 596.592 521.711 598.899 520.586 598.899C519.461 598.899 518.479 596.595 517.939 593.15C517.667 591.413 516.296 590.044 514.556 589.771C511.106 589.232 508.795 588.25 508.795 587.127C508.795 586.004 511.106 585.015 514.551 584.478C516.293 584.208 517.664 582.837 517.939 581.097C518.479 577.65 519.461 575.346 520.586 575.346C521.711 575.346 522.694 577.65 523.233 581.097C523.505 582.837 524.879 584.206 526.621 584.478C530.066 585.015 532.37 585.995 532.37 587.127Z" fill="#FFFFFF" fill-opacity="1.000000" fill-rule="nonzero"/>
	</g>
	<path id="Vector" d="M697.29 512.433C697.29 513.121 695.878 513.721 693.768 514.051C692.703 514.219 691.865 515.055 691.697 516.12C691.366 518.227 690.766 519.64 690.076 519.64C689.385 519.64 688.785 518.227 688.455 516.12C688.287 515.055 687.448 514.217 686.384 514.051C684.271 513.721 682.857 513.121 682.857 512.433C682.857 511.745 684.271 511.139 686.381 510.811C687.448 510.646 688.289 509.808 688.455 508.74C688.785 506.63 689.385 505.218 690.076 505.218C690.766 505.218 691.366 506.63 691.697 508.74C691.865 509.805 692.703 510.644 693.771 510.811C695.878 511.139 697.29 511.74 697.29 512.433Z" fill="#FFFFFF" fill-opacity="1.000000" fill-rule="nonzero"/>
	<path id="Vector" d="M19.4939 550.514C19.4939 551.202 18.0818 551.802 15.9719 552.132C14.9072 552.3 14.0686 553.136 13.9009 554.201C13.5703 556.308 12.97 557.721 12.2795 557.721C11.5894 557.721 10.989 556.308 10.6584 554.201C10.4907 553.136 9.6521 552.298 8.5874 552.132C6.4751 551.802 5.06055 551.202 5.06055 550.514C5.06055 549.826 6.4751 549.22 8.58496 548.892C9.6521 548.727 10.4932 547.889 10.6584 546.821C10.989 544.711 11.5894 543.299 12.2795 543.299C12.97 543.299 13.5703 544.711 13.9009 546.821C14.0686 547.886 14.9072 548.725 15.9744 548.892C18.0818 549.22 19.4939 549.821 19.4939 550.514Z" fill="#FFFFFF" fill-opacity="1.000000" fill-rule="nonzero"/>
	<path id="Vector" d="M549.508 258.174C549.508 258.862 548.095 259.462 545.986 259.793C544.921 259.961 544.082 260.797 543.915 261.861C543.584 263.969 542.984 265.381 542.293 265.381C541.603 265.381 541.003 263.969 540.672 261.861C540.504 260.797 539.666 259.958 538.601 259.793C536.489 259.462 535.074 258.862 535.074 258.174C535.074 257.486 536.489 256.881 538.599 256.553C539.666 256.388 540.507 255.549 540.672 254.482C541.003 252.372 541.603 250.96 542.293 250.96C542.984 250.96 543.584 252.372 543.915 254.482C544.082 255.547 544.921 256.385 545.988 256.553C548.095 256.881 549.508 257.481 549.508 258.174Z" fill="#FFFFFF" fill-opacity="1.000000" fill-rule="nonzero"/>
	<path id="Vector" d="M50.2859 682.064C50.2859 682.752 48.8738 683.353 46.7639 683.683C45.6992 683.851 44.8606 684.689 44.6929 685.751C44.3623 687.859 43.762 689.271 43.0715 689.271C42.3813 689.271 41.781 687.859 41.4504 685.751C41.2827 684.687 40.4441 683.849 39.3794 683.683C37.2671 683.353 35.8525 682.752 35.8525 682.064C35.8525 681.376 37.2671 680.771 39.377 680.443C40.4441 680.278 41.2852 679.439 41.4504 678.372C41.781 676.262 42.3813 674.85 43.0715 674.85C43.762 674.85 44.3623 676.262 44.6929 678.372C44.8606 679.437 45.6992 680.275 46.7664 680.443C48.8738 680.771 50.2859 681.372 50.2859 682.064Z" fill="#FFFFFF" fill-opacity="1.000000" fill-rule="nonzero"/>
	<path id="Vector" d="M542.291 7.21436C542.291 7.90234 540.879 8.50244 538.769 8.83301C537.704 9.00098 536.865 9.83691 536.698 10.9014C536.367 13.0088 535.767 14.4214 535.077 14.4214C534.386 14.4214 533.786 13.0088 533.455 10.9014C533.288 9.83691 532.449 8.99854 531.384 8.83301C529.272 8.50244 527.857 7.90234 527.857 7.21436C527.857 6.52637 529.272 5.9209 531.382 5.59277C532.449 5.42773 533.29 4.58936 533.455 3.52197C533.786 1.41211 534.386 0 535.077 0C535.767 0 536.367 1.41211 536.698 3.52197C536.865 4.58691 537.704 5.42529 538.771 5.59277C540.879 5.9209 542.291 6.52148 542.291 7.21436Z" fill="#FFFFFF" fill-opacity="1.000000" fill-rule="nonzero"/>
	<path id="Vector" d="M109.594 588.563C109.594 591.355 107.329 593.619 104.533 593.619C101.739 593.619 99.4729 591.355 99.4729 588.563C99.4729 585.771 101.739 583.507 104.533 583.507C107.329 583.507 109.594 585.771 109.594 588.563Z" fill="#FFFFFF" fill-opacity="1.000000" fill-rule="evenodd"/>
	<path id="Vector" d="M215 231.451C217.795 231.454 220.058 233.72 220.055 236.512C220.052 239.304 217.784 241.565 214.989 241.562C212.194 241.56 209.931 239.293 209.934 236.501C209.937 233.709 212.205 231.448 215 231.451Z" fill="#FFFFFF" fill-opacity="1.000000" fill-rule="evenodd"/>
	<path id="Vector" d="M15.1819 219.448C15.1819 222.241 12.9163 224.504 10.1211 224.504C7.32617 224.504 5.06055 222.241 5.06055 219.448C5.06055 216.656 7.32617 214.393 10.1211 214.393C12.9163 214.393 15.1819 216.656 15.1819 219.448Z" fill="#FFFFFF" fill-opacity="1.000000" fill-rule="evenodd"/>
	<path id="Vector" d="M134.876 407.055C134.876 409.848 132.61 412.111 129.815 412.111C127.02 412.111 124.754 409.848 124.754 407.055C124.754 404.263 127.02 402 129.815 402C132.61 402 134.876 404.263 134.876 407.055Z" fill="#FFFFFF" fill-opacity="1.000000" fill-rule="evenodd"/>
	<path id="Vector" d="M139.936 273.485C139.936 276.277 137.671 278.541 134.875 278.541C132.081 278.541 129.815 276.277 129.815 273.485C129.815 270.693 132.081 268.429 134.875 268.429C137.671 268.429 139.936 270.693 139.936 273.485Z" fill="#FFFFFF" fill-opacity="1.000000" fill-rule="evenodd"/>
	<path id="Vector" d="M10.1213 56.5127C10.1213 59.3052 7.85571 61.5688 5.06055 61.5688C2.26562 61.5688 0 59.3052 0 56.5127C0 53.7207 2.26562 51.457 5.06055 51.457C7.85571 51.457 10.1213 53.7207 10.1213 56.5127Z" fill="#FFFFFF" fill-opacity="1.000000" fill-rule="evenodd"/>
	<path id="Vector" d="M674.252 240.996C674.252 243.789 671.987 246.052 669.192 246.052C666.397 246.052 664.131 243.789 664.131 240.996C664.131 238.204 666.397 235.94 669.192 235.94C671.987 235.94 674.252 238.204 674.252 240.996Z" fill="#FFFFFF" fill-opacity="1.000000" fill-rule="evenodd"/>
	<path id="Vector" d="M168.01 40.4609C168.01 43.2534 165.745 45.5171 162.95 45.5171C160.155 45.5171 157.889 43.2534 157.889 40.4609C157.889 37.6689 160.155 35.4053 162.95 35.4053C165.745 35.4053 168.01 37.6689 168.01 40.4609Z" fill="#FFFFFF" fill-opacity="1.000000" fill-rule="evenodd"/>
</svg>
