<svg width="150" height="45" viewBox="0 0 150 45" fill="none" xmlns="http://www.w3.org/2000/svg">
<g clip-path="url(#clip0_532_1146)">
<path d="M16.7686 22.7476L26.2009 11.5049H22.2707C20.5022 11.5049 19.3886 12.0583 18.4389 13.165L13.4607 19.1068L8.64629 13.165C7.72926 12.0583 6.58297 11.5049 4.81441 11.5049H0.884279L10.1856 22.7476L0 34.9806H3.73362C5.50218 34.9806 6.61572 34.4272 7.5655 33.3204L13.4607 26.3592L27.2817 43.3398C28.1659 44.4466 29.345 45 31.1135 45H35.1419L16.7686 22.7476ZM92.1616 34.9806H97.5V11.5049H92.1616V34.9806ZM49.8799 34.9806H55.2183V11.5049H49.8799V34.9806ZM130.71 43.2524L150 11.5049H147.118C145.349 11.5049 144.007 11.9709 143.286 13.165L135.688 25.7184L129.105 13.165C128.417 11.9126 127.041 11.5049 125.273 11.5049H122.489L132.642 30.6408L123.799 45H126.681C128.483 45 129.924 44.5049 130.71 43.2524ZM61.5721 11.5049V34.9806H66.9105V18.8738C68.5808 16.8058 70.9389 15.5243 73.8865 15.5243C77.8166 15.5243 80.5022 17.7379 80.5022 22.165V32.7379C80.5022 34.0777 81.5502 34.9806 82.9913 34.9806H85.8406V21.3204C85.8406 15.233 81.4847 11.0097 75.1965 11.0097C71.8232 11.0097 69.0393 12.0583 66.9105 13.8058V11.5049H61.5721ZM107.391 26.6505C107.391 31.7476 110.895 35.3884 117.216 35.3884C118.755 35.3884 120.065 35.2136 121.114 34.9223L120.033 30.7864C119.345 30.932 118.526 31.0194 117.609 31.0194C115.022 31.0194 112.729 29.767 112.729 26.5631V15.7282H120.197L118.035 11.5049H112.762V2.06796L107.424 4.13592V11.5049H101.79V15.7282H107.424L107.391 26.6505ZM33.4716 15.7282V34.9515H38.81V15.7282H45.655V11.5049H38.81V9.75728C38.81 5.76699 41.4956 4.42718 44.1485 4.42718C44.8362 4.42718 45.4258 4.51456 45.9498 4.66019L47.0306 0.466019C46.3428 0.23301 45.262 0 43.7227 0C37.107 0 33.4716 4.36893 33.4716 9.6699V11.5049H30.6878L27.3144 15.7282H33.4716Z" fill="black" fill-opacity="0.8"/>
</g>
<defs>
<clipPath id="clip0_532_1146">
<rect width="150" height="45" fill="white"/>
</clipPath>
</defs>
</svg>
